<svg viewBox="-212.5985 -850.394 4677.166 18708.664" xmlns="http://www.w3.org/2000/svg">
<g id="container_0">
<path d="M0,0 L4251.9688,0 L4251.9688,17007.875 L0,17007.875 z" fill="transparent" stroke="black" stroke-width="18.708666"/>
<title>container, id: 0, bbox: [x_min: 0.000, y_min: 0.000, x_max: 4251.969, y_max: 17007.875]</title>
</g>
<g id="items">
<defs>
<g id="item_0">
<path d="M-75.27754,782.2436 L-7.527755,6.87186 L7.559055,7.559055 L233.36038,775.37177 L150.55508,0 L75.59055,75.59055 L-56.3799,763.3459 L18.89764,-18.8977 L234.3307,1897.8914 L-154.96063,1122.5195 L-18.89764,18.89764 L18.897638,18.897638 L-141.73228,775.37177 L-85.98407,907.655 L-85.98407,832.065 L61.417324,907.6552 L-24.566929,0 L24.56697,1739.7197 L110.55122,907.655 L110.55122,832.065 L24.566929,0 L-85.984474,2596.3523 L24.566704,1688.697 L24.566704,1764.287 L110.551,856.63196 L110.551,932.2219 L-18.898102,2107.0835 L-107.717,1053.54 L-88.8189,1053.54 L-88.8189,3209.7603 L-0.0000019073486,2131.65 L-18.898102,2131.65 L88.8189,1053.54 L107.717,1053.54 L0,-24.5669 L215.43353,2156.2202 L107.717,1078.11 L88.8189,1078.11 L0,24.5669 L0,0 L12.283465,12.283465 L-243.77954,2029.2303 L-136.063,1046.93 L82.8053,775.372 L117.165,775.372 L136.063,794.269 L-136.063,1011.31 L136.063,1011.31 L-272.126,1841.199 L-272.126,1897.8889 L-136.063,794.269 L-136.063,975.687 L-98.267,2944.8223 L-98.267,3001.5122 L-234.33,1897.8921 L0,1897.8921 L-117.165,775.372 L-82.8053,775.372 L136.063,975.687 L136.063,1046.93 z" fill="white" fill-rule="nonzero" stroke="gray" stroke-width="9.354333"/>
</g>
<g id="cd_shape_0">
<path d="M-140.68893,775.2725 L19.875854,19.105347 L19.889282,19.02649 L19.897217,18.926819 L19.895142,18.826904 L19.883118,18.727661 L19.861206,18.630127 L19.829712,18.535278 L19.78888,18.44403 L19.739136,18.35736 L19.68097,18.276062 L19.61499,18.200928 L19.54187,18.132813 L19.46228,18.072327 L19.377075,18.02008 L19.287048,17.976563 L19.193176,17.942322 L19.096313,17.917603 L18.997498,17.902649 L18.897644,17.897644 L-18.897644,17.897644 L-18.94574,17.898804 L-19.045227,17.90857 L-19.14325,17.928284 L-19.23877,17.957642 L-19.330933,17.996399 L-19.418762,18.044128 L-19.501343,18.100403 L-19.577911,18.164673 L-19.647675,18.236267 L-19.70996,18.314453 L-19.76413,18.398438 L-19.809631,18.487427 L-19.846039,18.580566 L-19.872955,18.676819 L-19.890137,18.775269 L-155.95313,1122.3972 L-155.96002,1122.4849 L-155.9585,1122.5847 L-155.94699,1122.6841 L-155.92566,1122.7817 L-155.89465,1122.8767 L-155.85431,1122.9683 L233.43701,1898.3401 L233.47998,1898.417 L233.53674,1898.4993 L233.60138,1898.5754 L233.67334,1898.6448 L233.75189,1898.7068 L233.83618,1898.7605 L233.92542,1898.8054 L234.01868,1898.8413 L234.11511,1898.8677 L234.21368,1898.8845 L234.31342,1898.8911 L234.41333,1898.888 L234.51239,1898.8748 L234.60968,1898.8516 L234.70416,1898.8188 L234.79486,1898.7771 L234.88098,1898.7263 L234.96161,1898.6672 L235.03589,1898.6003 L235.10315,1898.5264 L235.16272,1898.446 L235.21393,1898.3601 L235.25635,1898.2698 L235.28949,1898.1753 L235.31305,1898.0784 L235.32678,1897.9792 L235.33063,1897.8794 L235.3244,1897.7795 L19.891357,-19.0094 L19.887085,-19.042847 L19.867615,-19.14087 L19.838501,-19.236511 L19.799988,-19.328735 L19.752441,-19.416687 L19.69635,-19.49945 L19.632263,-19.576172 L19.560913,-19.646118 L19.48285,-19.708557 L19.398987,-19.76294 L19.31012,-19.808716 L19.217102,-19.845337 L19.12091,-19.872498 L19.02246,-19.889893 L18.92279,-19.8974 L18.822876,-19.894897 L18.723694,-19.882446 L18.62622,-19.860168 L18.531494,-19.828247 L18.44043,-19.787048 L18.353943,-19.737 L18.272827,-19.678528 L18.19806,-19.612244 L18.130188,-19.538818 L18.070007,-19.458984 L18.018127,-19.373535 L17.975037,-19.283386 L17.941101,-19.189331 L17.916748,-19.092407 L17.902222,-18.99347 L-57.375305,763.2501 L-57.378754,763.2979 L-57.37857,763.3979 L-57.368378,763.4973 L-57.348328,763.5952 L-57.318604,763.6907 L-57.27948,763.78265 L-57.231384,763.8703 L-57.174774,763.9527 L-57.11023,764.029 L-57.03839,764.0985 L-56.95996,764.16046 L-56.875732,764.2143 L-56.78656,764.25946 L-56.69333,764.29553 L-56.596954,764.322 L-56.498413,764.33887 L-56.398712,764.3457 L-56.298798,764.3426 L-56.199677,764.3295 L-56.102386,764.3066 L-56.007874,764.2741 L-55.917053,764.2323 L-55.83087,764.1817 L-55.750183,764.1227 L-55.67578,764.05597 L-55.6084,763.9821 L-55.548737,763.9019 L-55.497375,763.81616 L-55.454834,763.7257 L-55.42154,763.6314 L-55.397827,763.53436 L76.5152,76.07831 L149.78406,2.1975708 L231.18683,764.43665 L8.518433,7.2769165 L8.485718,7.1831665 L8.4435425,7.0925293 L8.392578,7.006531 L8.333252,6.9260864 L8.266174,6.8519897 L0.7070923,-0.7070923 L0.66625977,-0.74572754 L0.588501,-0.8084717 L0.5048218,-0.8632202 L0.4161377,-0.90930176 L0.32330322,-0.94628906 L0.22717285,-0.97387695 L0.12884521,-0.9916382 L0.029174805,-0.99957275 L-0.070739746,-0.99749756 L-0.16998291,-0.98547363 L-0.2675171,-0.963562 L-0.36236572,-0.9320679 L-0.45361328,-0.89123535 L-0.5402832,-0.8414917 L-0.62158203,-0.7833252 L-0.6967163,-0.7173462 L-0.76483154,-0.6442261 L-0.8253174,-0.56463623 L-0.8775635,-0.47943115 L-0.92108154,-0.3894043 L-0.95532227,-0.29553223 L-0.9800415,-0.19866943 L-0.9949951,-0.099853516 L-1,0 L-1,24.566895 L-0.99645996,24.650879 L87.82245,1078.194 L87.833435,1078.2799 L87.85535,1078.3774 L87.88684,1078.4724 L87.92767,1078.5636 L87.97742,1078.6503 L88.03558,1078.7316 L88.10156,1078.8066 L88.17468,1078.8748 L88.25427,1078.9353 L88.33948,1078.9875 L88.429504,1079.031 L88.52338,1079.0653 L88.62024,1079.0901 L88.719055,1079.105 L88.81891,1079.11 L106.81189,1079.11 L214.43848,2156.3196 L214.4433,2156.3599 L214.46222,2156.458 L214.49078,2156.5537 L214.52881,2156.6462 L214.57587,2156.7344 L214.63147,2156.8174 L214.69513,2156.8945 L214.76611,2156.9648 L214.84381,2157.0278 L214.92737,2157.0825 L215.01599,2157.129 L215.10876,2157.166 L215.20483,2157.1936 L215.30316,2157.2117 L215.40277,2157.2197 L215.50275,2157.2178 L215.60199,2157.2058 L215.69958,2157.184 L215.79443,2157.1528 L215.88574,2157.112 L215.97253,2157.0625 L216.05396,2157.0044 L216.12915,2156.9385 L216.19739,2156.8655 L216.258,2156.7861 L216.31036,2156.701 L216.354,2156.611 L216.38843,2156.517 L216.41327,2156.4204 L216.4284,2156.3215 L216.43353,2156.2217 L216.42871,2156.1218 L107.4444,1052.8975 L107.44055,1052.869 L107.431885,1052.8303 L107.41937,1052.7927 L107.4032,1052.7566 L107.383484,1052.7222 L107.36041,1052.69 L107.33429,1052.6603 L107.3053,1052.6333 L107.27374,1052.6093 L107.23999,1052.5886 L107.204346,1052.5713 L107.167114,1052.5577 L107.12872,1052.548 L107.08954,1052.542 L107.04999,1052.54 L88.81891,1052.54 L88.74774,1052.5426 L88.64856,1052.5547 L88.551025,1052.5767 L88.45618,1052.6082 L88.36493,1052.649 L88.27826,1052.6987 L88.19696,1052.757 L88.12189,1052.823 L88.05377,1052.8961 L87.99335,1052.9757 L87.9411,1053.061 L87.897705,1053.151 L87.863464,1053.2449 L87.838745,1053.3418 L87.82385,1053.4407 L-19.893127,2131.5505 L-19.897644,2131.6206 L-19.895569,2131.7205 L-19.883514,2131.8198 L-19.861633,2131.9172 L-19.830109,2132.0122 L-19.789276,2132.1035 L-19.739532,2132.1902 L-19.681396,2132.2715 L-19.615417,2132.3464 L-19.542297,2132.4148 L-19.462708,2132.475 L-19.377502,2132.5273 L-19.287476,2132.5708 L-19.193604,2132.6052 L-19.09674,2132.63 L-18.997925,2132.6448 L-18.898071,2132.65 L-1.0857544,2132.65 L-87.81891,3185.4426 L-87.81891,1066.1602 L-1.1098022,1896.8921 L-234.33002,1896.8921 L-234.42334,1896.8965 L-234.52228,1896.9106 L-234.6193,1896.9348 L-234.71341,1896.9685 L-234.80371,1897.0112 L-234.88925,1897.063 L-234.96921,1897.123 L-235.04282,1897.1907 L-235.10925,1897.2654 L-235.16794,1897.3462 L-235.21823,1897.4326 L-235.25967,1897.5237 L-235.29181,1897.6182 L-235.31433,1897.7156 L-235.32703,1897.8147 L-235.32977,1897.9148 L-235.32251,1898.0144 L-99.25949,3001.6345 L-99.25699,3001.6533 L-99.237946,3001.7515 L-99.20923,3001.8472 L-99.17108,3001.9397 L-99.1239,3002.0276 L-99.068146,3002.1106 L-99.004395,3002.1877 L-98.93329,3002.2578 L-98.8555,3002.3208 L-98.77185,3002.3755 L-98.683136,3002.4214 L-98.5903,3002.4585 L-98.4942,3002.486 L-98.39584,3002.504 L-98.2962,3002.5117 L-98.19626,3002.5098 L-98.097046,3002.4976 L-97.99951,3002.4758 L-97.90463,3002.4443 L-97.813416,3002.4033 L-97.726685,3002.3538 L-97.645386,3002.2957 L-97.57028,3002.2295 L-97.50217,3002.1565 L-97.44165,3002.077 L-97.389404,3001.9917 L-97.34595,3001.9016 L-97.311676,3001.8076 L-97.28693,3001.711 L-97.272,3001.612 L-97.267,3001.5122 L-97.267,2944.8223 L-97.26718,2944.803 L-135.06299,975.6774 L-135.06299,788.75586 L-135.06622,788.6906 L-135.07602,788.62524 L-135.09232,788.56116 L-135.1149,788.499 z" fill="none" stroke="black" stroke-dasharray="9.354333 18.708666" stroke-linecap="round" stroke-linejoin="round" stroke-opacity="0.3" stroke-width="4.6771665"/>
</g>
</defs>
<use href="#item_0" transform="translate(236.4307 24.670166), rotate(0)">
<title>item, id: 0, transf: [r: 0.000°, t: (236.431, 24.670)]</title>
</use>
</g>
<g id="quality_zones"/>
<g id="optionals">
<g id="highlight_cd_shapes">
<use href="#cd_shape_0" transform="translate(236.4307 24.670166), rotate(0)"/>
<path d="M1,1 L4250.9688,1 L4250.9688,17006.875 L1,17006.875 z" fill="none" stroke="black" stroke-dasharray="9.354333 18.708666" stroke-linecap="round" stroke-linejoin="round" stroke-opacity="0.3" stroke-width="4.6771665"/>
</g>
<g id="surrogates">
<defs/>
</g>
<g id="collision_lines"/>
</g>
<text font-family="monospace" font-size="106.29922" font-weight="500" x="0" y="-53.14961">
h: 17007.875 | w: 4251.969 | d: 0.033% | Layout LayKey(1v1) - 1 items
</text>
</svg>