<svg viewBox="-399.68512 -1037.4806 5051.339 19082.836" xmlns="http://www.w3.org/2000/svg">
<g>
<g id="container_0">
<path d="M0,0 L4251.9688,0 L4251.9688,17007.875 L0,17007.875 z" fill="transparent" stroke="black" stroke-width="18.368505"/>
<title>container, id: 0, bbox: [x_min: 0.000, y_min: 0.000, x_max: 4251.969, y_max: 17007.875]</title>
</g>
<g id="items">
<defs>
<g id="item_0">
<path d="M20,0 L180,0 L181.96034,0.09630585 L183.90181,0.3842945 L185.8057,0.8611927 L187.65367,1.5224094 L189.42793,2.361576 L191.1114,3.3706074 L192.68787,4.539791 L194.14214,5.8578644 L195.4602,7.312134 L196.6294,8.888596 L197.63843,10.572065 L198.47758,12.346331 L199.13881,14.194307 L199.6157,16.098194 L199.90369,18.039656 L200,20 L200,80 L199.90369,81.96034 L199.6157,83.90181 L199.13881,85.805695 L198.47758,87.65367 L197.63843,89.42793 L196.6294,91.111404 L195.4602,92.68787 L194.14214,94.142136 L192.68787,95.460205 L191.1114,96.629395 L189.42793,97.63843 L187.65367,98.47759 L185.8057,99.13881 L183.90181,99.61571 L181.96034,99.903694 L180,100 L20,100 L18.039656,99.903694 L16.098194,99.61571 L14.194305,99.13881 L12.34633,98.47759 L10.572063,97.63843 L8.888597,96.629395 L7.312131,95.460205 L5.8578644,94.142136 L4.53979,92.68787 L3.3706074,91.111404 L2.3615723,89.42793 L1.5224075,87.65366 L0.8611927,85.805695 L0.3842945,83.9018 L0.09630585,81.96034 L0,80 L0,20 L0.09630585,18.03966 L0.3842945,16.098194 L0.8611908,14.194311 L1.5224075,12.346335 L2.3615723,10.572069 L3.3706055,8.8885975 L4.539789,7.3121357 L5.8578634,5.8578663 L7.312134,4.539791 L8.888592,3.3706112 L10.572066,2.3615742 L12.346329,1.5224094 L14.194309,0.8611927 L16.098192,0.3842945 L18.039652,0.09630585 z" fill="white" fill-rule="nonzero" stroke="gray" stroke-width="9.184253"/>
</g>
<g id="cd_shape_0">
<path d="M19.950935,-0.99879456 L20,-1 L180,-1 L180.04907,-0.99879456 L182.0094,-0.9024887 L182.10707,-0.89287186 L184.04854,-0.6048813 L184.14479,-0.5857353 L186.04868,-0.10883713 L186.14258,-0.08034897 L187.99057,0.58086777 L188.08124,0.61842346 L189.8555,1.4575882 L189.94203,1.503849 L191.6255,2.5128822 L191.70709,2.567402 L193.28357,3.7365837 L193.35944,3.7988396 L194.81369,5.116913 L194.88309,5.186306 L196.20116,6.6405754 L196.26341,6.7164345 L197.4326,8.292896 L197.48712,8.374493 L198.49615,10.0579605 L198.54242,10.144512 L199.38158,11.918781 L199.41913,12.009438 L200.08035,13.857414 L200.10884,13.951328 L200.58574,15.855213 L200.60489,15.951469 L200.89285,17.89293 L200.90248,17.990585 L200.9988,19.950928 L201,20 L201,80 L200.9988,80.04907 L200.90248,82.009415 L200.89285,82.10707 L200.60489,84.04854 L200.58574,84.14479 L200.10884,86.048676 L200.08035,86.14259 L199.41913,87.99057 L199.38158,88.08122 L198.54242,89.855484 L198.49615,89.94203 L197.48712,91.6255 L197.4326,91.70711 L196.26341,93.28357 L196.20116,93.35942 L194.88309,94.81369 L194.81369,94.88309 L193.35942,96.20116 L193.28357,96.26341 L191.7071,97.4326 L191.6255,97.48712 L189.94203,98.496155 L189.8555,98.54242 L188.08124,99.38158 L187.99057,99.419136 L186.14258,100.08035 L186.04868,100.10884 L184.14479,100.58574 L184.04854,100.60489 L182.10707,100.89287 L182.0094,100.90249 L180.04907,100.998795 L180,101 L20,101 L19.950935,100.998795 L17.990593,100.90249 L17.89293,100.89287 L15.951469,100.60489 L15.855217,100.58574 L13.951324,100.10884 L13.857414,100.08035 L12.009438,99.419136 L11.918777,99.38158 L10.144508,98.54242 L10.057953,98.496155 L8.374489,97.48712 L8.292892,97.4326 L6.7164307,96.26341 L6.640579,96.20116 L5.18631,94.88309 L5.116913,94.81369 L3.7988358,93.35942 L3.73658,93.28357 L2.567398,91.70711 L2.5128784,91.6255 L1.5038452,89.94203 L1.4575806,89.855484 L0.61841583,88.08122 L0.58086395,87.990555 L-0.08035278,86.142586 L-0.10884094,86.048676 L-0.58573914,84.14478 L-0.6048813,84.04853 L-0.89286804,82.10707 L-0.9024887,82.009415 L-0.99879456,80.04907 L-1,80 L-1,20 L-0.99879456,19.950932 L-0.9024887,17.990593 L-0.89286804,17.89293 L-0.6048813,15.951466 L-0.58573914,15.855213 L-0.10884094,13.951328 L-0.08035278,13.857418 L0.58086395,12.009445 L0.61841583,11.918781 L1.4575806,10.144516 L1.5038452,10.057968 L2.5128784,8.374496 L2.567398,8.2929 L3.73658,6.7164383 L3.7988358,6.640579 L5.116913,5.18631 L5.186302,5.1169167 L6.6405716,3.7988396 L6.7164307,3.7365837 L8.292885,2.567402 L8.374489,2.5128784 L10.057968,1.5038452 L10.144508,1.4575882 L11.91877,0.61842346 L12.009438,0.58086777 L13.857422,-0.08034897 L13.951332,-0.10883713 L15.855209,-0.5857353 L15.951462,-0.6048813 L17.892921,-0.89287186 L17.990585,-0.9024887 z" fill="none" stroke="black" stroke-dasharray="9.184253 18.368505" stroke-linecap="round" stroke-linejoin="round" stroke-opacity="0.3" stroke-width="4.5921264"/>
</g>
</defs>
<use href="#item_0" transform="translate(102.8965 3.6912537), rotate(90)">
<title>item, id: 0, transf: [r: 90.000°, t: (102.896, 3.691)]</title>
</use>
</g>
<g id="quality_zones"/>
<g id="optionals">
<g id="highlight_cd_shapes">
<use href="#cd_shape_0" transform="translate(102.8965 3.6912537), rotate(90)"/>
<path d="M1,1 L4250.9688,1 L4250.9688,17006.875 L1,17006.875 z" fill="none" stroke="black" stroke-dasharray="9.184253 18.368505" stroke-linecap="round" stroke-linejoin="round" stroke-opacity="0.3" stroke-width="4.5921264"/>
</g>
<g id="surrogates">
<defs/>
</g>
<g id="collision_lines"/>
</g>
<text font-family="monospace" font-size="106.29922" font-weight="500" x="0" y="-53.14961">
h: 17007.875 | w: 4251.969 | d: 0.027% | Layout LayKey(1v1) - 1 items
</text>
</g>
</svg>