<?xml version="1.0" encoding="UTF-8"?>
<svg xmlns="http://www.w3.org/2000/svg" viewBox="0 0 215 101">
  <path d="M 5.000003,97 L 5.041881,97.33312 L 5.103175,97.64683 L 5.183886,97.94112 L 5.284013,98.21599 L 5.4035554,98.47144 L 5.542515,98.70749 L 5.7008905,98.92411 L 5.878682,99.12132 L 6.0758905,99.29911 L 6.292515,99.45749 L 6.528555,99.59644 L 6.784012,99.71599 L 7.058885,99.81612 L 7.353174,99.89683 L 7.66688,99.95812 L 8.000002,100 L 5,91.62278 L 10.859376,87.66993 L 15.937502,83.71709 L 20.234379,79.76424 L 23.750004,75.81139 L 26.484379,71.85854 L 28.437504,67.9057 L 29.60938,63.95285 L 30.000006,60 L 29.60938,56.047153 L 28.437506,52.094307 L 26.484379,48.14146 L 23.750006,44.188614 L 20.23438,40.235767 L 15.937504,36.282917 L 10.859379,32.33007 L 5.000003,28.377224 L 8.000003,20 L 7.666881,20.041878 L 7.353175,20.103172 L 7.0588856,20.183884 L 6.784013,20.28401 L 6.528556,20.403553 L 6.2925153,20.542513 L 6.0758905,20.700888 L 5.8786826,20.87868 L 5.7008905,21.075888 L 5.5425153,21.292513 L 5.403556,21.528553 L 5.284013,21.78401 L 5.1838856,22.058884 L 5.103175,22.353172 L 5.041881,22.666878 L 5.000003,23 L 214.87965,23 L 214.83777,22.666878 L 214.77647,22.353172 L 214.69577,22.058884 L 214.59564,21.78401 L 214.4761,21.528553 L 214.33714,21.292513 L 214.17877,21.075888 L 214.00098,20.87868 L 213.80377,20.700888 L 213.58714,20.542513 L 213.3511,20.403553 L 213.09564,20.28401 L 212.82077,20.183884 L 212.52647,20.103172 L 212.21277,20.041878 L 211.87965,20 L 214.87965,28.377222 L 209.02028,32.33007 L 203.94215,36.282913 L 199.64528,40.23576 L 196.12965,44.188606 L 193.39528,48.141453 L 191.44215,52.094303 L 190.27028,56.047142 L 189.87964,59.999992 L 190.27026,63.952835 L 191.44214,67.905685 L 193.39526,71.85853 L 196.12964,75.81138 L 199.64526,79.76424 L 203.94214,83.71708 L 209.02026,87.66993 L 214.87964,91.62277 L 211.87965,100 L 212.21277,99.95812 L 212.52647,99.89683 L 212.82077,99.81612 L 213.09564,99.71599 L 213.3511,99.59645 L 213.58714,99.45749 L 213.80377,99.29911 L 214.00098,99.12132 L 214.17877,98.92411 L 214.33714,98.70749 L 214.4761,98.47145 L 214.59564,98.21599 L 214.69577,97.94112 L 214.77647,97.64683 L 214.83777,97.33312 L 214.87965,97 z M 74.10816,29.170866 L 73.86632,28.373596 L 73.47357,27.638826 L 72.94503,26.994797 L 72.301,26.466255 L 71.56623,26.073513 L 70.76896,25.831663 L 69.93983,25.75 L 69.110695,25.831663 L 68.31342,26.073511 L 67.57865,26.466253 L 66.93462,26.994797 L 66.40608,27.638826 L 66.013336,28.373596 L 65.77149,29.170866 L 65.68983,30 L 65.77149,30.829134 L 66.013336,31.626404 L 66.40608,32.36117 L 66.93462,33.005203 L 67.57865,33.533745 L 68.31342,33.926487 L 69.110695,34.16834 L 69.93983,34.25 L 70.76896,34.16834 L 71.56623,33.926487 L 72.301,33.533745 L 72.94503,33.005203 L 73.47357,32.361176 L 73.86632,31.626404 L 74.10816,30.829134 L 74.18983,30 z M 154.10815,29.170866 L 153.8663,28.373596 L 153.47357,27.638826 L 152.94502,26.994797 L 152.301,26.466255 L 151.56622,26.073513 L 150.76895,25.831663 L 149.93982,25.75 L 149.11069,25.831663 L 148.31342,26.073511 L 147.57864,26.466253 L 146.93462,26.994797 L 146.40607,27.638826 L 146.01334,28.373596 L 145.77148,29.170866 L 145.68982,30 L 145.77148,30.829134 L 146.01334,31.626404 L 146.40607,32.36117 L 146.93462,33.005203 L 147.57864,33.533745 L 148.31342,33.926487 L 149.11069,34.16834 L 149.93982,34.25 L 150.76895,34.16834 L 151.56622,33.926487 L 152.301,33.533745 L 152.94502,33.005203 L 153.47357,32.361176 L 153.8663,31.626404 L 154.10815,30.829134 L 154.18982,30 z M 154.10815,89.17087 L 153.8663,88.3736 L 153.47357,87.638824 L 152.94502,86.9948 L 152.301,86.466255 L 151.56622,86.07351 L 150.76895,85.831665 L 149.93982,85.75 L 149.11069,85.831665 L 148.31342,86.07351 L 147.57864,86.466255 L 146.93462,86.9948 L 146.40607,87.638824 L 146.01334,88.3736 L 145.77148,89.17087 L 145.68982,90 L 145.77148,90.82913 L 146.01334,91.6264 L 146.40607,92.361176 L 146.93462,93.0052 L 147.57864,93.533745 L 148.31342,93.92649 L 149.11069,94.168335 L 149.93982,94.25 L 150.76895,94.168335 L 151.56622,93.92649 L 152.301,93.533745 L 152.94502,93.0052 L 153.47357,92.361176 L 153.8663,91.6264 L 154.10815,90.82913 L 154.18982,90 z M 74.10816,89.17087 L 73.86632,88.3736 L 73.47357,87.638824 L 72.94503,86.9948 L 72.301,86.466255 L 71.56623,86.07351 L 70.76896,85.831665 L 69.93983,85.75 L 69.110695,85.831665 L 68.31342,86.07351 L 67.57865,86.466255 L 66.93462,86.9948 L 66.40608,87.638824 L 66.013336,88.3736 L 65.77149,89.17087 L 65.68983,90 L 65.77149,90.82913 L 66.013336,91.6264 L 66.40608,92.361176 L 66.93462,93.0052 L 67.57865,93.533745 L 68.31342,93.92649 L 69.110695,94.168335 L 69.93983,94.25 L 70.76896,94.168335 L 71.56623,93.92649 L 72.301,93.533745 L 72.94503,93.0052 L 73.47357,92.361176 L 73.86632,91.6264 L 74.10816,90.82913 L 74.18983,90 z" fill="lightgray" stroke="black" stroke-width="2" fill-rule="evenodd"/>
  <!-- Holes rendered separately for visualization -->
  <path d="M 74.10816,29.170866 L 73.86632,28.373596 L 73.47357,27.638826 L 72.94503,26.994797 L 72.301,26.466255 L 71.56623,26.073513 L 70.76896,25.831663 L 69.93983,25.75 L 69.110695,25.831663 L 68.31342,26.073511 L 67.57865,26.466253 L 66.93462,26.994797 L 66.40608,27.638826 L 66.013336,28.373596 L 65.77149,29.170866 L 65.68983,30 L 65.77149,30.829134 L 66.013336,31.626404 L 66.40608,32.36117 L 66.93462,33.005203 L 67.57865,33.533745 L 68.31342,33.926487 L 69.110695,34.16834 L 69.93983,34.25 L 70.76896,34.16834 L 71.56623,33.926487 L 72.301,33.533745 L 72.94503,33.005203 L 73.47357,32.361176 L 73.86632,31.626404 L 74.10816,30.829134 L 74.18983,30 z" fill="red" stroke="blue" stroke-width="1" opacity="0.3"/>
  <path d="M 154.10815,29.170866 L 153.8663,28.373596 L 153.47357,27.638826 L 152.94502,26.994797 L 152.301,26.466255 L 151.56622,26.073513 L 150.76895,25.831663 L 149.93982,25.75 L 149.11069,25.831663 L 148.31342,26.073511 L 147.57864,26.466253 L 146.93462,26.994797 L 146.40607,27.638826 L 146.01334,28.373596 L 145.77148,29.170866 L 145.68982,30 L 145.77148,30.829134 L 146.01334,31.626404 L 146.40607,32.36117 L 146.93462,33.005203 L 147.57864,33.533745 L 148.31342,33.926487 L 149.11069,34.16834 L 149.93982,34.25 L 150.76895,34.16834 L 151.56622,33.926487 L 152.301,33.533745 L 152.94502,33.005203 L 153.47357,32.361176 L 153.8663,31.626404 L 154.10815,30.829134 L 154.18982,30 z" fill="red" stroke="blue" stroke-width="1" opacity="0.3"/>
  <path d="M 154.10815,89.17087 L 153.8663,88.3736 L 153.47357,87.638824 L 152.94502,86.9948 L 152.301,86.466255 L 151.56622,86.07351 L 150.76895,85.831665 L 149.93982,85.75 L 149.11069,85.831665 L 148.31342,86.07351 L 147.57864,86.466255 L 146.93462,86.9948 L 146.40607,87.638824 L 146.01334,88.3736 L 145.77148,89.17087 L 145.68982,90 L 145.77148,90.82913 L 146.01334,91.6264 L 146.40607,92.361176 L 146.93462,93.0052 L 147.57864,93.533745 L 148.31342,93.92649 L 149.11069,94.168335 L 149.93982,94.25 L 150.76895,94.168335 L 151.56622,93.92649 L 152.301,93.533745 L 152.94502,93.0052 L 153.47357,92.361176 L 153.8663,91.6264 L 154.10815,90.82913 L 154.18982,90 z" fill="red" stroke="blue" stroke-width="1" opacity="0.3"/>
  <path d="M 74.10816,89.17087 L 73.86632,88.3736 L 73.47357,87.638824 L 72.94503,86.9948 L 72.301,86.466255 L 71.56623,86.07351 L 70.76896,85.831665 L 69.93983,85.75 L 69.110695,85.831665 L 68.31342,86.07351 L 67.57865,86.466255 L 66.93462,86.9948 L 66.40608,87.638824 L 66.013336,88.3736 L 65.77149,89.17087 L 65.68983,90 L 65.77149,90.82913 L 66.013336,91.6264 L 66.40608,92.361176 L 66.93462,93.0052 L 67.57865,93.533745 L 68.31342,93.92649 L 69.110695,94.168335 L 69.93983,94.25 L 70.76896,94.168335 L 71.56623,93.92649 L 72.301,93.533745 L 72.94503,93.0052 L 73.47357,92.361176 L 73.86632,91.6264 L 74.10816,90.82913 L 74.18983,90 z" fill="red" stroke="blue" stroke-width="1" opacity="0.3"/>
</svg>
