<?xml version="1.0" encoding="UTF-8"?>
<svg xmlns="http://www.w3.org/2000/svg" viewBox="0 0 215 101">
  <path d="M 5.000003,97 L 5.0144486,97.29405 L 5.0576468,97.58527 L 5.129182,97.87085 L 5.228364,98.14805 L 5.3542385,98.41419 L 5.505594,98.66671 L 5.680971,98.90318 L 5.878682,99.12132 L 6.0968227,99.31903 L 6.3332915,99.49441 L 6.5858116,99.64576 L 6.851952,99.77164 L 7.1291475,99.87082 L 7.41473,99.94235 L 7.7059507,99.98556 L 8.000002,100 L 5,91.62278 L 10.159369,89.933105 L 14.965485,87.40816 L 19.284233,84.11841 L 22.995108,80.15565 L 25.994555,75.630455 L 28.198877,70.669106 L 29.546564,65.410034 L 30.000013,60 L 29.546564,54.589966 L 28.198877,49.3309 L 25.994555,44.369545 L 22.99511,39.844353 L 19.284235,35.88159 L 14.965485,32.59184 L 10.159369,30.066895 L 5.0000014,28.377222 L 8.000003,20 L 7.705951,20.014446 L 7.414732,20.057644 L 7.1291485,20.129179 L 6.8519526,20.228361 L 6.5858126,20.354237 L 6.333292,20.50559 L 6.0968227,20.68097 L 5.8786826,20.87868 L 5.680971,21.09682 L 5.505594,21.33329 L 5.3542385,21.58581 L 5.228364,21.85195 L 5.129182,22.129147 L 5.0576468,22.41473 L 5.0144486,22.705948 L 5.000003,23 L 214.87965,23 L 214.8652,22.705948 L 214.822,22.414728 L 214.75047,22.129147 L 214.65129,21.85195 L 214.52542,21.58581 L 214.37407,21.33329 L 214.19868,21.09682 L 214.00098,20.87868 L 213.78284,20.68097 L 213.54637,20.50559 L 213.29384,20.354237 L 213.02771,20.228361 L 212.7505,20.129179 L 212.46492,20.057644 L 212.1737,20.014446 L 211.87965,20 L 214.87965,28.377222 L 209.72028,30.066895 L 204.91417,32.591835 L 200.59543,35.881584 L 196.88455,39.844345 L 193.8851,44.36954 L 191.68077,49.330887 L 190.33308,54.58996 L 189.87964,59.999992 L 190.33308,65.41003 L 191.68077,70.6691 L 193.8851,75.63044 L 196.88454,80.15564 L 200.59541,84.1184 L 204.91415,87.40815 L 209.72028,89.93309 L 214.87964,91.62277 L 211.87965,100 L 212.1737,99.98556 L 212.46492,99.94235 L 212.7505,99.87082 L 213.02771,99.77164 L 213.29384,99.64577 L 213.54637,99.49441 L 213.78284,99.31903 L 214.00098,99.12132 L 214.19868,98.90318 L 214.37407,98.66671 L 214.52542,98.41419 L 214.65129,98.14805 L 214.75047,97.87086 L 214.822,97.58527 L 214.8652,97.29405 L 214.87965,97 z M 74.10816,29.170866 L 73.86632,28.373596 L 73.47357,27.638826 L 72.94503,26.994797 L 72.301,26.466255 L 71.56623,26.073513 L 70.76896,25.831663 L 69.93983,25.75 L 69.110695,25.831663 L 68.31342,26.073511 L 67.57865,26.466253 L 66.93462,26.994797 L 66.40608,27.638826 L 66.013336,28.373596 L 65.77149,29.170866 L 65.68983,30 L 65.77149,30.829134 L 66.013336,31.626404 L 66.40608,32.36117 L 66.93462,33.005203 L 67.57865,33.533745 L 68.31342,33.926487 L 69.110695,34.16834 L 69.93983,34.25 L 70.76896,34.16834 L 71.56623,33.926487 L 72.301,33.533745 L 72.94503,33.005203 L 73.47357,32.361176 L 73.86632,31.626404 L 74.10816,30.829134 L 74.18983,30 z M 154.10815,29.170866 L 153.8663,28.373596 L 153.47357,27.638826 L 152.94502,26.994797 L 152.301,26.466255 L 151.56622,26.073513 L 150.76895,25.831663 L 149.93982,25.75 L 149.11069,25.831663 L 148.31342,26.073511 L 147.57864,26.466253 L 146.93462,26.994797 L 146.40607,27.638826 L 146.01334,28.373596 L 145.77148,29.170866 L 145.68982,30 L 145.77148,30.829134 L 146.01334,31.626404 L 146.40607,32.36117 L 146.93462,33.005203 L 147.57864,33.533745 L 148.31342,33.926487 L 149.11069,34.16834 L 149.93982,34.25 L 150.76895,34.16834 L 151.56622,33.926487 L 152.301,33.533745 L 152.94502,33.005203 L 153.47357,32.361176 L 153.8663,31.626404 L 154.10815,30.829134 L 154.18982,30 z M 154.10815,89.17087 L 153.8663,88.3736 L 153.47357,87.638824 L 152.94502,86.9948 L 152.301,86.466255 L 151.56622,86.07351 L 150.76895,85.831665 L 149.93982,85.75 L 149.11069,85.831665 L 148.31342,86.07351 L 147.57864,86.466255 L 146.93462,86.9948 L 146.40607,87.638824 L 146.01334,88.3736 L 145.77148,89.17087 L 145.68982,90 L 145.77148,90.82913 L 146.01334,91.6264 L 146.40607,92.361176 L 146.93462,93.0052 L 147.57864,93.533745 L 148.31342,93.92649 L 149.11069,94.168335 L 149.93982,94.25 L 150.76895,94.168335 L 151.56622,93.92649 L 152.301,93.533745 L 152.94502,93.0052 L 153.47357,92.361176 L 153.8663,91.6264 L 154.10815,90.82913 L 154.18982,90 z M 74.10816,89.17087 L 73.86632,88.3736 L 73.47357,87.638824 L 72.94503,86.9948 L 72.301,86.466255 L 71.56623,86.07351 L 70.76896,85.831665 L 69.93983,85.75 L 69.110695,85.831665 L 68.31342,86.07351 L 67.57865,86.466255 L 66.93462,86.9948 L 66.40608,87.638824 L 66.013336,88.3736 L 65.77149,89.17087 L 65.68983,90 L 65.77149,90.82913 L 66.013336,91.6264 L 66.40608,92.361176 L 66.93462,93.0052 L 67.57865,93.533745 L 68.31342,93.92649 L 69.110695,94.168335 L 69.93983,94.25 L 70.76896,94.168335 L 71.56623,93.92649 L 72.301,93.533745 L 72.94503,93.0052 L 73.47357,92.361176 L 73.86632,91.6264 L 74.10816,90.82913 L 74.18983,90 z" fill="lightgray" stroke="black" stroke-width="2" fill-rule="evenodd"/>
  <!-- Holes rendered separately for visualization -->
  <path d="M 74.10816,29.170866 L 73.86632,28.373596 L 73.47357,27.638826 L 72.94503,26.994797 L 72.301,26.466255 L 71.56623,26.073513 L 70.76896,25.831663 L 69.93983,25.75 L 69.110695,25.831663 L 68.31342,26.073511 L 67.57865,26.466253 L 66.93462,26.994797 L 66.40608,27.638826 L 66.013336,28.373596 L 65.77149,29.170866 L 65.68983,30 L 65.77149,30.829134 L 66.013336,31.626404 L 66.40608,32.36117 L 66.93462,33.005203 L 67.57865,33.533745 L 68.31342,33.926487 L 69.110695,34.16834 L 69.93983,34.25 L 70.76896,34.16834 L 71.56623,33.926487 L 72.301,33.533745 L 72.94503,33.005203 L 73.47357,32.361176 L 73.86632,31.626404 L 74.10816,30.829134 L 74.18983,30 z" fill="red" stroke="blue" stroke-width="1" opacity="0.3"/>
  <path d="M 154.10815,29.170866 L 153.8663,28.373596 L 153.47357,27.638826 L 152.94502,26.994797 L 152.301,26.466255 L 151.56622,26.073513 L 150.76895,25.831663 L 149.93982,25.75 L 149.11069,25.831663 L 148.31342,26.073511 L 147.57864,26.466253 L 146.93462,26.994797 L 146.40607,27.638826 L 146.01334,28.373596 L 145.77148,29.170866 L 145.68982,30 L 145.77148,30.829134 L 146.01334,31.626404 L 146.40607,32.36117 L 146.93462,33.005203 L 147.57864,33.533745 L 148.31342,33.926487 L 149.11069,34.16834 L 149.93982,34.25 L 150.76895,34.16834 L 151.56622,33.926487 L 152.301,33.533745 L 152.94502,33.005203 L 153.47357,32.361176 L 153.8663,31.626404 L 154.10815,30.829134 L 154.18982,30 z" fill="red" stroke="blue" stroke-width="1" opacity="0.3"/>
  <path d="M 154.10815,89.17087 L 153.8663,88.3736 L 153.47357,87.638824 L 152.94502,86.9948 L 152.301,86.466255 L 151.56622,86.07351 L 150.76895,85.831665 L 149.93982,85.75 L 149.11069,85.831665 L 148.31342,86.07351 L 147.57864,86.466255 L 146.93462,86.9948 L 146.40607,87.638824 L 146.01334,88.3736 L 145.77148,89.17087 L 145.68982,90 L 145.77148,90.82913 L 146.01334,91.6264 L 146.40607,92.361176 L 146.93462,93.0052 L 147.57864,93.533745 L 148.31342,93.92649 L 149.11069,94.168335 L 149.93982,94.25 L 150.76895,94.168335 L 151.56622,93.92649 L 152.301,93.533745 L 152.94502,93.0052 L 153.47357,92.361176 L 153.8663,91.6264 L 154.10815,90.82913 L 154.18982,90 z" fill="red" stroke="blue" stroke-width="1" opacity="0.3"/>
  <path d="M 74.10816,89.17087 L 73.86632,88.3736 L 73.47357,87.638824 L 72.94503,86.9948 L 72.301,86.466255 L 71.56623,86.07351 L 70.76896,85.831665 L 69.93983,85.75 L 69.110695,85.831665 L 68.31342,86.07351 L 67.57865,86.466255 L 66.93462,86.9948 L 66.40608,87.638824 L 66.013336,88.3736 L 65.77149,89.17087 L 65.68983,90 L 65.77149,90.82913 L 66.013336,91.6264 L 66.40608,92.361176 L 66.93462,93.0052 L 67.57865,93.533745 L 68.31342,93.92649 L 69.110695,94.168335 L 69.93983,94.25 L 70.76896,94.168335 L 71.56623,93.92649 L 72.301,93.533745 L 72.94503,93.0052 L 73.47357,92.361176 L 73.86632,91.6264 L 74.10816,90.82913 L 74.18983,90 z" fill="red" stroke="blue" stroke-width="1" opacity="0.3"/>
</svg>
