<?xml version="1.0" encoding="UTF-8"?>
<svg xmlns="http://www.w3.org/2000/svg" viewBox="-120.00000000000003 -70.50000000000003 240.00000000000006 141.00000000000006">
  <path d="M-119.99999999999999,67.5 L-120,-67.5 L-119.91581370408996,-68.20571271990902 L-118.85510940920922,-69.85766178233088 L-117,-70.50000000000003 L117,-70.5 L117.70571271990899,-70.41581370408994 L119.35766178233087,-69.3551094092092 L120.00000000000001,-67.5 L120,67.5 L119.91581370408994,68.20571271990899 L118.8551094092092,69.85766178233087 L117,70.50000000000001 L-117,70.5 L-117.70571271990895,70.41581370408993 L-119.35766178233082,69.3551094092092 L-119.99999999999999,67.5 Z M-78.85,-50.75 L-68.35,-50.75 L-68.35,-53.25 L-78.85,-53.25 L-78.85,-50.75 Z M-68.35,50.75 L-78.85,50.75 L-78.85,53.25 L-68.35,53.25 L-68.35,50.75 Z M74.28,-53.25 L63.78,-53.25 L63.78,-50.75 L74.28,-50.75 L74.28,-53.25 Z M81.5,40 L101,40 L101,-40 L81.5,-40 L81.5,40 Z M-81.5,-40 L-101,-40 L-101,40 L-81.5,40 L-81.5,-40 Z M74.28,50.75 L63.78,50.75 L63.78,53.25 L74.28,53.25 L74.28,50.75 Z M117.5,63 L117.4879618166805,62.7549571491761 L117.45196320100808,62.51227419495968 L117.39235083933053,62.274288306863845 L117.30969883127823,62.043291419087275 L117.2048031608709,61.821508157935 L117.07867403075637,61.61107441745099 L116.93252613340685,61.41401678959088 L116.76776695296637,61.232233047033624 L116.58598321040913,61.067473866593154 L116.388925582549,60.92132596924363 L116.178491842065,60.795196839129105 L115.95670858091273,60.690301168721774 L115.72571169313616,60.60764916066947 L115.48772580504033,60.548036798991916 L115.2450428508239,60.512038183319504 L115,60.49999999999999 L114.7549571491761,60.512038183319504 L114.51227419495967,60.548036798991916 L114.27428830686384,60.60764916066947 L114.04329141908727,60.690301168721774 L113.821508157935,60.795196839129105 L113.611074417451,60.92132596924363 L113.41401678959089,61.067473866593154 L113.23223304703363,61.232233047033624 L113.06747386659315,61.41401678959088 L112.92132596924363,61.61107441745099 L112.7951968391291,61.821508157935 L112.69030116872177,62.043291419087275 L112.60764916066947,62.274288306863845 L112.54803679899192,62.51227419495968 L112.5120381833195,62.7549571491761 L112.5,63 L112.5120381833195,63.2450428508239 L112.54803679899192,63.48772580504032 L112.60764916066947,63.725711693136155 L112.69030116872177,63.956708580912725 L112.7951968391291,64.178491842065 L112.92132596924363,64.388925582549 L113.06747386659315,64.58598321040911 L113.23223304703363,64.76776695296637 L113.41401678959087,64.93252613340685 L113.611074417451,65.07867403075637 L113.821508157935,65.2048031608709 L114.04329141908727,65.30969883127823 L114.27428830686384,65.39235083933053 L114.51227419495967,65.45196320100808 L114.7549571491761,65.4879618166805 L115,65.5 L115.2450428508239,65.4879618166805 L115.48772580504033,65.45196320100808 L115.72571169313616,65.39235083933053 L115.95670858091273,65.30969883127823 L116.178491842065,65.2048031608709 L116.388925582549,65.07867403075637 L116.58598321040913,64.93252613340685 L116.76776695296637,64.76776695296637 L116.93252613340685,64.58598321040913 L117.07867403075637,64.388925582549 L117.2048031608709,64.178491842065 L117.30969883127823,63.95670858091273 L117.39235083933053,63.725711693136155 L117.45196320100808,63.48772580504032 L117.4879618166805,63.2450428508239 L117.5,63 Z M117.50000000000001,-63 L117.48796181668051,-63.2450428508239 L117.45196320100808,-63.48772580504032 L117.39235083933053,-63.72571169313616 L117.30969883127823,-63.95670858091273 L117.2048031608709,-64.178491842065 L117.07867403075637,-64.388925582549 L116.93252613340685,-64.58598321040913 L116.76776695296638,-64.76776695296638 L116.58598321040913,-64.93252613340685 L116.388925582549,-65.07867403075637 L116.178491842065,-65.2048031608709 L115.95670858091273,-65.30969883127823 L115.72571169313616,-65.39235083933053 L115.48772580504033,-65.45196320100808 L115.2450428508239,-65.48796181668051 L115,-65.50000000000001 L114.7549571491761,-65.48796181668051 L114.51227419495967,-65.45196320100808 L114.27428830686384,-65.39235083933053 L114.04329141908727,-65.30969883127823 L113.821508157935,-65.2048031608709 L113.611074417451,-65.07867403075637 L113.41401678959087,-64.93252613340685 L113.23223304703362,-64.76776695296638 L113.06747386659315,-64.58598321040913 L112.92132596924363,-64.388925582549 L112.7951968391291,-64.178491842065 L112.69030116872177,-63.95670858091273 L112.60764916066947,-63.72571169313616 L112.54803679899192,-63.48772580504033 L112.51203818331949,-63.2450428508239 L112.49999999999999,-63 L112.51203818331949,-62.7549571491761 L112.54803679899192,-62.51227419495967 L112.60764916066947,-62.27428830686384 L112.69030116872177,-62.04329141908727 L112.7951968391291,-61.821508157935 L112.92132596924363,-61.611074417450986 L113.06747386659315,-61.414016789590875 L113.23223304703362,-61.232233047033624 L113.41401678959087,-61.06747386659315 L113.611074417451,-60.921325969243625 L113.821508157935,-60.7951968391291 L114.04329141908727,-60.690301168721774 L114.27428830686384,-60.60764916066947 L114.51227419495967,-60.54803679899191 L114.7549571491761,-60.51203818331949 L115,-60.499999999999986 L115.2450428508239,-60.51203818331949 L115.48772580504033,-60.54803679899191 L115.72571169313616,-60.60764916066947 L115.95670858091273,-60.69030116872177 L116.178491842065,-60.7951968391291 L116.388925582549,-60.921325969243625 L116.58598321040913,-61.06747386659315 L116.76776695296638,-61.232233047033624 L116.93252613340685,-61.414016789590875 L117.07867403075637,-61.611074417450986 L117.2048031608709,-61.821508157935 L117.30969883127823,-62.04329141908727 L117.39235083933053,-62.27428830686384 L117.45196320100808,-62.51227419495967 L117.48796181668051,-62.7549571491761 L117.50000000000001,-63 Z M-112.5,63 L-112.51203818331952,62.7549571491761 L-112.54803679899193,62.51227419495968 L-112.60764916066948,62.274288306863845 L-112.69030116872179,62.043291419087275 L-112.79519683912912,61.82150815793501 L-112.92132596924364,61.611074417451 L-113.06747386659316,61.41401678959089 L-113.23223304703363,61.23223304703364 L-113.41401678959089,61.06747386659316 L-113.611074417451,60.92132596924364 L-113.82150815793501,60.79519683912912 L-114.04329141908728,60.69030116872179 L-114.27428830686385,60.60764916066948 L-114.51227419495969,60.54803679899193 L-114.7549571491761,60.51203818331952 L-115,60.50000000000001 L-115.2450428508239,60.51203818331952 L-115.48772580504031,60.54803679899193 L-115.72571169313615,60.60764916066948 L-115.95670858091272,60.69030116872179 L-116.17849184206499,60.79519683912912 L-116.388925582549,60.92132596924364 L-116.58598321040911,61.06747386659316 L-116.76776695296637,61.23223304703364 L-116.93252613340684,61.41401678959089 L-117.07867403075636,61.611074417451 L-117.20480316087088,61.82150815793501 L-117.30969883127821,62.043291419087275 L-117.39235083933052,62.274288306863845 L-117.45196320100807,62.51227419495968 L-117.48796181668048,62.7549571491761 L-117.5,63 L-117.48796181668048,63.2450428508239 L-117.45196320100807,63.48772580504032 L-117.39235083933052,63.725711693136155 L-117.30969883127821,63.956708580912725 L-117.20480316087088,64.17849184206499 L-117.07867403075636,64.388925582549 L-116.93252613340684,64.58598321040911 L-116.76776695296637,64.76776695296637 L-116.58598321040911,64.93252613340684 L-116.388925582549,65.07867403075636 L-116.17849184206499,65.20480316087088 L-115.95670858091272,65.30969883127821 L-115.72571169313615,65.39235083933052 L-115.48772580504033,65.45196320100807 L-115.2450428508239,65.48796181668048 L-115,65.5 L-114.75495714917611,65.48796181668048 L-114.51227419495969,65.45196320100807 L-114.27428830686385,65.39235083933052 L-114.04329141908728,65.30969883127821 L-113.82150815793501,65.20480316087088 L-113.611074417451,65.07867403075636 L-113.41401678959089,64.93252613340684 L-113.23223304703363,64.76776695296637 L-113.06747386659316,64.58598321040911 L-112.92132596924364,64.388925582549 L-112.79519683912912,64.17849184206499 L-112.69030116872179,63.956708580912725 L-112.60764916066948,63.725711693136155 L-112.54803679899193,63.48772580504032 L-112.51203818331952,63.2450428508239 L-112.5,63 Z M-112.5,-63 L-112.5120381833195,-63.2450428508239 L-112.54803679899193,-63.48772580504032 L-112.60764916066948,-63.725711693136155 L-112.69030116872179,-63.956708580912725 L-112.79519683912912,-64.178491842065 L-112.92132596924364,-64.388925582549 L-113.06747386659316,-64.58598321040911 L-113.23223304703363,-64.76776695296637 L-113.41401678959089,-64.93252613340684 L-113.611074417451,-65.07867403075636 L-113.821508157935,-65.20480316087088 L-114.04329141908728,-65.30969883127821 L-114.27428830686384,-65.39235083933052 L-114.51227419495967,-65.45196320100807 L-114.7549571491761,-65.4879618166805 L-115,-65.5 L-115.2450428508239,-65.4879618166805 L-115.48772580504033,-65.45196320100807 L-115.72571169313616,-65.39235083933052 L-115.95670858091272,-65.30969883127821 L-116.178491842065,-65.20480316087088 L-116.388925582549,-65.07867403075636 L-116.58598321040911,-64.93252613340684 L-116.76776695296637,-64.76776695296637 L-116.93252613340684,-64.58598321040911 L-117.07867403075636,-64.388925582549 L-117.20480316087088,-64.178491842065 L-117.30969883127821,-63.956708580912725 L-117.39235083933052,-63.725711693136155 L-117.45196320100807,-63.48772580504032 L-117.4879618166805,-63.2450428508239 L-117.5,-63 L-117.4879618166805,-62.7549571491761 L-117.45196320100807,-62.51227419495968 L-117.39235083933052,-62.274288306863845 L-117.30969883127821,-62.043291419087275 L-117.20480316087088,-61.82150815793501 L-117.07867403075636,-61.61107441745099 L-116.93252613340684,-61.41401678959089 L-116.76776695296637,-61.23223304703363 L-116.58598321040911,-61.06747386659316 L-116.388925582549,-60.92132596924364 L-116.178491842065,-60.79519683912911 L-115.95670858091273,-60.69030116872178 L-115.72571169313616,-60.60764916066948 L-115.48772580504033,-60.54803679899192 L-115.2450428508239,-60.512038183319504 L-115,-60.5 L-114.7549571491761,-60.512038183319504 L-114.51227419495967,-60.54803679899192 L-114.27428830686384,-60.607649160669474 L-114.04329141908727,-60.69030116872178 L-113.821508157935,-60.79519683912911 L-113.611074417451,-60.92132596924364 L-113.41401678959089,-61.06747386659316 L-113.23223304703363,-61.23223304703363 L-113.06747386659316,-61.41401678959089 L-112.92132596924364,-61.61107441745099 L-112.79519683912912,-61.82150815793501 L-112.69030116872179,-62.043291419087275 L-112.60764916066948,-62.274288306863845 L-112.54803679899193,-62.51227419495968 L-112.5120381833195,-62.7549571491761 L-112.5,-63 Z" fill="#000" stroke="none" fill-rule="nonzero"/>
</svg>