<?xml version="1.0" encoding="UTF-8"?>
<svg xmlns="http://www.w3.org/2000/svg" viewBox="-13.0387 -18.458 26 37">
  <path d="M-9.059,-18.458 L-0.0507,-18.458 L2.5631,-18.1927 L5.0016,-17.4322 L7.2114,-16.23 L9.139,-14.6393 L10.7312,-12.7134 L11.9346,-10.5057 L12.6957,-8.0694 L12.9613,-5.458 L12.9613,16.542 L7.4682,16.542 L7.4682,18.542 L-7.5456,18.542 L-7.5456,16.542 L-13.0387,16.542 L-13.0387,-17.8314 L-12.564,-17.9749 L-12.0821,-18.1006 L-11.5932,-18.2081 L-11.0979,-18.297 L-10.5964,-18.3668 L-10.0892,-18.4172 L-9.5766,-18.4477 L-9.059,-18.458 L-9.059,-18.458 Z M-0.0387,-7.458 L-0.543,-7.4072 L-1.0127,-7.2615 L-1.4378,-7.031 L-1.8081,-6.7258 L-2.1137,-6.3558 L-2.3444,-5.9311 L-2.4902,-5.4618 L-2.541,-4.958 L-2.4902,-4.4542 L-2.3444,-3.9849 L-2.1137,-3.5602 L-1.8081,-3.1902 L-1.4378,-2.885 L-1.0127,-2.6545 L-0.543,-2.5088 L-0.0387,-2.458 L0.4656,-2.5088 L0.9353,-2.6545 L1.3604,-2.885 L1.7307,-3.1902 L2.0363,-3.5602 L2.267,-3.9849 L2.4128,-4.4542 L2.4636,-4.958 L2.4128,-5.4618 L2.267,-5.9311 L2.0363,-6.3558 L1.7307,-6.7258 L1.3604,-7.031 L0.9353,-7.2615 L0.4656,-7.4072 L-0.0387,-7.458 L-0.0387,-7.458 Z" fill="#000" stroke="none" fill-rule="nonzero"/>
</svg>