<?xml version="1.0" encoding="UTF-8"?>
<svg xmlns="http://www.w3.org/2000/svg" viewBox="0 -230 480 230">
  <path d="M480,0 L0,0 L0,-230 L480,-230 L480,0 Z M73.458319381213,-212.262107187129 L37.079308805888,-212.262107187129 L35.09261549793739,-212.06277296554143 L33.185125382801495,-211.47271712715786 L31.432884071937643,-210.5154633362258 L29.90574789689277,-209.22917428060066 L28.66459895780903,-207.6651302458104 L27.758917946215732,-205.88568473189574 L27.224811506003395,-203.9617786161314 L27.079308805888,-202.262107187129 L27.079308805887997,-171.262107187129 L27.27864302747558,-169.2754138791784 L27.868698865859148,-167.3679237640425 L28.825952656791216,-165.61568245317864 L30.11224171241635,-164.08854627813378 L31.676285747206606,-162.84739733905005 L33.45573126112127,-161.94171632745673 L35.3796373768856,-161.4076098872444 L37.079308805888,-161.262107187129 L73.458319381213,-161.262107187129 L238.53696385120963,-168.824938895454 L240.51245289128457,-169.11498627829954 L242.3909401549049,-169.79172110980141 L244.09753628277946,-170.82816410778793 L245.56420467276536,-172.18299556061436 L246.73247388449366,-173.80220261367444 L247.5557687111794,-175.62123259146594 L248.0012669861397,-177.56756650905538 L248.079308805888,-178.814460999113 L248.079308805888,-194.709753375145 L247.8799745843004,-196.69644668309562 L247.28991874591685,-198.6039367982315 L246.33266495498478,-200.35617810909537 L245.04637589935965,-201.88331428414023 L243.48233186456937,-203.12446322322396 L241.70288635065472,-204.03014423481727 L239.7789802348904,-204.5642506750296 L238.53696385121,-204.699275478804 L73.458319381213,-212.262107187129 Z M220.079308805888,-149.709753375145 L220.079308805888,-133.814460999113 L220.27864302747557,-131.8277676911624 L220.86869886585913,-129.9202775760265 L221.8259526567912,-128.16803626516264 L223.11224171241633,-126.64090009011778 L224.6762857472066,-125.39975115103404 L226.45573126112126,-124.49407013944074 L228.3796373768856,-123.95996369922841 L229.62165376056632,-123.82493889545401 L394.700298230564,-116.262107187129 L431.079308805888,-116.262107187129 L433.0660021138386,-116.46144140871658 L434.9734922289745,-117.05149724710016 L436.72573353983836,-118.00875103803222 L438.2528697148832,-119.29504009365735 L439.494018653967,-120.85908412844762 L440.39969966556026,-122.63852964236227 L440.9338061057726,-124.56243575812661 L441.079308805888,-126.262107187129 L441.079308805888,-157.262107187129 L440.8799745843004,-159.24880049507962 L440.28991874591685,-161.1562906102155 L439.33266495498475,-162.90853192107937 L438.04637589935965,-164.43566809612423 L436.4823318645694,-165.67681703520796 L434.70288635065475,-166.58249804680128 L432.7789802348904,-167.1166044870136 L431.079308805888,-167.262107187129 L394.700298230563,-167.262107187129 L229.621653760566,-159.699275478804 L227.6461647204914,-159.40922809595847 L225.76767745687107,-158.7324932644566 L224.06108132899652,-157.69605026647008 L222.5944129390106,-156.34121881364362 L221.42614372728232,-154.72201176058357 L220.60284890059657,-152.90298178279207 L220.15735062563627,-150.95664786520263 L220.079308805888,-149.709753375145 Z M73.458319381213,-112.475270038673 L37.079308805888,-112.475270038673 L35.09261549793739,-112.27593581708541 L33.185125382801495,-111.68587997870185 L31.432884071937643,-110.72862618776979 L29.90574789689277,-109.44233713214466 L28.66459895780903,-107.8782930973544 L27.758917946215732,-106.09884758343973 L27.224811506003395,-104.17494146767541 L27.079308805888,-102.475270038673 L27.079308805887997,-71.475270038673 L27.27864302747558,-69.48857673072239 L27.868698865859148,-67.5810866155865 L28.825952656791216,-65.82884530472265 L30.11224171241635,-64.30170912967777 L31.676285747206606,-63.06056019059403 L33.45573126112127,-62.15487917900074 L35.3796373768856,-61.6207727387884 L37.079308805888,-61.475270038673 L73.458319381213,-61.475270038673 L238.53696385120963,-69.038101746998 L240.51245289128457,-69.32814912984352 L242.3909401549049,-70.0048839613454 L244.09753628277946,-71.04132695933191 L245.56420467276536,-72.39615841215836 L246.73247388449366,-74.01536546521841 L247.5557687111794,-75.83439544300992 L248.0012669861397,-77.78072936059937 L248.079308805888,-79.027623850657 L248.079308805888,-94.922916226689 L247.8799745843004,-96.90960953463961 L247.28991874591685,-98.8170996497755 L246.33266495498478,-100.56934096063935 L245.04637589935965,-102.09647713568422 L243.48233186456937,-103.33762607476797 L241.70288635065472,-104.24330708636126 L239.7789802348904,-104.7774135265736 L238.53696385121,-104.912438330348 L73.458319381213,-112.475270038673 Z M220.079308805888,-49.922916226689 L220.079308805888,-34.027623850657 L220.27864302747557,-32.04093054270639 L220.86869886585913,-30.133440427570495 L221.8259526567912,-28.381199116706643 L223.11224171241633,-26.85406294166177 L224.6762857472066,-25.61291400257803 L226.45573126112126,-24.707232990984735 L228.3796373768856,-24.1731265507724 L229.62165376056632,-24.038101746998006 L394.700298230564,-16.475270038673 L431.079308805888,-16.475270038673 L433.0660021138386,-16.674604260260583 L434.9734922289745,-17.26466009864415 L436.72573353983836,-18.221913889576218 L438.2528697148832,-19.508202945201347 L439.494018653967,-21.072246979991608 L440.39969966556026,-22.85169249390627 L440.9338061057726,-24.7755986096706 L441.079308805888,-26.475270038673 L441.079308805888,-57.475270038673 L440.8799745843004,-59.46196334662361 L440.28991874591685,-61.369453461759505 L439.33266495498475,-63.12169477262336 L438.04637589935965,-64.64883094766823 L436.4823318645694,-65.88997988675197 L434.70288635065475,-66.79566089834526 L432.7789802348904,-67.3297673385576 L431.079308805888,-67.475270038673 L394.700298230563,-67.475270038673 L229.621653760566,-59.912438330348 L227.6461647204914,-59.62239094750247 L225.76767745687107,-58.94565611600059 L224.06108132899652,-57.90921311801407 L222.5944129390106,-56.554381665187634 L221.42614372728232,-54.93517461212757 L220.60284890059657,-53.11614463433607 L220.15735062563627,-51.16981071674662 L220.079308805888,-49.922916226689 Z" fill="#000" stroke="none" fill-rule="nonzero"/>
</svg>