<?xml version="1.0" encoding="UTF-8"?>
<svg xmlns="http://www.w3.org/2000/svg" viewBox="-4.730046 -287.653091 35.956636 35.956636">
  <path d="M31.22659,-268.791555 L31.053449,-267.033625 L30.708835,-265.30113 L30.196065,-263.610756 L29.520079,-261.978781 L28.687387,-260.420924 L27.706008,-258.952186 L26.585392,-257.586712 L25.336333,-256.337653 L23.97086,-255.217038 L22.502121,-254.235658 L20.944264,-253.402966 L19.312289,-252.72698 L17.621915,-252.214211 L15.889421,-251.869596 L14.13149,-251.696455 L12.365054,-251.696455 L10.607124,-251.869596 L8.874629,-252.214211 L7.184255,-252.72698 L5.55228,-253.402966 L3.994423,-254.235658 L2.525685,-255.217038 L1.160211,-256.337653 L-0.088848,-257.586712 L-1.209463,-258.952186 L-2.190843,-260.420924 L-3.023535,-261.978781 L-3.699521,-263.610756 L-4.21229,-265.30113 L-4.556905,-267.033625 L-4.730046,-268.791555 L-4.730046,-270.557991 L-4.556905,-272.315922 L-4.21229,-274.048416 L-3.699521,-275.738791 L-3.023535,-277.370765 L-2.190843,-278.928623 L-1.209463,-280.397361 L-0.088848,-281.762834 L1.160211,-283.011893 L2.525685,-284.132509 L3.994423,-285.113888 L5.55228,-285.94658 L7.184255,-286.622566 L8.874629,-287.135336 L10.607124,-287.47995 L12.365054,-287.653091 L14.13149,-287.653091 L15.889421,-287.47995 L17.621915,-287.135336 L19.312289,-286.622566 L20.944264,-285.94658 L22.502121,-285.113888 L23.97086,-284.132509 L25.336333,-283.011893 L26.585392,-281.762834 L27.706008,-280.397361 L28.687387,-278.928623 L29.520079,-277.370765 L30.196065,-275.738791 L30.708835,-274.048416 L31.053449,-272.315922 L31.22659,-270.557991 L31.22659,-268.791555 Z" fill="#000" stroke="none" fill-rule="nonzero"/>
</svg>