<?xml version="1.0" encoding="UTF-8"?>
<svg xmlns="http://www.w3.org/2000/svg" viewBox="-1212.037543126253 -1338.754450952927 460.0000000000002 215">
  <path d="M-1207.037543126253,-1252.754450952927 L-1199.537543126253,-1252.754450952927 L-1199.537543126253,-1295.754450952956 L-1207.037543126253,-1295.754450952927 L-1212.037543126253,-1300.7544509529182 L-1212.037543126253,-1333.754450952927 L-1207.037543126253,-1338.754450952927 L-757.0375431262528,-1338.754450952927 L-752.0375431262528,-1333.754450952927 L-752.0375431262528,-1128.754450952927 L-757.0375431262528,-1123.754450952927 L-1207.037543126253,-1123.754450952927 L-1212.037543126253,-1128.754450952927 L-1212.037543126253,-1161.754450952927 L-1207.037543126253,-1166.754450952927 L-1199.537543126253,-1166.754450952927 L-1199.537543126253,-1209.754450952956 L-1207.037543126253,-1209.754450952927 L-1212.037543126253,-1214.7544509529182 L-1212.037543126253,-1247.754450952927 L-1207.037543126253,-1252.754450952927 Z M-788.6375431262528,-1298.754450952927 L-788.6539150555673,-1299.0877092300475 L-788.7028731728818,-1299.417758047782 L-788.7839459847632,-1299.7414188555922 L-788.8963527157144,-1300.0555746229684 L-789.0390108274684,-1300.3571998581356 L-789.2105464444242,-1300.6433897451936 L-789.4093075848194,-1300.9113881190835 L-789.6333800702185,-1301.1586140089614 L-789.8806059600964,-1301.3826864943603 L-790.1486043339861,-1301.5814476347557 L-790.4347942210444,-1301.7529832517114 L-790.7364194562115,-1301.8956413634655 L-791.0505752235877,-1302.0080480944166 L-791.3742360313979,-1302.0891209062981 L-791.7042848491323,-1302.1380790236126 L-792.0375431262528,-1302.1544509529272 L-792.3708014033733,-1302.1380790236126 L-792.7008502211077,-1302.0891209062981 L-793.0245110289179,-1302.0080480944166 L-793.3386667962941,-1301.8956413634655 L-793.6402920314612,-1301.7529832517114 L-793.9264819185195,-1301.5814476347557 L-794.1944802924091,-1301.3826864943603 L-794.441706182287,-1301.1586140089614 L-794.6657786676861,-1300.9113881190835 L-794.8645398080814,-1300.6433897451936 L-795.0360754250372,-1300.3571998581356 L-795.1787335367911,-1300.0555746229684 L-795.2911402677423,-1299.7414188555922 L-795.3722130796237,-1299.417758047782 L-795.4211711969383,-1299.0877092300475 L-795.4375431262528,-1298.754450952927 L-795.4211711969383,-1298.4211926758067 L-795.3722130796237,-1298.0911438580722 L-795.2911402677423,-1297.767483050262 L-795.1787335367911,-1297.4533272828858 L-795.0360754250372,-1297.1517020477186 L-794.8645398080814,-1296.8655121606605 L-794.6657786676861,-1296.5975137867706 L-794.441706182287,-1296.3502878968927 L-794.1944802924091,-1296.1262154114938 L-793.9264819185195,-1295.9274542710984 L-793.6402920314612,-1295.7559186541428 L-793.3386667962941,-1295.6132605423886 L-793.0245110289179,-1295.5008538114375 L-792.7008502211077,-1295.419780999556 L-792.3708014033733,-1295.3708228822416 L-792.0375431262528,-1295.354450952927 L-791.7042848491323,-1295.3708228822416 L-791.3742360313979,-1295.419780999556 L-791.0505752235877,-1295.5008538114375 L-790.7364194562115,-1295.6132605423886 L-790.4347942210444,-1295.7559186541428 L-790.1486043339861,-1295.9274542710984 L-789.8806059600964,-1296.1262154114938 L-789.6333800702185,-1296.3502878968927 L-789.4093075848194,-1296.5975137867706 L-789.2105464444242,-1296.8655121606605 L-789.0390108274684,-1297.1517020477186 L-788.8963527157144,-1297.4533272828858 L-788.7839459847632,-1297.767483050262 L-788.7028731728818,-1298.0911438580722 L-788.6539150555673,-1298.4211926758067 L-788.6375431262528,-1298.754450952927 Z" fill="#000" stroke="none" fill-rule="nonzero"/>
</svg>