<?xml version="1.0" encoding="UTF-8"?>
<svg xmlns="http://www.w3.org/2000/svg" viewBox="0 -109.983506 97.997578 109.980007">
  <path d="M79.388316,-109.911941 L79.388316,-109.911941 L86.803405,-109.983506 L88.648809,-109.877436 L89.689895,-109.666574 L90.788245,-109.174322 L91.815712,-108.504275 L92.761467,-107.670331 L93.614681,-106.686387 L94.364525,-105.566341 L95.00017,-104.32409 L95.510786,-102.973534 L95.885544,-101.528568 L96.108692,-98.897689 L96.347593,-89.192061 L96.70463,-72.834261 L97.397703,-41.549968 L97.775742,-24.646908 L97.997578,-12.685267 L97.880753,-9.106998 L97.518916,-7.523028 L97.008177,-6.053116 L96.360104,-4.712916 L95.586263,-3.518083 L94.698222,-2.484272 L93.70755,-1.627138 L92.625814,-0.962337 L91.464581,-0.505522 L83.596632,-0.21926 L62.639061,-0.014788 L57.611004,-0.003499 L54.933879,-0.108504 L53.536577,-0.446097 L52.347983,-1.132571 L51.085062,-2.115316 L49.962921,-3.361321 L49.012079,-4.832245 L48.263056,-6.48975 L47.794608,-7.997522 L47.524041,-9.892513 L47.296954,-18.21284 L47.16044,-24.905907 L38.329015,-24.769592 L24.106588,-24.544672 L18.744463,-24.687803 L16.142303,-25.31794 L13.653235,-26.291208 L11.290918,-27.596743 L9.069012,-29.223684 L7.001178,-31.161168 L5.101073,-33.398331 L3.382359,-35.924312 L1.858695,-38.728248 L0.042004,-43.349326 L3.948414,-43.512904 L6.985529,-43.672009 L8.949562,-44.029197 L10.342599,-44.741656 L11.666722,-45.966574 L12.521229,-46.987276 L13.242707,-48.106001 L14.291997,-50.570826 L14.82542,-53.227664 L14.853806,-55.943128 L14.387984,-58.583832 L13.438783,-61.016389 L12.786299,-62.112929 L12.017032,-63.107413 L11.132335,-63.983167 L10.133561,-64.723518 L9.135629,-65.297319 L8.1121,-65.60275 L6.545139,-65.724155 L3.91691,-65.745881 L0,-65.82767 L1.827191,-70.489643 L3.154965,-72.99065 L4.64444,-75.284949 L6.287985,-77.36519 L8.077971,-79.224026 L10.006769,-80.854109 L12.066748,-82.248089 L14.25028,-83.39862 L16.549734,-84.298352 L18.316216,-84.800162 L20.372134,-85.092387 L29.140552,-85.375241 L41.920391,-85.593345 L46.509372,-85.688765 L46.540875,-93.063407 L46.603882,-99.609934 L46.824405,-101.392253 L47.296872,-102.907613 L47.910612,-104.295976 L48.653319,-105.544083 L49.512687,-106.638677 L50.476409,-107.566497 L51.532179,-108.314286 L52.667693,-108.868785 L53.870643,-109.216734 L64.581765,-109.571153 L79.388316,-109.911941 Z M86.476559,-16.249904 L86.476559,-16.249904 L85.374148,-16.577726 L84.302503,-16.500596 L83.307154,-16.068515 L82.433635,-15.331482 L81.727477,-14.339497 L81.234212,-13.142561 L80.999373,-11.790673 L81.068492,-10.333833 L81.415192,-9.011551 L81.977493,-7.911473 L82.712078,-7.055164 L83.57563,-6.464191 L84.524831,-6.160118 L85.516364,-6.164511 L86.506913,-6.498935 L87.453161,-7.184957 L88.255387,-8.207372 L88.777284,-9.414133 L89.026972,-10.72888 L89.012574,-12.075257 L88.742212,-13.376906 L88.224007,-14.557468 L87.466082,-15.540587 L86.476559,-16.249904 Z M28.878025,-57.362508 L28.878025,-57.362508 L28.258296,-57.522066 L27.042958,-57.624275 L23.616974,-57.667513 L20.183114,-57.513945 L18.957931,-57.370149 L18.32442,-57.185299 L17.854721,-56.717275 L17.524203,-56.145258 L17.278247,-54.835569 L17.581631,-53.548883 L17.937786,-53.00562 L18.429431,-52.577852 L19.006991,-52.209801 L23.77449,-52.332485 L28.54199,-52.455168 L28.993537,-52.864113 L29.400762,-53.344783 L29.685789,-53.908201 L29.892694,-55.164429 L29.621142,-56.395097 L29.308098,-56.926566 L28.878025,-57.362508 Z M75.954456,-58.234924 L75.954456,-58.234924 L75.053823,-58.274967 L74.270342,-57.798716 L73.71723,-56.923744 L73.5077,-55.767623 L73.623786,-54.871218 L73.932338,-54.155485 L74.385608,-53.636236 L74.93585,-53.329288 L75.535315,-53.250454 L76.136257,-53.41555 L76.690928,-53.840389 L77.151582,-54.540788 L77.398686,-55.622149 L77.238216,-56.730347 L76.735147,-57.6673 L75.954456,-58.234924 Z M68.078631,-102.878087 L68.078631,-102.878087 L67.228247,-103.122149 L66.410597,-103.102793 L65.650539,-102.842863 L64.972931,-102.365201 L64.402631,-101.692652 L63.964497,-100.848058 L63.683388,-99.854263 L63.584161,-98.734111 L63.748938,-97.307276 L64.201428,-96.12453 L64.878872,-95.216545 L65.718509,-94.61399 L66.657578,-94.347536 L67.633319,-94.447856 L68.582971,-94.945618 L69.443774,-95.871496 L69.91015,-96.764093 L70.174093,-97.759884 L70.245816,-98.804877 L70.135534,-99.845078 L69.853461,-100.826493 L69.40981,-101.695128 L68.814795,-102.39699 L68.078631,-102.878087 Z M85.415947,-103.736871 L85.415947,-103.736871 L84.105607,-104.262829 L82.834646,-104.220576 L81.670993,-103.694938 L80.682577,-102.770738 L79.937327,-101.532801 L79.503172,-100.065951 L79.448041,-98.455011 L79.839863,-96.784806 L80.29219,-95.83558 L80.855517,-95.049133 L81.508923,-94.43489 L82.231489,-94.002276 L83.002294,-93.760716 L83.800419,-93.719635 L84.604943,-93.888458 L85.394945,-94.27661 L86.401554,-95.166172 L87.121556,-96.306852 L87.554829,-97.614943 L87.701249,-99.006741 L87.560695,-100.398538 L87.133041,-101.706629 L86.418167,-102.847309 L85.415947,-103.736871 Z M69.359766,-15.459277 L69.359766,-15.459277 L68.649752,-15.775464 L67.922756,-15.875038 L67.204128,-15.772695 L66.519218,-15.483132 L65.893377,-15.021046 L65.351955,-14.401132 L64.920302,-13.638087 L64.623769,-12.746609 L64.469063,-11.519081 L64.559614,-10.341075 L64.865028,-9.258276 L65.354908,-8.316371 L65.99886,-7.561047 L66.766486,-7.037992 L67.627392,-6.792891 L68.551181,-6.871432 L69.670881,-7.417118 L70.518988,-8.320631 L71.085781,-9.478456 L71.361538,-10.78708 L71.336536,-12.142989 L71.001055,-13.442667 L70.345372,-14.582601 L69.359766,-15.459277 Z" fill="#000" stroke="none" fill-rule="nonzero"/>
</svg>