<?xml version="1.0" encoding="UTF-8"?>
<svg xmlns="http://www.w3.org/2000/svg" viewBox="-1453.206796955909 -1478.346835877261 170.0000000000291 176.9999999999709">
  <path d="M-1393.206796955909,-1473.346835877261 L-1393.206796955909,-1462.446835877295 L-1291.20679695588,-1462.446835877295 L-1283.20679695588,-1454.4468358772965 L-1283.206796955909,-1325.246835877255 L-1291.206796955909,-1317.246835877255 L-1393.206796955939,-1317.246835877284 L-1393.206796955939,-1306.34683587729 L-1398.206796955939,-1301.34683587729 L-1445.206796955909,-1301.34683587729 L-1453.206796955909,-1309.34683587729 L-1453.206796955909,-1470.346835877261 L-1445.206796955909,-1478.346835877261 L-1398.206796955909,-1478.346835877261 L-1393.206796955909,-1473.346835877261 Z M-1347.206796955909,-1414.84683587729 L-1347.235688595876,-1415.4349387192674 L-1347.3220852734896,-1416.0173778093867 L-1347.465154941516,-1416.5885439408169 L-1347.6635197608414,-1417.1429364714807 L-1347.915269369819,-1417.675216298246 L-1348.217979282094,-1418.1802572754077 L-1348.5687342357328,-1418.6531955822718 L-1348.9641562687898,-1419.0894765644093 L-1349.4004372509273,-1419.4848985974663 L-1349.8733755577914,-1419.8356535511052 L-1350.3784165349532,-1420.13836346338 L-1350.9106963617185,-1420.3901130723577 L-1351.4650888923823,-1420.5884778916832 L-1352.0362550238124,-1420.7315475597095 L-1352.6186941139317,-1420.8179442373232 L-1353.206796955909,-1420.84683587729 L-1353.7948997978865,-1420.8179442373232 L-1354.3773388880059,-1420.7315475597095 L-1354.948505019436,-1420.5884778916832 L-1355.5028975500998,-1420.3901130723577 L-1356.035177376865,-1420.13836346338 L-1356.5402183540268,-1419.8356535511052 L-1357.013156660891,-1419.4848985974663 L-1357.4494376430284,-1419.0894765644093 L-1357.8448596760854,-1418.6531955822718 L-1358.1956146297243,-1418.1802572754077 L-1358.4983245419992,-1417.675216298246 L-1358.7500741509768,-1417.1429364714807 L-1358.9484389703023,-1416.5885439408169 L-1359.0915086383286,-1416.0173778093867 L-1359.1779053159423,-1415.4349387192674 L-1359.206796955909,-1414.84683587729 L-1359.1779053159423,-1414.2587330353126 L-1359.0915086383286,-1413.6762939451933 L-1358.9484389703023,-1413.1051278137631 L-1358.7500741509768,-1412.5507352830994 L-1358.4983245419992,-1412.018455456334 L-1358.1956146297243,-1411.5134144791723 L-1357.8448596760854,-1411.0404761723082 L-1357.4494376430284,-1410.6041951901707 L-1357.013156660891,-1410.2087731571137 L-1356.5402183540268,-1409.8580182034748 L-1356.035177376865,-1409.5553082912 L-1355.5028975500998,-1409.3035586822223 L-1354.948505019436,-1409.1051938628968 L-1354.3773388880059,-1408.9621241948705 L-1353.7948997978865,-1408.8757275172568 L-1353.206796955909,-1408.84683587729 L-1352.6186941139317,-1408.8757275172568 L-1352.0362550238124,-1408.9621241948705 L-1351.4650888923823,-1409.1051938628968 L-1350.9106963617185,-1409.3035586822223 L-1350.3784165349532,-1409.5553082912 L-1349.8733755577914,-1409.8580182034748 L-1349.4004372509273,-1410.2087731571137 L-1348.9641562687898,-1410.6041951901707 L-1348.5687342357328,-1411.0404761723082 L-1348.217979282094,-1411.5134144791723 L-1347.915269369819,-1412.018455456334 L-1347.6635197608414,-1412.5507352830994 L-1347.465154941516,-1413.1051278137631 L-1347.3220852734896,-1413.6762939451933 L-1347.235688595876,-1414.2587330353126 L-1347.206796955909,-1414.84683587729 Z M-1307.206796955909,-1414.84683587729 L-1307.235688595876,-1415.4349387192674 L-1307.3220852734896,-1416.0173778093867 L-1307.465154941516,-1416.5885439408169 L-1307.6635197608414,-1417.1429364714807 L-1307.915269369819,-1417.675216298246 L-1308.217979282094,-1418.1802572754077 L-1308.5687342357328,-1418.6531955822718 L-1308.9641562687898,-1419.0894765644093 L-1309.4004372509273,-1419.4848985974663 L-1309.8733755577914,-1419.8356535511052 L-1310.3784165349532,-1420.13836346338 L-1310.9106963617185,-1420.3901130723577 L-1311.4650888923823,-1420.5884778916832 L-1312.0362550238124,-1420.7315475597095 L-1312.6186941139317,-1420.8179442373232 L-1313.206796955909,-1420.84683587729 L-1313.7948997978865,-1420.8179442373232 L-1314.3773388880059,-1420.7315475597095 L-1314.948505019436,-1420.5884778916832 L-1315.5028975500998,-1420.3901130723577 L-1316.035177376865,-1420.13836346338 L-1316.5402183540268,-1419.8356535511052 L-1317.013156660891,-1419.4848985974663 L-1317.4494376430284,-1419.0894765644093 L-1317.8448596760854,-1418.6531955822718 L-1318.1956146297243,-1418.1802572754077 L-1318.4983245419992,-1417.675216298246 L-1318.7500741509768,-1417.1429364714807 L-1318.9484389703023,-1416.5885439408169 L-1319.0915086383286,-1416.0173778093867 L-1319.1779053159423,-1415.4349387192674 L-1319.206796955909,-1414.84683587729 L-1319.1779053159423,-1414.2587330353126 L-1319.0915086383286,-1413.6762939451933 L-1318.9484389703023,-1413.1051278137631 L-1318.7500741509768,-1412.5507352830994 L-1318.4983245419992,-1412.018455456334 L-1318.1956146297243,-1411.5134144791723 L-1317.8448596760854,-1411.0404761723082 L-1317.4494376430284,-1410.6041951901707 L-1317.013156660891,-1410.2087731571137 L-1316.5402183540268,-1409.8580182034748 L-1316.035177376865,-1409.5553082912 L-1315.5028975500998,-1409.3035586822223 L-1314.948505019436,-1409.1051938628968 L-1314.3773388880059,-1408.9621241948705 L-1313.7948997978865,-1408.8757275172568 L-1313.206796955909,-1408.84683587729 L-1312.6186941139317,-1408.8757275172568 L-1312.0362550238124,-1408.9621241948705 L-1311.4650888923823,-1409.1051938628968 L-1310.9106963617185,-1409.3035586822223 L-1310.3784165349532,-1409.5553082912 L-1309.8733755577914,-1409.8580182034748 L-1309.4004372509273,-1410.2087731571137 L-1308.9641562687898,-1410.6041951901707 L-1308.5687342357328,-1411.0404761723082 L-1308.217979282094,-1411.5134144791723 L-1307.915269369819,-1412.018455456334 L-1307.6635197608414,-1412.5507352830994 L-1307.465154941516,-1413.1051278137631 L-1307.3220852734896,-1413.6762939451933 L-1307.235688595876,-1414.2587330353126 L-1307.206796955909,-1414.84683587729 Z M-1307.206796955909,-1364.84683587729 L-1307.235688595876,-1365.4349387192674 L-1307.3220852734896,-1366.0173778093867 L-1307.465154941516,-1366.5885439408169 L-1307.6635197608414,-1367.1429364714807 L-1307.915269369819,-1367.675216298246 L-1308.217979282094,-1368.1802572754077 L-1308.5687342357328,-1368.6531955822718 L-1308.9641562687898,-1369.0894765644093 L-1309.4004372509273,-1369.4848985974663 L-1309.8733755577914,-1369.8356535511052 L-1310.3784165349532,-1370.13836346338 L-1310.9106963617185,-1370.3901130723577 L-1311.4650888923823,-1370.5884778916832 L-1312.0362550238124,-1370.7315475597095 L-1312.6186941139317,-1370.8179442373232 L-1313.206796955909,-1370.84683587729 L-1313.7948997978865,-1370.8179442373232 L-1314.3773388880059,-1370.7315475597095 L-1314.948505019436,-1370.5884778916832 L-1315.5028975500998,-1370.3901130723577 L-1316.035177376865,-1370.13836346338 L-1316.5402183540268,-1369.8356535511052 L-1317.013156660891,-1369.4848985974663 L-1317.4494376430284,-1369.0894765644093 L-1317.8448596760854,-1368.6531955822718 L-1318.1956146297243,-1368.1802572754077 L-1318.4983245419992,-1367.675216298246 L-1318.7500741509768,-1367.1429364714807 L-1318.9484389703023,-1366.5885439408169 L-1319.0915086383286,-1366.0173778093867 L-1319.1779053159423,-1365.4349387192674 L-1319.206796955909,-1364.84683587729 L-1319.1779053159423,-1364.2587330353126 L-1319.0915086383286,-1363.6762939451933 L-1318.9484389703023,-1363.1051278137631 L-1318.7500741509768,-1362.5507352830994 L-1318.4983245419992,-1362.018455456334 L-1318.1956146297243,-1361.5134144791723 L-1317.8448596760854,-1361.0404761723082 L-1317.4494376430284,-1360.6041951901707 L-1317.013156660891,-1360.2087731571137 L-1316.5402183540268,-1359.8580182034748 L-1316.035177376865,-1359.5553082912 L-1315.5028975500998,-1359.3035586822223 L-1314.948505019436,-1359.1051938628968 L-1314.3773388880059,-1358.9621241948705 L-1313.7948997978865,-1358.8757275172568 L-1313.206796955909,-1358.84683587729 L-1312.6186941139317,-1358.8757275172568 L-1312.0362550238124,-1358.9621241948705 L-1311.4650888923823,-1359.1051938628968 L-1310.9106963617185,-1359.3035586822223 L-1310.3784165349532,-1359.5553082912 L-1309.8733755577914,-1359.8580182034748 L-1309.4004372509273,-1360.2087731571137 L-1308.9641562687898,-1360.6041951901707 L-1308.5687342357328,-1361.0404761723082 L-1308.217979282094,-1361.5134144791723 L-1307.915269369819,-1362.018455456334 L-1307.6635197608414,-1362.5507352830994 L-1307.465154941516,-1363.1051278137631 L-1307.3220852734896,-1363.6762939451933 L-1307.235688595876,-1364.2587330353126 L-1307.206796955909,-1364.84683587729 Z M-1419.206796955939,-1324.84683587729 L-1419.22605804925,-1325.2389044386082 L-1419.283655834326,-1325.6271971653546 L-1419.37903561301,-1326.007974586308 L-1419.5112788258937,-1326.3775696067503 L-1419.6791118985454,-1326.732422824594 L-1419.8809185067287,-1327.0691168093683 L-1420.1147551424879,-1327.3844090139446 L-1420.3783698311927,-1327.6752630020362 L-1420.6692238192843,-1327.938877690741 L-1420.9845160238606,-1328.1727143265002 L-1421.3212100086348,-1328.3745209346835 L-1421.6760632264786,-1328.5423540073352 L-1422.045658246921,-1328.6745972202189 L-1422.4264356678743,-1328.7699769989028 L-1422.8147283946207,-1328.827574783979 L-1423.206796955939,-1328.84683587729 L-1423.598865517257,-1328.827574783979 L-1423.9871582440035,-1328.7699769989028 L-1424.3679356649568,-1328.6745972202189 L-1424.7375306853992,-1328.5423540073352 L-1425.092383903243,-1328.3745209346835 L-1425.4290778880172,-1328.1727143265002 L-1425.7443700925935,-1327.938877690741 L-1426.035224080685,-1327.6752630020362 L-1426.29883876939,-1327.3844090139446 L-1426.5326754051491,-1327.0691168093683 L-1426.7344820133324,-1326.732422824594 L-1426.9023150859841,-1326.3775696067503 L-1427.0345582988678,-1326.007974586308 L-1427.1299380775517,-1325.6271971653546 L-1427.1875358626278,-1325.2389044386082 L-1427.206796955939,-1324.84683587729 L-1427.1875358626278,-1324.4547673159718 L-1427.1299380775517,-1324.0664745892254 L-1427.0345582988678,-1323.685697168272 L-1426.9023150859841,-1323.3161021478297 L-1426.7344820133324,-1322.961248929986 L-1426.5326754051491,-1322.6245549452117 L-1426.29883876939,-1322.3092627406354 L-1426.035224080685,-1322.0184087525438 L-1425.7443700925935,-1321.754794063839 L-1425.4290778880172,-1321.5209574280798 L-1425.092383903243,-1321.3191508198965 L-1424.7375306853992,-1321.1513177472448 L-1424.3679356649568,-1321.0190745343612 L-1423.9871582440035,-1320.9236947556772 L-1423.598865517257,-1320.8660969706011 L-1423.206796955939,-1320.84683587729 L-1422.8147283946207,-1320.8660969706011 L-1422.4264356678743,-1320.9236947556772 L-1422.045658246921,-1321.0190745343612 L-1421.6760632264786,-1321.1513177472448 L-1421.3212100086348,-1321.3191508198965 L-1420.9845160238606,-1321.5209574280798 L-1420.6692238192843,-1321.754794063839 L-1420.3783698311927,-1322.0184087525438 L-1420.1147551424879,-1322.3092627406354 L-1419.8809185067287,-1322.6245549452117 L-1419.6791118985454,-1322.961248929986 L-1419.5112788258937,-1323.3161021478297 L-1419.37903561301,-1323.685697168272 L-1419.283655834326,-1324.0664745892254 L-1419.22605804925,-1324.4547673159718 L-1419.206796955939,-1324.84683587729 Z M-1419.206796955939,-1454.84683587729 L-1419.22605804925,-1455.2389044386082 L-1419.283655834326,-1455.6271971653546 L-1419.37903561301,-1456.007974586308 L-1419.5112788258937,-1456.3775696067503 L-1419.6791118985454,-1456.732422824594 L-1419.8809185067287,-1457.0691168093683 L-1420.1147551424879,-1457.3844090139446 L-1420.3783698311927,-1457.6752630020362 L-1420.6692238192843,-1457.938877690741 L-1420.9845160238606,-1458.1727143265002 L-1421.3212100086348,-1458.3745209346835 L-1421.6760632264786,-1458.5423540073352 L-1422.045658246921,-1458.6745972202189 L-1422.4264356678743,-1458.7699769989028 L-1422.8147283946207,-1458.827574783979 L-1423.206796955939,-1458.84683587729 L-1423.598865517257,-1458.827574783979 L-1423.9871582440035,-1458.7699769989028 L-1424.3679356649568,-1458.6745972202189 L-1424.7375306853992,-1458.5423540073352 L-1425.092383903243,-1458.3745209346835 L-1425.4290778880172,-1458.1727143265002 L-1425.7443700925935,-1457.938877690741 L-1426.035224080685,-1457.6752630020362 L-1426.29883876939,-1457.3844090139446 L-1426.5326754051491,-1457.0691168093683 L-1426.7344820133324,-1456.732422824594 L-1426.9023150859841,-1456.3775696067503 L-1427.0345582988678,-1456.007974586308 L-1427.1299380775517,-1455.6271971653546 L-1427.1875358626278,-1455.2389044386082 L-1427.206796955939,-1454.84683587729 L-1427.1875358626278,-1454.4547673159718 L-1427.1299380775517,-1454.0664745892254 L-1427.0345582988678,-1453.685697168272 L-1426.9023150859841,-1453.3161021478297 L-1426.7344820133324,-1452.961248929986 L-1426.5326754051491,-1452.6245549452117 L-1426.29883876939,-1452.3092627406354 L-1426.035224080685,-1452.0184087525438 L-1425.7443700925935,-1451.754794063839 L-1425.4290778880172,-1451.5209574280798 L-1425.092383903243,-1451.3191508198965 L-1424.7375306853992,-1451.1513177472448 L-1424.3679356649568,-1451.0190745343612 L-1423.9871582440035,-1450.9236947556772 L-1423.598865517257,-1450.8660969706011 L-1423.206796955939,-1450.84683587729 L-1422.8147283946207,-1450.8660969706011 L-1422.4264356678743,-1450.9236947556772 L-1422.045658246921,-1451.0190745343612 L-1421.6760632264786,-1451.1513177472448 L-1421.3212100086348,-1451.3191508198965 L-1420.9845160238606,-1451.5209574280798 L-1420.6692238192843,-1451.754794063839 L-1420.3783698311927,-1452.0184087525438 L-1420.1147551424879,-1452.3092627406354 L-1419.8809185067287,-1452.6245549452117 L-1419.6791118985454,-1452.961248929986 L-1419.5112788258937,-1453.3161021478297 L-1419.37903561301,-1453.685697168272 L-1419.283655834326,-1454.0664745892254 L-1419.22605804925,-1454.4547673159718 L-1419.206796955939,-1454.84683587729 Z M-1347.206796955909,-1364.84683587729 L-1347.235688595876,-1365.4349387192674 L-1347.3220852734896,-1366.0173778093867 L-1347.465154941516,-1366.5885439408169 L-1347.6635197608414,-1367.1429364714807 L-1347.915269369819,-1367.675216298246 L-1348.217979282094,-1368.1802572754077 L-1348.5687342357328,-1368.6531955822718 L-1348.9641562687898,-1369.0894765644093 L-1349.4004372509273,-1369.4848985974663 L-1349.8733755577914,-1369.8356535511052 L-1350.3784165349532,-1370.13836346338 L-1350.9106963617185,-1370.3901130723577 L-1351.4650888923823,-1370.5884778916832 L-1352.0362550238124,-1370.7315475597095 L-1352.6186941139317,-1370.8179442373232 L-1353.206796955909,-1370.84683587729 L-1353.7948997978865,-1370.8179442373232 L-1354.3773388880059,-1370.7315475597095 L-1354.948505019436,-1370.5884778916832 L-1355.5028975500998,-1370.3901130723577 L-1356.035177376865,-1370.13836346338 L-1356.5402183540268,-1369.8356535511052 L-1357.013156660891,-1369.4848985974663 L-1357.4494376430284,-1369.0894765644093 L-1357.8448596760854,-1368.6531955822718 L-1358.1956146297243,-1368.1802572754077 L-1358.4983245419992,-1367.675216298246 L-1358.7500741509768,-1367.1429364714807 L-1358.9484389703023,-1366.5885439408169 L-1359.0915086383286,-1366.0173778093867 L-1359.1779053159423,-1365.4349387192674 L-1359.206796955909,-1364.84683587729 L-1359.1779053159423,-1364.2587330353126 L-1359.0915086383286,-1363.6762939451933 L-1358.9484389703023,-1363.1051278137631 L-1358.7500741509768,-1362.5507352830994 L-1358.4983245419992,-1362.018455456334 L-1358.1956146297243,-1361.5134144791723 L-1357.8448596760854,-1361.0404761723082 L-1357.4494376430284,-1360.6041951901707 L-1357.013156660891,-1360.2087731571137 L-1356.5402183540268,-1359.8580182034748 L-1356.035177376865,-1359.5553082912 L-1355.5028975500998,-1359.3035586822223 L-1354.948505019436,-1359.1051938628968 L-1354.3773388880059,-1358.9621241948705 L-1353.7948997978865,-1358.8757275172568 L-1353.206796955909,-1358.84683587729 L-1352.6186941139317,-1358.8757275172568 L-1352.0362550238124,-1358.9621241948705 L-1351.4650888923823,-1359.1051938628968 L-1350.9106963617185,-1359.3035586822223 L-1350.3784165349532,-1359.5553082912 L-1349.8733755577914,-1359.8580182034748 L-1349.4004372509273,-1360.2087731571137 L-1348.9641562687898,-1360.6041951901707 L-1348.5687342357328,-1361.0404761723082 L-1348.217979282094,-1361.5134144791723 L-1347.915269369819,-1362.018455456334 L-1347.6635197608414,-1362.5507352830994 L-1347.465154941516,-1363.1051278137631 L-1347.3220852734896,-1363.6762939451933 L-1347.235688595876,-1364.2587330353126 L-1347.206796955909,-1364.84683587729 Z" fill="#000" stroke="none" fill-rule="nonzero"/>
</svg>