<?xml version="1.0" encoding="UTF-8"?>
<svg xmlns="http://www.w3.org/2000/svg" viewBox="-1461.62206901577 -1553.905739491106 180.00000000005798 220">
  <path d="M-1401.622069015741,-1535.905739491106 L-1289.622069015713,-1535.905739491106 L-1281.622069015712,-1527.9057394911065 L-1281.622069015741,-1359.905739491077 L-1289.622069015741,-1351.905739491077 L-1401.62206901577,-1351.905739491106 L-1401.62206901577,-1338.905739491106 L-1406.62206901577,-1333.905739491106 L-1453.622069015741,-1333.905739491106 L-1461.622069015741,-1341.905739491106 L-1461.62206901577,-1545.905739491106 L-1453.62206901577,-1553.905739491106 L-1406.62206901577,-1553.905739491106 L-1401.62206901577,-1548.905739491106 L-1401.622069015741,-1535.905739491106 Z M-1305.622069015741,-1483.905739491135 L-1305.6509606557079,-1484.4938423331123 L-1305.7373573333216,-1485.0762814232316 L-1305.880427001348,-1485.6474475546618 L-1306.0787918206734,-1486.2018400853256 L-1306.330541429651,-1486.7341199120908 L-1306.6332513419259,-1487.2391608892526 L-1306.9840062955648,-1487.7120991961167 L-1307.3794283286218,-1488.1483801782542 L-1307.8157093107593,-1488.5438022113112 L-1308.2886476176234,-1488.8945571649501 L-1308.7936885947852,-1489.197267077225 L-1309.3259684215504,-1489.4490166862026 L-1309.8803609522142,-1489.647381505528 L-1310.4515270836444,-1489.7904511735544 L-1311.0339661737637,-1489.8768478511681 L-1311.622069015741,-1489.905739491135 L-1312.2101718577185,-1489.8768478511681 L-1312.7926109478378,-1489.7904511735544 L-1313.363777079268,-1489.647381505528 L-1313.9181696099317,-1489.4490166862026 L-1314.450449436697,-1489.197267077225 L-1314.9554904138588,-1488.8945571649501 L-1315.4284287207229,-1488.5438022113112 L-1315.8647097028604,-1488.1483801782542 L-1316.2601317359174,-1487.7120991961167 L-1316.6108866895563,-1487.2391608892526 L-1316.9135966018312,-1486.7341199120908 L-1317.1653462108088,-1486.2018400853256 L-1317.3637110301343,-1485.6474475546618 L-1317.5067806981606,-1485.0762814232316 L-1317.5931773757743,-1484.4938423331123 L-1317.622069015741,-1483.905739491135 L-1317.5931773757743,-1483.3176366491575 L-1317.5067806981606,-1482.7351975590382 L-1317.3637110301343,-1482.164031427608 L-1317.1653462108088,-1481.6096388969443 L-1316.9135966018312,-1481.077359070179 L-1316.6108866895563,-1480.5723180930172 L-1316.2601317359174,-1480.0993797861531 L-1315.8647097028604,-1479.6630988040156 L-1315.4284287207229,-1479.2676767709586 L-1314.9554904138588,-1478.9169218173197 L-1314.450449436697,-1478.6142119050448 L-1313.9181696099317,-1478.3624622960672 L-1313.363777079268,-1478.1640974767417 L-1312.7926109478378,-1478.0210278087154 L-1312.2101718577185,-1477.9346311311017 L-1311.622069015741,-1477.905739491135 L-1311.0339661737637,-1477.9346311311017 L-1310.4515270836444,-1478.0210278087154 L-1309.8803609522142,-1478.1640974767417 L-1309.3259684215504,-1478.3624622960672 L-1308.7936885947852,-1478.6142119050448 L-1308.2886476176234,-1478.9169218173197 L-1307.8157093107593,-1479.2676767709586 L-1307.3794283286218,-1479.6630988040156 L-1306.9840062955648,-1480.0993797861531 L-1306.6332513419259,-1480.5723180930172 L-1306.330541429651,-1481.077359070179 L-1306.0787918206734,-1481.6096388969443 L-1305.880427001348,-1482.164031427608 L-1305.7373573333216,-1482.7351975590382 L-1305.6509606557079,-1483.3176366491575 L-1305.622069015741,-1483.905739491135 Z M-1427.62206901577,-1518.905739491164 L-1427.641330109081,-1519.2978080524822 L-1427.6989278941571,-1519.6861007792286 L-1427.7943076728411,-1520.066878200182 L-1427.9265508857247,-1520.4364732206243 L-1428.0943839583765,-1520.791326438468 L-1428.2961905665597,-1521.1280204232423 L-1428.530027202319,-1521.4433126278186 L-1428.7936418910238,-1521.7341666159102 L-1429.0844958791154,-1521.997781304615 L-1429.3997880836916,-1522.2316179403742 L-1429.7364820684659,-1522.4334245485575 L-1430.0913352863097,-1522.6012576212092 L-1430.460930306752,-1522.7335008340929 L-1430.8417077277054,-1522.8288806127769 L-1431.2300004544518,-1522.886478397853 L-1431.62206901577,-1522.905739491164 L-1432.0141375770881,-1522.886478397853 L-1432.4024303038345,-1522.8288806127769 L-1432.7832077247879,-1522.7335008340929 L-1433.1528027452302,-1522.6012576212092 L-1433.507655963074,-1522.4334245485575 L-1433.8443499478483,-1522.2316179403742 L-1434.1596421524246,-1521.997781304615 L-1434.4504961405162,-1521.7341666159102 L-1434.714110829221,-1521.4433126278186 L-1434.9479474649802,-1521.1280204232423 L-1435.1497540731634,-1520.791326438468 L-1435.3175871458152,-1520.4364732206243 L-1435.4498303586988,-1520.066878200182 L-1435.5452101373828,-1519.6861007792286 L-1435.6028079224589,-1519.2978080524822 L-1435.62206901577,-1518.905739491164 L-1435.6028079224589,-1518.5136709298458 L-1435.5452101373828,-1518.1253782030994 L-1435.4498303586988,-1517.744600782146 L-1435.3175871458152,-1517.3750057617037 L-1435.1497540731634,-1517.02015254386 L-1434.9479474649802,-1516.6834585590857 L-1434.714110829221,-1516.3681663545094 L-1434.4504961405162,-1516.0773123664178 L-1434.1596421524246,-1515.813697677713 L-1433.8443499478483,-1515.5798610419538 L-1433.507655963074,-1515.3780544337706 L-1433.1528027452302,-1515.2102213611188 L-1432.7832077247879,-1515.0779781482352 L-1432.4024303038345,-1514.9825983695512 L-1432.0141375770881,-1514.9250005844751 L-1431.62206901577,-1514.905739491164 L-1431.2300004544518,-1514.9250005844751 L-1430.8417077277054,-1514.9825983695512 L-1430.460930306752,-1515.0779781482352 L-1430.0913352863097,-1515.2102213611188 L-1429.7364820684659,-1515.3780544337706 L-1429.3997880836916,-1515.5798610419538 L-1429.0844958791154,-1515.813697677713 L-1428.7936418910238,-1516.0773123664178 L-1428.530027202319,-1516.3681663545094 L-1428.2961905665597,-1516.6834585590857 L-1428.0943839583765,-1517.02015254386 L-1427.9265508857247,-1517.3750057617037 L-1427.7943076728411,-1517.744600782146 L-1427.6989278941571,-1518.1253782030994 L-1427.641330109081,-1518.5136709298458 L-1427.62206901577,-1518.905739491164 Z M-1305.622069015741,-1403.905739491223 L-1305.6509606557079,-1404.4938423332003 L-1305.7373573333216,-1405.0762814233196 L-1305.880427001348,-1405.6474475547498 L-1306.0787918206734,-1406.2018400854136 L-1306.330541429651,-1406.7341199121788 L-1306.6332513419259,-1407.2391608893406 L-1306.9840062955648,-1407.7120991962047 L-1307.3794283286218,-1408.1483801783422 L-1307.8157093107593,-1408.5438022113992 L-1308.2886476176234,-1408.8945571650381 L-1308.7936885947852,-1409.197267077313 L-1309.3259684215504,-1409.4490166862906 L-1309.8803609522142,-1409.647381505616 L-1310.4515270836444,-1409.7904511736424 L-1311.0339661737637,-1409.8768478512561 L-1311.622069015741,-1409.905739491223 L-1312.2101718577185,-1409.8768478512561 L-1312.7926109478378,-1409.7904511736424 L-1313.363777079268,-1409.647381505616 L-1313.9181696099317,-1409.4490166862906 L-1314.450449436697,-1409.197267077313 L-1314.9554904138588,-1408.8945571650381 L-1315.4284287207229,-1408.5438022113992 L-1315.8647097028604,-1408.1483801783422 L-1316.2601317359174,-1407.7120991962047 L-1316.6108866895563,-1407.2391608893406 L-1316.9135966018312,-1406.7341199121788 L-1317.1653462108088,-1406.2018400854136 L-1317.3637110301343,-1405.6474475547498 L-1317.5067806981606,-1405.0762814233196 L-1317.5931773757743,-1404.4938423332003 L-1317.622069015741,-1403.905739491223 L-1317.5931773757743,-1403.3176366492455 L-1317.5067806981606,-1402.7351975591262 L-1317.3637110301343,-1402.164031427696 L-1317.1653462108088,-1401.6096388970323 L-1316.9135966018312,-1401.077359070267 L-1316.6108866895563,-1400.5723180931052 L-1316.2601317359174,-1400.0993797862411 L-1315.8647097028604,-1399.6630988041036 L-1315.4284287207229,-1399.2676767710466 L-1314.9554904138588,-1398.9169218174077 L-1314.450449436697,-1398.6142119051328 L-1313.9181696099317,-1398.3624622961552 L-1313.363777079268,-1398.1640974768297 L-1312.7926109478378,-1398.0210278088034 L-1312.2101718577185,-1397.9346311311897 L-1311.622069015741,-1397.905739491223 L-1311.0339661737637,-1397.9346311311897 L-1310.4515270836444,-1398.0210278088034 L-1309.8803609522142,-1398.1640974768297 L-1309.3259684215504,-1398.3624622961552 L-1308.7936885947852,-1398.6142119051328 L-1308.2886476176234,-1398.9169218174077 L-1307.8157093107593,-1399.2676767710466 L-1307.3794283286218,-1399.6630988041036 L-1306.9840062955648,-1400.0993797862411 L-1306.6332513419259,-1400.5723180931052 L-1306.330541429651,-1401.077359070267 L-1306.0787918206734,-1401.6096388970323 L-1305.880427001348,-1402.164031427696 L-1305.7373573333216,-1402.7351975591262 L-1305.6509606557079,-1403.3176366492455 L-1305.622069015741,-1403.905739491223 Z M-1355.622069015741,-1403.905739491223 L-1355.6509606557079,-1404.4938423332003 L-1355.7373573333216,-1405.0762814233196 L-1355.880427001348,-1405.6474475547498 L-1356.0787918206734,-1406.2018400854136 L-1356.330541429651,-1406.7341199121788 L-1356.6332513419259,-1407.2391608893406 L-1356.9840062955648,-1407.7120991962047 L-1357.3794283286218,-1408.1483801783422 L-1357.8157093107593,-1408.5438022113992 L-1358.2886476176234,-1408.8945571650381 L-1358.7936885947852,-1409.197267077313 L-1359.3259684215504,-1409.4490166862906 L-1359.8803609522142,-1409.647381505616 L-1360.4515270836444,-1409.7904511736424 L-1361.0339661737637,-1409.8768478512561 L-1361.622069015741,-1409.905739491223 L-1362.2101718577185,-1409.8768478512561 L-1362.7926109478378,-1409.7904511736424 L-1363.363777079268,-1409.647381505616 L-1363.9181696099317,-1409.4490166862906 L-1364.450449436697,-1409.197267077313 L-1364.9554904138588,-1408.8945571650381 L-1365.4284287207229,-1408.5438022113992 L-1365.8647097028604,-1408.1483801783422 L-1366.2601317359174,-1407.7120991962047 L-1366.6108866895563,-1407.2391608893406 L-1366.9135966018312,-1406.7341199121788 L-1367.1653462108088,-1406.2018400854136 L-1367.3637110301343,-1405.6474475547498 L-1367.5067806981606,-1405.0762814233196 L-1367.5931773757743,-1404.4938423332003 L-1367.622069015741,-1403.905739491223 L-1367.5931773757743,-1403.3176366492455 L-1367.5067806981606,-1402.7351975591262 L-1367.3637110301343,-1402.164031427696 L-1367.1653462108088,-1401.6096388970323 L-1366.9135966018312,-1401.077359070267 L-1366.6108866895563,-1400.5723180931052 L-1366.2601317359174,-1400.0993797862411 L-1365.8647097028604,-1399.6630988041036 L-1365.4284287207229,-1399.2676767710466 L-1364.9554904138588,-1398.9169218174077 L-1364.450449436697,-1398.6142119051328 L-1363.9181696099317,-1398.3624622961552 L-1363.363777079268,-1398.1640974768297 L-1362.7926109478378,-1398.0210278088034 L-1362.2101718577185,-1397.9346311311897 L-1361.622069015741,-1397.905739491223 L-1361.0339661737637,-1397.9346311311897 L-1360.4515270836444,-1398.0210278088034 L-1359.8803609522142,-1398.1640974768297 L-1359.3259684215504,-1398.3624622961552 L-1358.7936885947852,-1398.6142119051328 L-1358.2886476176234,-1398.9169218174077 L-1357.8157093107593,-1399.2676767710466 L-1357.3794283286218,-1399.6630988041036 L-1356.9840062955648,-1400.0993797862411 L-1356.6332513419259,-1400.5723180931052 L-1356.330541429651,-1401.077359070267 L-1356.0787918206734,-1401.6096388970323 L-1355.880427001348,-1402.164031427696 L-1355.7373573333216,-1402.7351975591262 L-1355.6509606557079,-1403.3176366492455 L-1355.622069015741,-1403.905739491223 Z M-1427.62206901577,-1368.905739491106 L-1427.641330109081,-1369.2978080524242 L-1427.6989278941571,-1369.6861007791706 L-1427.7943076728411,-1370.066878200124 L-1427.9265508857247,-1370.4364732205663 L-1428.0943839583765,-1370.7913264384101 L-1428.2961905665597,-1371.1280204231844 L-1428.530027202319,-1371.4433126277606 L-1428.7936418910238,-1371.7341666158522 L-1429.0844958791154,-1371.997781304557 L-1429.3997880836916,-1372.2316179403163 L-1429.7364820684659,-1372.4334245484995 L-1430.0913352863097,-1372.6012576211513 L-1430.460930306752,-1372.7335008340349 L-1430.8417077277054,-1372.8288806127189 L-1431.2300004544518,-1372.886478397795 L-1431.62206901577,-1372.905739491106 L-1432.0141375770881,-1372.886478397795 L-1432.4024303038345,-1372.8288806127189 L-1432.7832077247879,-1372.7335008340349 L-1433.1528027452302,-1372.6012576211513 L-1433.507655963074,-1372.4334245484995 L-1433.8443499478483,-1372.2316179403163 L-1434.1596421524246,-1371.997781304557 L-1434.4504961405162,-1371.7341666158522 L-1434.714110829221,-1371.4433126277606 L-1434.9479474649802,-1371.1280204231844 L-1435.1497540731634,-1370.7913264384101 L-1435.3175871458152,-1370.4364732205663 L-1435.4498303586988,-1370.066878200124 L-1435.5452101373828,-1369.6861007791706 L-1435.6028079224589,-1369.2978080524242 L-1435.62206901577,-1368.905739491106 L-1435.6028079224589,-1368.5136709297878 L-1435.5452101373828,-1368.1253782030415 L-1435.4498303586988,-1367.7446007820881 L-1435.3175871458152,-1367.3750057616458 L-1435.1497540731634,-1367.020152543802 L-1434.9479474649802,-1366.6834585590277 L-1434.714110829221,-1366.3681663544514 L-1434.4504961405162,-1366.0773123663598 L-1434.1596421524246,-1365.813697677655 L-1433.8443499478483,-1365.5798610418958 L-1433.507655963074,-1365.3780544337126 L-1433.1528027452302,-1365.2102213610608 L-1432.7832077247879,-1365.0779781481772 L-1432.4024303038345,-1364.9825983694932 L-1432.0141375770881,-1364.9250005844171 L-1431.62206901577,-1364.905739491106 L-1431.2300004544518,-1364.9250005844171 L-1430.8417077277054,-1364.9825983694932 L-1430.460930306752,-1365.0779781481772 L-1430.0913352863097,-1365.2102213610608 L-1429.7364820684659,-1365.3780544337126 L-1429.3997880836916,-1365.5798610418958 L-1429.0844958791154,-1365.813697677655 L-1428.7936418910238,-1366.0773123663598 L-1428.530027202319,-1366.3681663544514 L-1428.2961905665597,-1366.6834585590277 L-1428.0943839583765,-1367.020152543802 L-1427.9265508857247,-1367.3750057616458 L-1427.7943076728411,-1367.7446007820881 L-1427.6989278941571,-1368.1253782030415 L-1427.641330109081,-1368.5136709297878 L-1427.62206901577,-1368.905739491106 Z M-1355.622069015741,-1443.905739491135 L-1355.6509606557079,-1444.4938423331123 L-1355.7373573333216,-1445.0762814232316 L-1355.880427001348,-1445.6474475546618 L-1356.0787918206734,-1446.2018400853256 L-1356.330541429651,-1446.7341199120908 L-1356.6332513419259,-1447.2391608892526 L-1356.9840062955648,-1447.7120991961167 L-1357.3794283286218,-1448.1483801782542 L-1357.8157093107593,-1448.5438022113112 L-1358.2886476176234,-1448.8945571649501 L-1358.7936885947852,-1449.197267077225 L-1359.3259684215504,-1449.4490166862026 L-1359.8803609522142,-1449.647381505528 L-1360.4515270836444,-1449.7904511735544 L-1361.0339661737637,-1449.8768478511681 L-1361.622069015741,-1449.905739491135 L-1362.2101718577185,-1449.8768478511681 L-1362.7926109478378,-1449.7904511735544 L-1363.363777079268,-1449.647381505528 L-1363.9181696099317,-1449.4490166862026 L-1364.450449436697,-1449.197267077225 L-1364.9554904138588,-1448.8945571649501 L-1365.4284287207229,-1448.5438022113112 L-1365.8647097028604,-1448.1483801782542 L-1366.2601317359174,-1447.7120991961167 L-1366.6108866895563,-1447.2391608892526 L-1366.9135966018312,-1446.7341199120908 L-1367.1653462108088,-1446.2018400853256 L-1367.3637110301343,-1445.6474475546618 L-1367.5067806981606,-1445.0762814232316 L-1367.5931773757743,-1444.4938423331123 L-1367.622069015741,-1443.905739491135 L-1367.5931773757743,-1443.3176366491575 L-1367.5067806981606,-1442.7351975590382 L-1367.3637110301343,-1442.164031427608 L-1367.1653462108088,-1441.6096388969443 L-1366.9135966018312,-1441.077359070179 L-1366.6108866895563,-1440.5723180930172 L-1366.2601317359174,-1440.0993797861531 L-1365.8647097028604,-1439.6630988040156 L-1365.4284287207229,-1439.2676767709586 L-1364.9554904138588,-1438.9169218173197 L-1364.450449436697,-1438.6142119050448 L-1363.9181696099317,-1438.3624622960672 L-1363.363777079268,-1438.1640974767417 L-1362.7926109478378,-1438.0210278087154 L-1362.2101718577185,-1437.9346311311017 L-1361.622069015741,-1437.905739491135 L-1361.0339661737637,-1437.9346311311017 L-1360.4515270836444,-1438.0210278087154 L-1359.8803609522142,-1438.1640974767417 L-1359.3259684215504,-1438.3624622960672 L-1358.7936885947852,-1438.6142119050448 L-1358.2886476176234,-1438.9169218173197 L-1357.8157093107593,-1439.2676767709586 L-1357.3794283286218,-1439.6630988040156 L-1356.9840062955648,-1440.0993797861531 L-1356.6332513419259,-1440.5723180930172 L-1356.330541429651,-1441.077359070179 L-1356.0787918206734,-1441.6096388969443 L-1355.880427001348,-1442.164031427608 L-1355.7373573333216,-1442.7351975590382 L-1355.6509606557079,-1443.3176366491575 L-1355.622069015741,-1443.905739491135 Z M-1305.622069015741,-1443.905739491135 L-1305.6509606557079,-1444.4938423331123 L-1305.7373573333216,-1445.0762814232316 L-1305.880427001348,-1445.6474475546618 L-1306.0787918206734,-1446.2018400853256 L-1306.330541429651,-1446.7341199120908 L-1306.6332513419259,-1447.2391608892526 L-1306.9840062955648,-1447.7120991961167 L-1307.3794283286218,-1448.1483801782542 L-1307.8157093107593,-1448.5438022113112 L-1308.2886476176234,-1448.8945571649501 L-1308.7936885947852,-1449.197267077225 L-1309.3259684215504,-1449.4490166862026 L-1309.8803609522142,-1449.647381505528 L-1310.4515270836444,-1449.7904511735544 L-1311.0339661737637,-1449.8768478511681 L-1311.622069015741,-1449.905739491135 L-1312.2101718577185,-1449.8768478511681 L-1312.7926109478378,-1449.7904511735544 L-1313.363777079268,-1449.647381505528 L-1313.9181696099317,-1449.4490166862026 L-1314.450449436697,-1449.197267077225 L-1314.9554904138588,-1448.8945571649501 L-1315.4284287207229,-1448.5438022113112 L-1315.8647097028604,-1448.1483801782542 L-1316.2601317359174,-1447.7120991961167 L-1316.6108866895563,-1447.2391608892526 L-1316.9135966018312,-1446.7341199120908 L-1317.1653462108088,-1446.2018400853256 L-1317.3637110301343,-1445.6474475546618 L-1317.5067806981606,-1445.0762814232316 L-1317.5931773757743,-1444.4938423331123 L-1317.622069015741,-1443.905739491135 L-1317.5931773757743,-1443.3176366491575 L-1317.5067806981606,-1442.7351975590382 L-1317.3637110301343,-1442.164031427608 L-1317.1653462108088,-1441.6096388969443 L-1316.9135966018312,-1441.077359070179 L-1316.6108866895563,-1440.5723180930172 L-1316.2601317359174,-1440.0993797861531 L-1315.8647097028604,-1439.6630988040156 L-1315.4284287207229,-1439.2676767709586 L-1314.9554904138588,-1438.9169218173197 L-1314.450449436697,-1438.6142119050448 L-1313.9181696099317,-1438.3624622960672 L-1313.363777079268,-1438.1640974767417 L-1312.7926109478378,-1438.0210278087154 L-1312.2101718577185,-1437.9346311311017 L-1311.622069015741,-1437.905739491135 L-1311.0339661737637,-1437.9346311311017 L-1310.4515270836444,-1438.0210278087154 L-1309.8803609522142,-1438.1640974767417 L-1309.3259684215504,-1438.3624622960672 L-1308.7936885947852,-1438.6142119050448 L-1308.2886476176234,-1438.9169218173197 L-1307.8157093107593,-1439.2676767709586 L-1307.3794283286218,-1439.6630988040156 L-1306.9840062955648,-1440.0993797861531 L-1306.6332513419259,-1440.5723180930172 L-1306.330541429651,-1441.077359070179 L-1306.0787918206734,-1441.6096388969443 L-1305.880427001348,-1442.164031427608 L-1305.7373573333216,-1442.7351975590382 L-1305.6509606557079,-1443.3176366491575 L-1305.622069015741,-1443.905739491135 Z M-1355.622069015741,-1483.905739491135 L-1355.6509606557079,-1484.4938423331123 L-1355.7373573333216,-1485.0762814232316 L-1355.880427001348,-1485.6474475546618 L-1356.0787918206734,-1486.2018400853256 L-1356.330541429651,-1486.7341199120908 L-1356.6332513419259,-1487.2391608892526 L-1356.9840062955648,-1487.7120991961167 L-1357.3794283286218,-1488.1483801782542 L-1357.8157093107593,-1488.5438022113112 L-1358.2886476176234,-1488.8945571649501 L-1358.7936885947852,-1489.197267077225 L-1359.3259684215504,-1489.4490166862026 L-1359.8803609522142,-1489.647381505528 L-1360.4515270836444,-1489.7904511735544 L-1361.0339661737637,-1489.8768478511681 L-1361.622069015741,-1489.905739491135 L-1362.2101718577185,-1489.8768478511681 L-1362.7926109478378,-1489.7904511735544 L-1363.363777079268,-1489.647381505528 L-1363.9181696099317,-1489.4490166862026 L-1364.450449436697,-1489.197267077225 L-1364.9554904138588,-1488.8945571649501 L-1365.4284287207229,-1488.5438022113112 L-1365.8647097028604,-1488.1483801782542 L-1366.2601317359174,-1487.7120991961167 L-1366.6108866895563,-1487.2391608892526 L-1366.9135966018312,-1486.7341199120908 L-1367.1653462108088,-1486.2018400853256 L-1367.3637110301343,-1485.6474475546618 L-1367.5067806981606,-1485.0762814232316 L-1367.5931773757743,-1484.4938423331123 L-1367.622069015741,-1483.905739491135 L-1367.5931773757743,-1483.3176366491575 L-1367.5067806981606,-1482.7351975590382 L-1367.3637110301343,-1482.164031427608 L-1367.1653462108088,-1481.6096388969443 L-1366.9135966018312,-1481.077359070179 L-1366.6108866895563,-1480.5723180930172 L-1366.2601317359174,-1480.0993797861531 L-1365.8647097028604,-1479.6630988040156 L-1365.4284287207229,-1479.2676767709586 L-1364.9554904138588,-1478.9169218173197 L-1364.450449436697,-1478.6142119050448 L-1363.9181696099317,-1478.3624622960672 L-1363.363777079268,-1478.1640974767417 L-1362.7926109478378,-1478.0210278087154 L-1362.2101718577185,-1477.9346311311017 L-1361.622069015741,-1477.905739491135 L-1361.0339661737637,-1477.9346311311017 L-1360.4515270836444,-1478.0210278087154 L-1359.8803609522142,-1478.1640974767417 L-1359.3259684215504,-1478.3624622960672 L-1358.7936885947852,-1478.6142119050448 L-1358.2886476176234,-1478.9169218173197 L-1357.8157093107593,-1479.2676767709586 L-1357.3794283286218,-1479.6630988040156 L-1356.9840062955648,-1480.0993797861531 L-1356.6332513419259,-1480.5723180930172 L-1356.330541429651,-1481.077359070179 L-1356.0787918206734,-1481.6096388969443 L-1355.880427001348,-1482.164031427608 L-1355.7373573333216,-1482.7351975590382 L-1355.6509606557079,-1483.3176366491575 L-1355.622069015741,-1483.905739491135 Z" fill="#000" stroke="none" fill-rule="nonzero"/>
</svg>