<?xml version="1.0" encoding="UTF-8"?>
<svg xmlns="http://www.w3.org/2000/svg" viewBox="0 -40 159.982148 39.999998">
  <path d="M0.0274,-20.019835 L0,-40 L42.2508,-40 L84.5016,-40 L89.3377,-39.213223 L108.4355,-36.105785 L145.0282,-30.10248 L148.003933,-29.377919 L150.664653,-28.523967 L153.00456,-27.556586 L155.017855,-26.491736 L156.698737,-25.345378 L158.041407,-24.133472 L159.040066,-22.871979 L159.688913,-21.57686 L159.982148,-20.264076 L159.913972,-18.949588 L159.478586,-17.649355 L158.670189,-16.37934 L157.482982,-15.155502 L155.911164,-13.993803 L153.948937,-12.910202 L151.5905,-11.920662 L149.052575,-11.058369 L146.453,-10.3281 L139.466,-8.859505 L124.396,-6.029753 L103.709,-2.148762 L95.1876,-0.555373 L92.2284,-0.000002 L46.1416,-0.013225 L0.0685,-0.033059 L0.0274,-20.019835 Z M31.236,-8.661158 L31.236,-12.958679 L22.2625,-12.958679 L13.289,-12.958679 L13.289,-8.661158 L13.289,-4.363638 L22.2625,-4.363638 L31.236,-4.363638 L31.236,-8.661158 Z M134.5614,-23.874381 L134.5614,-23.874381 L122.78625,-24.009092 L110.8467,-23.900827 L107.985246,-23.33497 L106.866151,-22.90884 L105.954302,-22.407439 L105.249317,-21.845914 L104.750815,-21.239412 L104.458416,-20.603081 L104.371738,-19.952067 L104.490398,-19.301518 L104.814017,-18.666581 L105.342213,-18.062404 L106.074605,-17.504133 L107.01081,-17.006916 L108.150449,-16.5859 L111.0385,-16.033059 L122.63555,-15.922315 L134.2326,-16.03967 L137.062479,-16.578074 L138.182926,-16.989325 L139.106161,-17.475827 L139.831522,-18.022996 L140.358346,-18.616246 L140.685972,-19.240991 L140.813738,-19.882645 L140.74098,-20.526625 L140.467037,-21.158343 L139.991246,-21.763214 L139.312945,-22.326654 L138.431473,-22.834075 L137.346166,-23.270894 L134.5614,-23.874381 Z M31.2223,-30.876033 L31.2634,-35.173554 L22.2762,-35.186777 L13.289,-35.206612 L13.289,-30.895868 L13.289,-26.578513 L22.2351,-26.578513 L31.1675,-26.578513 L31.2223,-30.876033 Z" fill="#000" stroke="none" fill-rule="nonzero"/>
</svg>