<?xml version="1.0" encoding="UTF-8"?>
<svg xmlns="http://www.w3.org/2000/svg" viewBox="-135 -135 270 270">
  <path d="M135,3.3065463576978534e-14 L134.34993810074658,13.232313944490668 L132.40601285443609,26.337193472177375 L129.1869453238482,39.188431429352434 L124.72373688902368,51.6622633692872 L119.05937068702791,63.63855947150972 L112.24839766084361,75.0019814576463 L104.35641120396944,85.6430933620922 L95.45941546018389,95.45941546018393 L85.64309336209216,104.35641120396949 L75.00198145764625,112.24839766084364 L63.63855947150967,119.05937068702794 L51.66226336928715,124.7237368890237 L39.18843142935238,129.1869453238482 L26.337193472177322,132.4060128544361 L13.232313944490611,134.34993810074658 L-2.4799097682733902e-14,135 L-13.232313944490661,134.34993810074658 L-26.33719347217737,132.40601285443609 L-39.18843142935243,129.1869453238482 L-51.662263369287196,124.72373688902368 L-63.63855947150971,119.05937068702792 L-75.0019814576463,112.24839766084361 L-85.6430933620922,104.35641120396944 L-95.45941546018393,95.4594154601839 L-104.35641120396951,85.64309336209212 L-112.24839766084364,75.00198145764627 L-119.05937068702794,63.63855947150968 L-124.72373688902373,51.6622633692871 L-129.1869453238482,39.188431429352384 L-132.4060128544361,26.33719347217733 L-134.34993810074658,13.232313944490679 L-135,-1.6532731788489267e-14 L-134.34993810074658,-13.232313944490711 L-132.4060128544361,-26.33719347217736 L-129.1869453238482,-39.18843142935242 L-124.72373688902371,-51.66226336928714 L-119.05937068702792,-63.63855947150971 L-112.24839766084362,-75.0019814576463 L-104.3564112039695,-85.64309336209215 L-95.4594154601839,-95.45941546018392 L-85.64309336209213,-104.35641120396951 L-75.00198145764627,-112.24839766084364 L-63.63855947150969,-119.05937068702794 L-51.66226336928711,-124.72373688902371 L-39.18843142935239,-129.1869453238482 L-26.337193472177304,-132.4060128544361 L-13.232313944490688,-134.34993810074658 L8.266365894244634e-15,-135 L13.232313944490704,-134.34993810074658 L26.337193472177326,-132.4060128544361 L39.18843142935241,-129.1869453238482 L51.662263369287125,-124.72373688902371 L63.6385594715097,-119.05937068702792 L75.00198145764631,-112.24839766084361 L85.64309336209215,-104.3564112039695 L95.45941546018392,-95.4594154601839 L104.3564112039695,-85.64309336209215 L112.24839766084361,-75.0019814576463 L119.05937068702794,-63.63855947150968 L124.72373688902371,-51.66226336928712 L129.1869453238482,-39.18843142935241 L132.4060128544361,-26.337193472177315 L134.34993810074658,-13.23231394449068 L135,0 Z M-108,-1.41e-14 L-108.03370691329462,-0.6861199823069383 L-108.13450303717738,-1.365632254112912 L-108.30141764987454,-2.0319927407812504 L-108.53284327242099,-2.678784026555643 L-108.82655114956151,-3.299777157781998 L-109.17971271388218,-3.8889916311372295 L-109.58892682646083,-4.440752989145532 L-110.05025253169417,-4.949747468305846 L-110.55924701085448,-5.411073173539173 L-111.11100836886278,-5.820287286117831 L-111.70022284221801,-6.173448850438499 L-112.32121597344437,-6.467156727579021 L-112.96800725921877,-6.698582350125477 L-113.6343677458871,-6.865496962822627 L-114.31388001769308,-6.966293086705392 L-115,-7.000000000000014 L-115.68611998230692,-6.9662930867053925 L-116.3656322541129,-6.865496962822627 L-117.03199274078123,-6.698582350125477 L-117.67878402655563,-6.467156727579021 L-118.29977715778199,-6.1734488504385 L-118.88899163113722,-5.820287286117832 L-119.44075298914552,-5.411073173539174 L-119.94974746830583,-4.949747468305847 L-120.41107317353917,-4.440752989145532 L-120.82028728611782,-3.8889916311372295 L-121.17344885043849,-3.299777157781999 L-121.46715672757901,-2.6787840265556433 L-121.69858235012546,-2.031992740781251 L-121.86549696282262,-1.3656322541129144 L-121.96629308670538,-0.6861199823069398 L-122,-1.4957252759403147e-14 L-121.96629308670538,0.6861199823069101 L-121.86549696282262,1.3656322541128842 L-121.69858235012546,2.0319927407812206 L-121.46715672757901,2.6787840265556135 L-121.17344885043849,3.2997771577819694 L-120.82028728611782,3.8889916311371993 L-120.41107317353917,4.440752989145503 L-119.94974746830583,4.949747468305818 L-119.44075298914552,5.411073173539142 L-118.88899163113722,5.820287286117803 L-118.29977715778199,6.17344885043847 L-117.67878402655563,6.467156727578992 L-117.03199274078123,6.698582350125448 L-116.3656322541129,6.865496962822598 L-115.68611998230692,6.966293086705364 L-115,6.999999999999986 L-114.31388001769308,6.966293086705364 L-113.6343677458871,6.865496962822599 L-112.96800725921877,6.698582350125449 L-112.32121597344437,6.467156727578992 L-111.70022284221801,6.173448850438471 L-111.11100836886278,5.820287286117804 L-110.55924701085448,5.411073173539144 L-110.05025253169417,4.949747468305819 L-109.58892682646085,4.4407529891455075 L-109.17971271388218,3.888991631137201 L-108.82655114956151,3.2997771577819712 L-108.53284327242099,2.6787840265556184 L-108.30141764987454,2.0319927407812233 L-108.13450303717738,1.365632254112887 L-108.03370691329462,0.6861199823069094 L-108,-1.2385494481193706e-14 Z M7.000000000000007,-115 L6.966293086705385,-115.68611998230692 L6.86549696282262,-116.3656322541129 L6.698582350125469,-117.03199274078123 L6.467156727579014,-117.67878402655563 L6.173448850438493,-118.29977715778199 L5.820287286117824,-118.88899163113722 L5.411073173539166,-119.44075298914552 L4.94974746830584,-119.94974746830583 L4.440752989145525,-120.41107317353917 L3.8889916311372232,-120.82028728611782 L3.2997771577819917,-121.17344885043849 L2.678784026555636,-121.46715672757901 L2.0319927407812433,-121.69858235012546 L1.3656322541129053,-121.86549696282262 L0.6861199823069324,-121.96629308670538 L7.428626379701573e-15,-122 L-0.6861199823069175,-121.96629308670538 L-1.3656322541128902,-121.86549696282262 L-2.031992740781228,-121.69858235012546 L-2.678784026555621,-121.46715672757901 L-3.2997771577819766,-121.17344885043849 L-3.8889916311372064,-120.82028728611782 L-4.44075298914551,-120.41107317353917 L-4.949747468305825,-119.94974746830583 L-5.411073173539152,-119.44075298914552 L-5.820287286117811,-118.88899163113722 L-6.1734488504384775,-118.29977715778199 L-6.467156727579,-117.67878402655563 L-6.698582350125455,-117.03199274078123 L-6.865496962822606,-116.3656322541129 L-6.96629308670537,-115.68611998230692 L-6.999999999999993,-115 L-6.966293086705371,-114.31388001769308 L-6.865496962822606,-113.6343677458871 L-6.698582350125456,-112.96800725921877 L-6.467156727579001,-112.32121597344437 L-6.173448850438478,-111.70022284221801 L-5.820287286117811,-111.11100836886278 L-5.411073173539153,-110.55924701085448 L-4.9497474683058265,-110.05025253169417 L-4.440752989145515,-109.58892682646085 L-3.888991631137208,-109.17971271388218 L-3.299777157781978,-108.82655114956151 L-2.678784026555625,-108.53284327242099 L-2.03199274078123,-108.30141764987454 L-1.3656322541128936,-108.13450303717738 L-0.6861199823069162,-108.03370691329462 L5.7141208608952795e-15,-108 L0.6861199823069276,-108.03370691329462 L1.3656322541129051,-108.13450303717738 L2.0319927407812415,-108.30141764987454 L2.678784026555637,-108.53284327242099 L3.2997771577819903,-108.82655114956151 L3.88899163113722,-109.17971271388218 L4.440752989145526,-109.58892682646083 L4.949747468305839,-110.05025253169417 L5.4110731735391635,-110.55924701085448 L5.820287286117824,-111.11100836886278 L6.173448850438491,-111.70022284221801 L6.467156727579013,-112.32121597344437 L6.698582350125469,-112.96800725921877 L6.865496962822619,-113.6343677458871 L6.966293086705385,-114.31388001769308 L7.000000000000007,-115 Z M122,2.82e-14 L121.96629308670538,-0.686119982306896 L121.86549696282262,-1.3656322541128696 L121.69858235012546,-2.0319927407812077 L121.46715672757901,-2.6787840265556 L121.17344885043849,-3.2997771577819552 L120.82028728611782,-3.888991631137187 L120.41107317353917,-4.44075298914549 L119.94974746830583,-4.949747468305803 L119.44075298914552,-5.411073173539131 L118.88899163113722,-5.820287286117789 L118.29977715778199,-6.173448850438456 L117.67878402655563,-6.4671567275789785 L117.03199274078123,-6.6985823501254345 L116.3656322541129,-6.865496962822585 L115.68611998230692,-6.966293086705349 L115,-6.999999999999972 L114.31388001769308,-6.96629308670535 L113.6343677458871,-6.865496962822585 L112.96800725921877,-6.6985823501254345 L112.32121597344437,-6.4671567275789785 L111.70022284221801,-6.173448850438457 L111.11100836886278,-5.8202872861177894 L110.55924701085448,-5.4110731735391315 L110.05025253169417,-4.949747468305804 L109.58892682646083,-4.44075298914549 L109.17971271388218,-3.888991631137187 L108.82655114956151,-3.2997771577819566 L108.53284327242099,-2.6787840265556007 L108.30141764987454,-2.031992740781208 L108.13450303717738,-1.365632254112872 L108.03370691329462,-0.6861199823068975 L108,2.7342747240596853e-14 L108.03370691329462,0.6861199823069524 L108.13450303717738,1.3656322541129267 L108.30141764987454,2.0319927407812632 L108.53284327242099,2.678784026555656 L108.82655114956151,3.299777157782012 L109.17971271388218,3.888991631137242 L109.58892682646083,4.440752989145546 L110.05025253169417,4.94974746830586 L110.55924701085448,5.411073173539185 L111.11100836886278,5.820287286117845 L111.70022284221801,6.173448850438513 L112.32121597344437,6.4671567275790345 L112.96800725921877,6.69858235012549 L113.6343677458871,6.8654969628226405 L114.31388001769308,6.966293086705407 L115,7.000000000000028 L115.68611998230692,6.966293086705407 L116.3656322541129,6.865496962822641 L117.03199274078123,6.698582350125491 L117.67878402655563,6.4671567275790345 L118.29977715778199,6.173448850438514 L118.88899163113722,5.820287286117846 L119.44075298914552,5.411073173539187 L119.94974746830583,4.949747468305862 L120.41107317353915,4.44075298914555 L120.82028728611782,3.8889916311372437 L121.17344885043849,3.299777157782014 L121.46715672757901,2.678784026555661 L121.69858235012546,2.031992740781266 L121.86549696282262,1.3656322541129293 L121.96629308670538,0.6861199823069517 L122,2.9914505518806294e-14 Z M100,0 L99.5184726672197,-9.80171403295606 L98.07852804032305,-19.509032201612825 L95.69403357322088,-29.028467725446234 L92.38795325112868,-38.268343236508976 L88.1921264348355,-47.13967368259976 L83.14696123025452,-55.557023301960214 L77.3010453362737,-63.439328416364546 L70.71067811865476,-70.71067811865474 L63.439328416364546,-77.3010453362737 L55.55702330196023,-83.14696123025452 L47.13967368259978,-88.1921264348355 L38.26834323650898,-92.38795325112868 L29.028467725446234,-95.69403357322089 L19.509032201612833,-98.07852804032305 L9.801714032956077,-99.51847266721968 L6.123233995736766e-15,-100 L-9.801714032956065,-99.5184726672197 L-19.50903220161282,-98.07852804032305 L-29.028467725446216,-95.69403357322089 L-38.268343236508976,-92.38795325112868 L-47.13967368259977,-88.1921264348355 L-55.55702330196019,-83.14696123025455 L-63.43932841636454,-77.30104533627372 L-70.71067811865474,-70.71067811865476 L-77.3010453362737,-63.439328416364546 L-83.14696123025453,-55.557023301960214 L-88.1921264348355,-47.139673682599785 L-92.38795325112868,-38.26834323650899 L-95.69403357322088,-29.028467725446237 L-98.07852804032305,-19.50903220161286 L-99.51847266721968,-9.801714032956083 L-100,-1.2246467991473532e-14 L-99.5184726672197,9.80171403295606 L-98.07852804032305,19.509032201612836 L-95.69403357322089,29.028467725446212 L-92.38795325112868,38.26834323650897 L-88.1921264348355,47.13967368259976 L-83.14696123025455,55.55702330196019 L-77.30104533627372,63.439328416364525 L-70.71067811865477,70.71067811865474 L-63.439328416364596,77.30104533627366 L-55.557023301960214,83.14696123025452 L-47.139673682599785,88.1921264348355 L-38.26834323650903,92.38795325112865 L-29.028467725446244,95.69403357322088 L-19.509032201612868,98.07852804032304 L-9.801714032956045,99.5184726672197 L-1.8369701987210297e-14,100 L9.801714032956008,99.5184726672197 L19.50903220161283,98.07852804032305 L29.028467725446205,95.69403357322089 L38.268343236509,92.38795325112866 L47.139673682599756,88.1921264348355 L55.557023301960186,83.14696123025455 L63.43932841636456,77.30104533627369 L70.71067811865474,70.71067811865477 L77.30104533627366,63.439328416364596 L83.14696123025452,55.557023301960214 L88.19212643483549,47.13967368259979 L92.38795325112865,38.26834323650904 L95.69403357322088,29.028467725446248 L98.07852804032304,19.50903220161287 L99.5184726672197,9.80171403295605 L100,2.4492935982947064e-14 Z M6.999999999999979,115 L6.966293086705357,114.31388001769308 L6.865496962822592,113.6343677458871 L6.698582350125441,112.96800725921877 L6.467156727578986,112.32121597344437 L6.173448850438464,111.70022284221801 L5.820287286117796,111.11100836886278 L5.411073173539138,110.55924701085448 L4.949747468305811,110.05025253169417 L4.440752989145497,109.58892682646083 L3.888991631137195,109.17971271388218 L3.2997771577819632,108.82655114956151 L2.6787840265556078,108.53284327242099 L2.031992740781215,108.30141764987454 L1.3656322541128771,108.13450303717738 L0.6861199823069043,108.03370691329462 L-2.0671373620298427e-14,108 L-0.6861199823069456,108.03370691329462 L-1.3656322541129184,108.13450303717738 L-2.0319927407812566,108.30141764987454 L-2.6787840265556495,108.53284327242099 L-3.299777157782005,108.82655114956151 L-3.888991631137235,109.17971271388218 L-4.440752989145539,109.58892682646083 L-4.949747468305853,110.05025253169417 L-5.41107317353918,110.55924701085448 L-5.820287286117839,111.11100836886278 L-6.173448850438506,111.70022284221801 L-6.467156727579028,112.32121597344437 L-6.698582350125483,112.96800725921877 L-6.865496962822634,113.6343677458871 L-6.966293086705399,114.31388001769308 L-7.000000000000021,115 L-6.9662930867054,115.68611998230692 L-6.865496962822634,116.3656322541129 L-6.698582350125484,117.03199274078123 L-6.467156727579029,117.67878402655563 L-6.173448850438507,118.29977715778199 L-5.820287286117839,118.88899163113722 L-5.411073173539181,119.44075298914552 L-4.949747468305855,119.94974746830583 L-4.440752989145543,120.41107317353915 L-3.8889916311372366,120.82028728611782 L-3.2997771577820063,121.17344885043849 L-2.6787840265556535,121.46715672757901 L-2.0319927407812584,121.69858235012546 L-1.3656322541129218,121.86549696282262 L-0.6861199823069443,121.96629308670538 L-2.2385879139104722e-14,122 L0.6861199823068995,121.96629308670538 L1.365632254112877,121.86549696282262 L2.031992740781213,121.69858235012546 L2.6787840265556087,121.46715672757901 L3.299777157781962,121.17344885043849 L3.8889916311371917,120.82028728611782 L4.440752989145498,120.41107317353917 L4.9497474683058105,119.94974746830583 L5.411073173539135,119.44075298914552 L5.820287286117796,118.88899163113722 L6.173448850438462,118.29977715778199 L6.467156727578985,117.67878402655563 L6.698582350125441,117.03199274078123 L6.865496962822591,116.3656322541129 L6.966293086705357,115.68611998230692 L6.999999999999979,115 Z" fill="#000" stroke="none" fill-rule="nonzero"/>
</svg>