<?xml version="1.0" encoding="UTF-8"?>
<svg xmlns="http://www.w3.org/2000/svg" viewBox="-198.85619449020004 -155.35619449020004 397.7123889804001 310.7123889804001">
  <path d="M-143.5,-155.35619449019998 L-55.5,-155.3561944902 L-55.42146341344089,-155.35557765260825 L-55.34294620460935,-155.35372729202862 L-55.26446774645178,-155.3506438650098 L-55.186047402353424,-155.3463281323413 L-55.10770452136077,-155.34078115886558 L-55.02945843340743,-155.33400431321536 L-54.95132844454477,-155.32599926747585 L-54.87333383217848,-155.31676799677234 L-54.79549384031209,-155.30631277878274 L-54.71782767479885,-155.29463619317565 L-54.64035449860295,-155.28174112097383 L-54.56309342707138,-155.2676307438434 L-54.486063523217446,-155.25230854330877 L-54.409283793017295,-155.2357782998937 L-54.33277318072048,-155.21804409218834 L-54.25655056417574,-155.1991102958431 L-54.18063475017315,-155.17898158248894 L-54.105044469803865,-155.15766291858466 L-54.029798373838496,-155.1351595641916 L-53.95491502812528,-155.11147707167572 L-53.880412909009266,-155.0866212843377 L-53.80631039877356,-155.06059833497108 L-53.732625781103735,-155.0334146443493 L-53.65937723657663,-155.00507691964123 L-53.58658283817457,-154.9755921527564 L-53.51426054682612,-154.94496761861987 L-53.44242820697448,-154.91321087337718 L-53.37110354217466,-154.88032975253006 L-53.30030415072045,-154.84633236900305 L-53.230047501302295,-154.8112271111418 L-53.16035092869716,-154.77502264064344 L-53.09123162949145,-154.73772789041928 L-53.02270665783799,-154.69935206239091 L-52.95479292124818,-154.65990462521967 L-52.887507176420286,-154.61939531197044 L-52.82086602510505,-154.57783411771004 L-52.75488591000938,-154.53523129704132 L-52.689583110739385,-154.4915973615728 L-52.62497373978364,-154.44694307732507 L-52.56107373853767,-154.4012794620747 L-52.497898873370616,-154.35461778263542 L-52.43546473173515,-154.3069695520784 L-52.37378671832151,-154.25834652689161 L-52.31288005125659,-154.2087607040789 L-52.25275975834912,-154.15822431820013 L-52.19344067338178,-154.10674983835227 L-52.134937432451174,-154.05434996509302 L-52.077264470356596,-154.00103762730703 L-52.02043601703847,-153.94682597901593 L-51.964466094067305,-153.89172839613272 L-51.9093685111841,-153.83575847316155 L-51.85515686289298,-153.77893001984341 L-51.80184452510699,-153.72125705774883 L-51.749444651847746,-153.66275381681822 L-51.69797017199989,-153.60343473185088 L-51.6474337861211,-153.5433144389434 L-51.597847963308396,-153.4824077718785 L-51.5492249381216,-153.42072975846486 L-51.501576707564595,-153.3582956168294 L-51.45491502812531,-153.29512075166235 L-51.40925141287493,-153.23122075041638 L-51.36459712862724,-153.16661137946062 L-51.3209631931587,-153.10130858019065 L-51.27836037248997,-153.03532846509498 L-51.23679917822959,-152.96868731377972 L-51.19628986498033,-152.90140156895183 L-51.156842427809096,-152.833487832362 L-51.11846659978073,-152.76496286070855 L-51.08117184955658,-152.69584356150284 L-51.044967379058214,-152.62614698889772 L-51.009862121196974,-152.55589033947956 L-50.97586473766995,-152.48509094802534 L-50.94298361682283,-152.41376628322553 L-50.91122687158015,-152.3419339433739 L-50.88060233744362,-152.26961165202545 L-50.8511175705588,-152.19681725362338 L-50.82277984585072,-152.12356870909628 L-50.79559615522893,-152.04988409142643 L-50.76957320586233,-151.97578158119074 L-50.74471741852429,-151.90127946207474 L-50.7210349260084,-151.8263961163615 L-50.69853157161534,-151.75115002039615 L-50.677212907711066,-151.67555974002687 L-50.6570841943569,-151.59964392602427 L-50.638150398011675,-151.52342130947952 L-50.620416190306315,-151.44691069718272 L-50.603885946891225,-151.37013096698257 L-50.58856374635661,-151.29310106312863 L-50.574453369226184,-151.21583999159705 L-50.56155829702437,-151.13836681540116 L-50.54988171141727,-151.0607006498879 L-50.53942649342767,-150.98286065802154 L-50.53019522272416,-150.90486604565524 L-50.52219017698466,-150.82673605679258 L-50.515413331334415,-150.74848996883924 L-50.5098663578587,-150.67014708784657 L-50.50555062519021,-150.5917267437482 L-50.5024671981714,-150.51324828559066 L-50.50061683759176,-150.4347310767591 L-50.50000000000006,-150.3561944902 L-50.5,-147.3561944902 L50.5,-147.3561944902 L50.5,-150.3561944902 L50.500616837591686,-150.43473107675916 L50.50246719817133,-150.5132482855907 L50.50555062519014,-150.59172674374827 L50.50986635785863,-150.67014708784663 L50.51541333133435,-150.74848996883927 L50.52219017698459,-150.8267360567926 L50.53019522272409,-150.90486604565527 L50.539426493427605,-150.98286065802156 L50.5498817114172,-151.06070064988796 L50.561558297024305,-151.1383668154012 L50.57445336922612,-151.2158399915971 L50.58856374635655,-151.2931010631287 L50.60388594689117,-151.3701309669826 L50.62041619030626,-151.44691069718277 L50.63815039801161,-151.52342130947957 L50.65708419435684,-151.59964392602433 L50.67721290771101,-151.67555974002693 L50.698531571615284,-151.7511500203962 L50.72103492600834,-151.82639611636156 L50.74471741852423,-151.9012794620748 L50.76957320586227,-151.9757815811908 L50.79559615522887,-152.0498840914265 L50.82277984585066,-152.12356870909633 L50.85111757055874,-152.19681725362344 L50.88060233744356,-152.2696116520255 L50.9112268715801,-152.34193394337396 L50.94298361682277,-152.41376628322558 L50.9758647376699,-152.4850909480254 L51.009862121196925,-152.55589033947962 L51.044967379058164,-152.62614698889777 L51.08117184955653,-152.6958435615029 L51.11846659978068,-152.7649628607086 L51.156842427809046,-152.8334878323621 L51.19628986498029,-152.9014015689519 L51.23679917822954,-152.96868731377978 L51.27836037248993,-153.03532846509503 L51.320963193158654,-153.1013085801907 L51.364597128627196,-153.1666113794607 L51.40925141287489,-153.23122075041644 L51.45491502812527,-153.2951207516624 L51.50157670756455,-153.35829561682945 L51.549224938121554,-153.42072975846492 L51.597847963308354,-153.48240777187857 L51.647433786121056,-153.5433144389435 L51.69797017199985,-153.60343473185097 L51.74944465184771,-153.6627538168183 L51.80184452510696,-153.72125705774891 L51.85515686289295,-153.77893001984347 L51.90936851118406,-153.8357584731616 L51.96446609406727,-153.89172839613278 L52.020436017038435,-153.94682597901598 L52.07726447035656,-154.00103762730708 L52.13493743245114,-154.05434996509308 L52.193440673381744,-154.10674983835233 L52.252759758349086,-154.15822431820018 L52.312880051256556,-154.20876070407897 L52.37378671832148,-154.25834652689167 L52.435464731735124,-154.3069695520785 L52.49789887337059,-154.35461778263547 L52.561073738537644,-154.40127946207477 L52.62497373978361,-154.44694307732516 L52.689583110739356,-154.49159736157284 L52.75488591000935,-154.53523129704138 L52.820866025105026,-154.5778341177101 L52.887507176420264,-154.6193953119705 L52.95479292124815,-154.65990462521975 L53.02270665783797,-154.699352062391 L53.09123162949143,-154.73772789041934 L53.16035092869714,-154.7750226406435 L53.23004750130227,-154.81122711114187 L53.30030415072043,-154.8463323690031 L53.371103542174644,-154.88032975253012 L53.44242820697446,-154.91321087337727 L53.5142605468261,-154.94496761861993 L53.58658283817456,-154.97559215275646 L53.65937723657662,-155.00507691964128 L53.73262578110372,-155.03341464434936 L53.80631039877355,-155.06059833497116 L53.88041290900926,-155.08662128433775 L53.95491502812527,-155.1114770716758 L54.02979837383848,-155.13515956419167 L54.10504446980386,-155.15766291858475 L54.18063475017314,-155.17898158248903 L54.25655056417573,-155.19911029584318 L54.33277318072048,-155.21804409218842 L54.40928379301729,-155.23577829989375 L54.48606352321744,-155.25230854330886 L54.56309342707138,-155.26763074384348 L54.64035449860295,-155.2817411209739 L54.71782767479885,-155.2946361931757 L54.79549384031209,-155.30631277878283 L54.87333383217848,-155.31676799677243 L54.95132844454478,-155.32599926747594 L55.02945843340743,-155.33400431321542 L55.10770452136077,-155.34078115886567 L55.18604740235343,-155.34632813234137 L55.264467746451786,-155.35064386500989 L55.34294620460936,-155.35372729202868 L55.4214634134409,-155.35557765260833 L55.5,-155.35619449020004 L143.5,-155.3561944902 L143.57853658655912,-155.35557765260828 L143.65705379539065,-155.35372729202865 L143.73553225354823,-155.35064386500983 L143.81395259764656,-155.34632813234134 L143.89229547863923,-155.3407811588656 L143.97054156659257,-155.3340043132154 L144.04867155545523,-155.32599926747588 L144.12666616782153,-155.31676799677237 L144.20450615968792,-155.30631277878277 L144.28217232520115,-155.29463619317568 L144.35964550139704,-155.28174112097386 L144.43690657292862,-155.26763074384343 L144.51393647678256,-155.2523085433088 L144.5907162069827,-155.23577829989372 L144.66722681927953,-155.21804409218836 L144.74344943582426,-155.19911029584313 L144.81936524982686,-155.17898158248897 L144.89495553019614,-155.1576629185847 L144.97020162616153,-155.13515956419164 L145.04508497187473,-155.11147707167575 L145.11958709099073,-155.0866212843377 L145.19368960122645,-155.0605983349711 L145.26737421889626,-155.0334146443493 L145.34062276342337,-155.00507691964125 L145.41341716182544,-154.9755921527564 L145.4857394531739,-154.9449676186199 L145.55757179302555,-154.9132108733772 L145.62889645782536,-154.8803297525301 L145.69969584927955,-154.84633236900305 L145.7699524986977,-154.81122711114182 L145.83964907130286,-154.77502264064344 L145.90876837050857,-154.7377278904193 L145.97729334216203,-154.69935206239094 L146.04520707875184,-154.6599046252197 L146.11249282357971,-154.61939531197044 L146.17913397489497,-154.57783411771007 L146.24511408999064,-154.53523129704135 L146.31041688926064,-154.4915973615728 L146.37502626021637,-154.4469430773251 L146.43892626146234,-154.40127946207474 L146.5021011266294,-154.35461778263544 L146.56453526826485,-154.30696955207844 L146.6262132816785,-154.25834652689164 L146.68711994874343,-154.20876070407894 L146.7472402416509,-154.15822431820015 L146.80655932661824,-154.1067498383523 L146.86506256754885,-154.05434996509305 L146.92273552964343,-154.00103762730706 L146.97956398296154,-153.94682597901593 L147.0355339059327,-153.89172839613272 L147.09063148881592,-153.83575847316158 L147.14484313710705,-153.77893001984344 L147.198155474893,-153.72125705774886 L147.25055534815226,-153.66275381681825 L147.30202982800014,-153.6034347318509 L147.35256621387893,-153.54331443894344 L147.40215203669163,-153.4824077718785 L147.45077506187843,-153.4207297584649 L147.49842329243543,-153.35829561682942 L147.5450849718747,-153.29512075166235 L147.5907485871251,-153.23122075041638 L147.63540287137278,-153.16661137946065 L147.67903680684134,-153.10130858019065 L147.72163962751006,-153.03532846509498 L147.76320082177043,-152.96868731377975 L147.80371013501968,-152.90140156895185 L147.84315757219093,-152.83348783236204 L147.8815334002193,-152.76496286070858 L147.91882815044343,-152.69584356150287 L147.9550326209418,-152.62614698889774 L147.99013787880304,-152.55589033947956 L148.02413526233008,-152.48509094802537 L148.0570163831772,-152.41376628322556 L148.0887731284199,-152.3419339433739 L148.1193976625564,-152.26961165202545 L148.14888242944124,-152.19681725362338 L148.1772201541493,-152.12356870909628 L148.2044038447711,-152.04988409142646 L148.2304267941377,-151.97578158119074 L148.25528258147574,-151.90127946207474 L148.27896507399163,-151.82639611636154 L148.30146842838468,-151.75115002039615 L148.32278709228896,-151.67555974002687 L148.34291580564312,-151.59964392602427 L148.36184960198835,-151.52342130947955 L148.3795838096937,-151.44691069718272 L148.3961140531088,-151.37013096698257 L148.41143625364342,-151.29310106312863 L148.42554663077385,-151.21583999159705 L148.43844170297567,-151.13836681540116 L148.45011828858276,-151.0607006498879 L148.46057350657236,-150.98286065802154 L148.46980477727587,-150.90486604565524 L148.47780982301538,-150.82673605679258 L148.4845866686656,-150.74848996883924 L148.49013364214133,-150.67014708784657 L148.49444937480982,-150.5917267437482 L148.49753280182864,-150.51324828559066 L148.49938316240826,-150.4347310767591 L148.49999999999997,-150.3561944902 L148.5,-105 L193.8561944902,-105 L193.93473107675914,-104.99938316240834 L194.01324828559066,-104.99753280182868 L194.09172674374824,-104.99444937480988 L194.1701470878466,-104.99013364214139 L194.24848996883924,-104.98458666866567 L194.32673605679258,-104.97780982301543 L194.40486604565524,-104.96980477727593 L194.48286065802154,-104.96057350657242 L194.56070064988793,-104.95011828858281 L194.63836681540118,-104.93844170297572 L194.71583999159708,-104.9255466307739 L194.79310106312863,-104.91143625364347 L194.87013096698257,-104.89611405310886 L194.94691069718274,-104.87958380969377 L195.02342130947955,-104.86184960198841 L195.0996439260243,-104.84291580564319 L195.1755597400269,-104.82278709228902 L195.25115002039618,-104.80146842838474 L195.32639611636154,-104.77896507399167 L195.40127946207477,-104.7552825814758 L195.47578158119077,-104.73042679413776 L195.5498840914265,-104.70440384477115 L195.6235687090963,-104.67722015414937 L195.6968172536234,-104.64888242944129 L195.76961165202547,-104.61939766255647 L195.84193394337393,-104.58877312841993 L195.91376628322556,-104.55701638317726 L195.98509094802537,-104.52413526233012 L196.0558903394796,-104.4901378788031 L196.12614698889774,-104.45503262094186 L196.1958435615029,-104.41882815044349 L196.2649628607086,-104.38153340021934 L196.33348783236207,-104.34315757219099 L196.40140156895188,-104.30371013501974 L196.46868731377975,-104.26320082177048 L196.535328465095,-104.2216396275101 L196.60130858019068,-104.17903680684138 L196.66661137946068,-104.13540287137283 L196.7312207504164,-104.09074858712515 L196.79512075166238,-104.04508497187476 L196.85829561682945,-103.99842329243548 L196.92072975846492,-103.95077506187847 L196.98240777187854,-103.90215203669167 L197.04331443894347,-103.85256621387897 L197.10343473185094,-103.80202982800017 L197.16275381681828,-103.75055534815232 L197.2212570577489,-103.69815547489307 L197.27893001984347,-103.64484313710707 L197.3357584731616,-103.59063148881597 L197.39172839613278,-103.53553390593277 L197.44682597901598,-103.4795639829616 L197.50103762730708,-103.42273552964346 L197.55434996509308,-103.36506256754889 L197.60674983835233,-103.30655932661828 L197.65822431820018,-103.24724024165094 L197.70876070407897,-103.18711994874347 L197.75834652689167,-103.12621328167855 L197.80696955207847,-103.0645352682649 L197.85461778263547,-103.00210112662944 L197.90127946207477,-102.93892626146238 L197.94694307732516,-102.87502626021642 L197.99159736157284,-102.81041688926067 L198.03523129704138,-102.74511408999068 L198.0778341177101,-102.679133974895 L198.1193953119705,-102.61249282357976 L198.15990462521975,-102.54520707875187 L198.199352062391,-102.47729334216206 L198.23772789041936,-102.4087683705086 L198.2750226406435,-102.33964907130289 L198.31122711114187,-102.26995249869775 L198.3463323690031,-102.19969584927959 L198.38032975253014,-102.12889645782538 L198.41321087337727,-102.05757179302556 L198.44496761861996,-101.98573945317392 L198.47559215275646,-101.91341716182546 L198.50507691964128,-101.8406227634234 L198.53341464434936,-101.7673742188963 L198.56059833497116,-101.69368960122647 L198.58662128433775,-101.61958709099076 L198.6114770716758,-101.54508497187474 L198.6351595641917,-101.47020162616153 L198.65766291858475,-101.39495553019616 L198.67898158248903,-101.31936524982687 L198.69911029584318,-101.24344943582427 L198.71804409218842,-101.16722681927953 L198.73577829989378,-101.09071620698272 L198.75230854330886,-101.01393647678256 L198.76763074384348,-100.93690657292863 L198.78174112097392,-100.85964550139705 L198.79463619317573,-100.78217232520116 L198.80631277878283,-100.70450615968792 L198.81676799677243,-100.62666616782153 L198.82599926747594,-100.54867155545523 L198.83400431321544,-100.47054156659257 L198.84078115886567,-100.39229547863923 L198.8463281323414,-100.31395259764656 L198.85064386500989,-100.23553225354821 L198.8537272920287,-100.15705379539064 L198.85557765260833,-100.07853658655911 L198.85619449020004,-100 L198.8561944902,100 L198.85557765260825,100.07853658655915 L198.85372729202862,100.15705379539068 L198.8506438650098,100.23553225354826 L198.8463281323413,100.3139525976466 L198.84078115886558,100.39229547863927 L198.83400431321536,100.47054156659262 L198.82599926747585,100.54867155545526 L198.81676799677234,100.62666616782155 L198.80631277878274,100.70450615968795 L198.79463619317565,100.78217232520119 L198.7817411209738,100.85964550139708 L198.7676307438434,100.93690657292865 L198.75230854330877,101.01393647678259 L198.7357782998937,101.09071620698273 L198.71804409218834,101.16722681927955 L198.6991102958431,101.2434494358243 L198.67898158248894,101.31936524982689 L198.65766291858466,101.39495553019617 L198.63515956419158,101.47020162616154 L198.61147707167572,101.54508497187476 L198.58662128433767,101.61958709099076 L198.56059833497108,101.69368960122647 L198.53341464434928,101.7673742188963 L198.5050769196412,101.8406227634234 L198.47559215275638,101.91341716182546 L198.44496761861984,101.9857394531739 L198.41321087337718,102.05757179302555 L198.38032975253003,102.12889645782536 L198.34633236900302,102.19969584927958 L198.3112271111418,102.26995249869773 L198.2750226406434,102.33964907130287 L198.23772789041925,102.40876837050858 L198.19935206239091,102.47729334216204 L198.15990462521967,102.54520707875186 L198.1193953119704,102.61249282357974 L198.07783411771,102.67913397489498 L198.0352312970413,102.74511408999065 L197.99159736157276,102.81041688926065 L197.94694307732507,102.87502626021639 L197.90127946207468,102.93892626146236 L197.85461778263542,103.00210112662941 L197.8069695520784,103.06453526826486 L197.7583465268916,103.12621328167852 L197.70876070407888,103.18711994874343 L197.6582243182001,103.2472402416509 L197.60674983835224,103.30655932661824 L197.554349965093,103.36506256754885 L197.501037627307,103.42273552964342 L197.4468259790159,103.47956398296155 L197.3917283961327,103.53553390593271 L197.33575847316152,103.59063148881592 L197.2789300198434,103.64484313710703 L197.22125705774883,103.69815547489303 L197.16275381681822,103.75055534815228 L197.10343473185088,103.80202982800013 L197.0433144389434,103.85256621387892 L196.98240777187848,103.90215203669162 L196.92072975846483,103.95077506187842 L196.8582956168294,103.99842329243542 L196.79512075166232,104.0450849718747 L196.73122075041636,104.09074858712508 L196.66661137946062,104.13540287137278 L196.60130858019062,104.17903680684131 L196.53532846509495,104.22163962751003 L196.46868731377972,104.26320082177043 L196.40140156895183,104.30371013501968 L196.333487832362,104.34315757219092 L196.26496286070855,104.38153340021927 L196.19584356150284,104.41882815044342 L196.12614698889772,104.4550326209418 L196.05589033947956,104.49013787880304 L195.98509094802534,104.52413526233005 L195.91376628322553,104.55701638317719 L195.84193394337387,104.58877312841986 L195.76961165202542,104.61939766255638 L195.69681725362338,104.64888242944122 L195.62356870909628,104.67722015414928 L195.54988409142643,104.70440384477108 L195.47578158119072,104.73042679413767 L195.4012794620747,104.75528258147571 L195.3263961163615,104.7789650739916 L195.25115002039612,104.80146842838467 L195.17555974002684,104.82278709228893 L195.09964392602427,104.8429158056431 L195.02342130947952,104.86184960198833 L194.94691069718272,104.87958380969368 L194.87013096698254,104.89611405310878 L194.79310106312863,104.91143625364339 L194.71583999159705,104.92554663077381 L194.63836681540116,104.93844170297564 L194.5607006498879,104.95011828858273 L194.4828606580215,104.96057350657233 L194.40486604565524,104.96980477727584 L194.32673605679258,104.97780982301535 L194.24848996883924,104.98458666866559 L194.17014708784657,104.9901336421413 L194.0917267437482,104.99444937480979 L194.01324828559063,104.9975328018286 L193.9347310767591,104.99938316240825 L193.8561944902,104.99999999999994 L148.5,105 L148.5,150.3561944902 L148.49938316240826,150.43473107675916 L148.49753280182864,150.5132482855907 L148.49444937480982,150.59172674374827 L148.49013364214133,150.67014708784663 L148.4845866686656,150.74848996883927 L148.47780982301538,150.8267360567926 L148.46980477727587,150.90486604565527 L148.46057350657236,150.98286065802156 L148.45011828858276,151.06070064988796 L148.43844170297567,151.1383668154012 L148.42554663077382,151.2158399915971 L148.41143625364342,151.29310106312866 L148.3961140531088,151.3701309669826 L148.3795838096937,151.44691069718274 L148.36184960198835,151.52342130947957 L148.34291580564312,151.59964392602433 L148.32278709228896,151.6755597400269 L148.30146842838468,151.75115002039618 L148.2789650739916,151.82639611636156 L148.25528258147574,151.90127946207477 L148.23042679413768,151.97578158119077 L148.2044038447711,152.0498840914265 L148.1772201541493,152.12356870909633 L148.14888242944122,152.19681725362344 L148.1193976625564,152.26961165202547 L148.08877312841986,152.34193394337393 L148.0570163831772,152.41376628322558 L148.02413526233005,152.4850909480254 L147.99013787880304,152.55589033947962 L147.9550326209418,152.62614698889777 L147.91882815044343,152.6958435615029 L147.88153340021927,152.7649628607086 L147.8431575721909,152.83348783236207 L147.80371013501968,152.90140156895188 L147.76320082177043,152.96868731377975 L147.72163962751003,153.035328465095 L147.6790368068413,153.10130858019068 L147.63540287137278,153.16661137946068 L147.5907485871251,153.2312207504164 L147.5450849718747,153.29512075166238 L147.4984232924354,153.35829561682942 L147.4507750618784,153.4207297584649 L147.4021520366916,153.48240777187854 L147.3525662138789,153.54331443894347 L147.30202982800012,153.60343473185094 L147.25055534815226,153.66275381681828 L147.198155474893,153.7212570577489 L147.14484313710702,153.77893001984344 L147.09063148881592,153.83575847316158 L147.0355339059327,153.89172839613275 L146.97956398296154,153.94682597901595 L146.9227355296434,154.00103762730706 L146.86506256754882,154.05434996509305 L146.8065593266182,154.1067498383523 L146.74724024165087,154.15822431820015 L146.6871199487434,154.20876070407894 L146.6262132816785,154.25834652689164 L146.56453526826485,154.30696955207844 L146.50210112662938,154.35461778263544 L146.43892626146234,154.40127946207474 L146.37502626021637,154.4469430773251 L146.3104168892606,154.49159736157281 L146.24511408999064,154.53523129704135 L146.17913397489497,154.57783411771007 L146.11249282357971,154.61939531197046 L146.04520707875182,154.65990462521972 L145.977293342162,154.69935206239094 L145.90876837050854,154.7377278904193 L145.83964907130283,154.77502264064347 L145.7699524986977,154.81122711114182 L145.69969584927955,154.84633236900308 L145.62889645782533,154.8803297525301 L145.55757179302552,154.9132108733772 L145.4857394531739,154.9449676186199 L145.41341716182544,154.97559215275643 L145.34062276342337,155.00507691964125 L145.26737421889626,155.03341464434934 L145.19368960122642,155.0605983349711 L145.11958709099073,155.08662128433772 L145.04508497187473,155.11147707167575 L144.9702016261615,155.13515956419164 L144.89495553019614,155.1576629185847 L144.81936524982686,155.17898158248897 L144.74344943582426,155.19911029584313 L144.6672268192795,155.21804409218836 L144.5907162069827,155.23577829989372 L144.51393647678256,155.2523085433088 L144.43690657292862,155.26763074384343 L144.35964550139704,155.28174112097386 L144.28217232520115,155.29463619317568 L144.2045061596879,155.30631277878277 L144.12666616782153,155.31676799677237 L144.04867155545523,155.32599926747588 L143.97054156659257,155.3340043132154 L143.89229547863923,155.3407811588656 L143.81395259764656,155.34632813234134 L143.7355322535482,155.35064386500983 L143.65705379539065,155.35372729202865 L143.5785365865591,155.35557765260828 L143.5,155.35619449019998 L-143.5,155.3561944902 L-143.57853658655915,155.35557765260828 L-143.65705379539068,155.35372729202865 L-143.73553225354826,155.35064386500983 L-143.81395259764662,155.34632813234134 L-143.89229547863926,155.3407811588656 L-143.9705415665926,155.3340043132154 L-144.04867155545526,155.32599926747588 L-144.12666616782155,155.31676799677237 L-144.20450615968795,155.30631277878277 L-144.2821723252012,155.29463619317568 L-144.3596455013971,155.28174112097383 L-144.43690657292865,155.26763074384343 L-144.5139364767826,155.2523085433088 L-144.59071620698273,155.23577829989372 L-144.66722681927956,155.21804409218836 L-144.74344943582432,155.19911029584313 L-144.8193652498269,155.17898158248897 L-144.89495553019617,155.1576629185847 L-144.97020162616155,155.1351595641916 L-145.04508497187476,155.11147707167575 L-145.11958709099076,155.0866212843377 L-145.19368960122648,155.0605983349711 L-145.26737421889632,155.0334146443493 L-145.34062276342343,155.00507691964123 L-145.41341716182546,154.9755921527564 L-145.48573945317392,154.94496761861987 L-145.55757179302557,154.9132108733772 L-145.6288964578254,154.88032975253006 L-145.69969584927958,154.84633236900305 L-145.76995249869776,154.81122711114182 L-145.8396490713029,154.77502264064344 L-145.9087683705086,154.73772789041928 L-145.97729334216206,154.69935206239091 L-146.04520707875187,154.6599046252197 L-146.11249282357974,154.61939531197044 L-146.179133974895,154.57783411771004 L-146.24511408999066,154.53523129704132 L-146.31041688926067,154.4915973615728 L-146.3750262602164,154.4469430773251 L-146.43892626146237,154.4012794620747 L-146.5021011266294,154.35461778263542 L-146.56453526826488,154.3069695520784 L-146.62621328167853,154.25834652689161 L-146.68711994874346,154.2087607040789 L-146.74724024165093,154.15822431820013 L-146.80655932661827,154.10674983835227 L-146.86506256754888,154.05434996509302 L-146.92273552964343,154.00103762730703 L-146.97956398296157,153.94682597901593 L-147.03553390593274,153.89172839613272 L-147.09063148881594,153.83575847316155 L-147.14484313710705,153.77893001984341 L-147.19815547489304,153.72125705774883 L-147.2505553481523,153.66275381681822 L-147.30202982800014,153.60343473185088 L-147.35256621387893,153.5433144389434 L-147.40215203669163,153.4824077718785 L-147.45077506187843,153.42072975846486 L-147.49842329243543,153.3582956168294 L-147.54508497187473,153.29512075166235 L-147.5907485871251,153.23122075041638 L-147.6354028713728,153.16661137946062 L-147.67903680684134,153.10130858019065 L-147.72163962751006,153.03532846509498 L-147.76320082177045,152.96868731377972 L-147.8037101350197,152.90140156895183 L-147.84315757219093,152.833487832362 L-147.8815334002193,152.76496286070855 L-147.91882815044346,152.69584356150284 L-147.9550326209418,152.62614698889772 L-147.99013787880307,152.55589033947956 L-148.02413526233008,152.48509094802534 L-148.0570163831772,152.41376628322553 L-148.0887731284199,152.3419339433739 L-148.11939766255642,152.26961165202545 L-148.14888242944124,152.19681725362338 L-148.17722015414932,152.12356870909628 L-148.2044038447711,152.04988409142643 L-148.2304267941377,151.97578158119074 L-148.25528258147574,151.90127946207474 L-148.27896507399163,151.8263961163615 L-148.30146842838468,151.75115002039615 L-148.32278709228896,151.67555974002687 L-148.34291580564314,151.59964392602427 L-148.36184960198835,151.52342130947952 L-148.3795838096937,151.44691069718272 L-148.3961140531088,151.37013096698257 L-148.41143625364342,151.29310106312863 L-148.42554663077385,151.21583999159705 L-148.43844170297567,151.13836681540116 L-148.45011828858276,151.0607006498879 L-148.46057350657236,150.98286065802154 L-148.46980477727587,150.90486604565524 L-148.47780982301538,150.82673605679258 L-148.4845866686656,150.74848996883924 L-148.49013364214133,150.67014708784657 L-148.49444937480982,150.5917267437482 L-148.49753280182864,150.51324828559066 L-148.49938316240826,150.4347310767591 L-148.49999999999997,150.3561944902 L-148.5,105 L-193.8561944902,105 L-193.93473107675916,104.99938316240834 L-194.0132482855907,104.99753280182868 L-194.09172674374827,104.99444937480988 L-194.17014708784663,104.99013364214139 L-194.2484899688393,104.98458666866567 L-194.32673605679264,104.97780982301542 L-194.40486604565527,104.96980477727593 L-194.48286065802156,104.96057350657242 L-194.56070064988796,104.95011828858281 L-194.6383668154012,104.93844170297571 L-194.7158399915971,104.9255466307739 L-194.7931010631287,104.91143625364346 L-194.87013096698263,104.89611405310885 L-194.94691069718277,104.87958380969376 L-195.02342130947957,104.8618496019884 L-195.09964392602433,104.84291580564317 L-195.17555974002693,104.822787092289 L-195.2511500203962,104.80146842838474 L-195.32639611636156,104.77896507399167 L-195.4012794620748,104.75528258147578 L-195.4757815811908,104.73042679413774 L-195.54988409142652,104.70440384477114 L-195.62356870909633,104.67722015414935 L-195.69681725362344,104.64888242944127 L-195.7696116520255,104.61939766255645 L-195.84193394337396,104.58877312841992 L-195.91376628322558,104.55701638317724 L-195.9850909480254,104.5241352623301 L-196.05589033947962,104.4901378788031 L-196.12614698889777,104.45503262094185 L-196.19584356150293,104.41882815044347 L-196.26496286070864,104.38153340021933 L-196.3334878323621,104.34315757219096 L-196.4014015689519,104.30371013501973 L-196.46868731377978,104.26320082177047 L-196.53532846509503,104.22163962751009 L-196.6013085801907,104.17903680684135 L-196.6666113794607,104.13540287137282 L-196.73122075041644,104.09074858712512 L-196.7951207516624,104.04508497187474 L-196.85829561682948,103.99842329243546 L-196.92072975846494,103.95077506187846 L-196.98240777187857,103.90215203669166 L-197.0433144389435,103.85256621387896 L-197.10343473185097,103.80202982800016 L-197.1627538168183,103.7505553481523 L-197.22125705774891,103.69815547489306 L-197.2789300198435,103.64484313710706 L-197.3357584731616,103.59063148881594 L-197.39172839613278,103.53553390593274 L-197.44682597901598,103.47956398296158 L-197.5010376273071,103.42273552964345 L-197.55434996509308,103.36506256754888 L-197.60674983835236,103.30655932661826 L-197.6582243182002,103.24724024165093 L-197.708760704079,103.18711994874346 L-197.7583465268917,103.12621328167853 L-197.8069695520785,103.06453526826489 L-197.8546177826355,103.00210112662943 L-197.90127946207477,102.93892626146237 L-197.94694307732516,102.8750262602164 L-197.99159736157284,102.81041688926065 L-198.0352312970414,102.74511408999066 L-198.07783411771013,102.67913397489498 L-198.1193953119705,102.61249282357974 L-198.15990462521975,102.54520707875186 L-198.199352062391,102.47729334216204 L-198.23772789041936,102.40876837050858 L-198.2750226406435,102.33964907130287 L-198.31122711114187,102.26995249869773 L-198.3463323690031,102.19969584927958 L-198.38032975253014,102.12889645782536 L-198.41321087337727,102.05757179302555 L-198.44496761861996,101.9857394531739 L-198.47559215275646,101.91341716182545 L-198.5050769196413,101.84062276342338 L-198.53341464434936,101.76737421889628 L-198.56059833497116,101.69368960122645 L-198.58662128433778,101.61958709099075 L-198.6114770716758,101.54508497187474 L-198.6351595641917,101.47020162616153 L-198.65766291858475,101.39495553019614 L-198.67898158248903,101.31936524982686 L-198.69911029584318,101.24344943582427 L-198.71804409218842,101.16722681927952 L-198.73577829989378,101.0907162069827 L-198.75230854330886,101.01393647678256 L-198.76763074384348,100.93690657292862 L-198.78174112097392,100.85964550139705 L-198.79463619317573,100.78217232520116 L-198.80631277878283,100.70450615968791 L-198.81676799677243,100.62666616782153 L-198.82599926747594,100.54867155545523 L-198.83400431321544,100.47054156659257 L-198.84078115886567,100.39229547863923 L-198.8463281323414,100.31395259764656 L-198.85064386500989,100.23553225354821 L-198.8537272920287,100.15705379539064 L-198.85557765260833,100.0785365865591 L-198.85619449020004,100 L-198.8561944902,-100 L-198.85557765260825,-100.07853658655915 L-198.8537272920286,-100.15705379539068 L-198.8506438650098,-100.23553225354826 L-198.84632813234128,-100.3139525976466 L-198.84078115886558,-100.39229547863926 L-198.83400431321533,-100.4705415665926 L-198.82599926747582,-100.54867155545526 L-198.8167679967723,-100.62666616782155 L-198.8063127787827,-100.70450615968794 L-198.79463619317562,-100.78217232520119 L-198.7817411209738,-100.85964550139707 L-198.76763074384337,-100.93690657292865 L-198.75230854330877,-101.01393647678259 L-198.73577829989367,-101.09071620698273 L-198.7180440921883,-101.16722681927955 L-198.6991102958431,-101.24344943582429 L-198.67898158248892,-101.31936524982689 L-198.65766291858463,-101.39495553019616 L-198.63515956419158,-101.47020162616154 L-198.6114770716757,-101.54508497187474 L-198.58662128433767,-101.61958709099076 L-198.56059833497105,-101.69368960122647 L-198.53341464434928,-101.7673742188963 L-198.5050769196412,-101.8406227634234 L-198.47559215275638,-101.91341716182545 L-198.44496761861984,-101.9857394531739 L-198.41321087337715,-102.05757179302555 L-198.38032975253003,-102.12889645782536 L-198.34633236900302,-102.19969584927958 L-198.31122711114176,-102.26995249869773 L-198.2750226406434,-102.33964907130286 L-198.23772789041925,-102.40876837050857 L-198.1993520623909,-102.47729334216203 L-198.15990462521967,-102.54520707875184 L-198.1193953119704,-102.61249282357973 L-198.07783411771,-102.67913397489497 L-198.0352312970413,-102.74511408999064 L-197.99159736157276,-102.81041688926064 L-197.94694307732505,-102.87502626021637 L-197.90127946207468,-102.93892626146234 L-197.8546177826354,-103.0021011266294 L-197.80696955207839,-103.06453526826486 L-197.7583465268916,-103.1262132816785 L-197.70876070407888,-103.18711994874343 L-197.6582243182001,-103.24724024165089 L-197.60674983835224,-103.30655932661823 L-197.554349965093,-103.36506256754883 L-197.501037627307,-103.42273552964342 L-197.4468259790159,-103.47956398296154 L-197.3917283961327,-103.53553390593271 L-197.33575847316152,-103.59063148881592 L-197.2789300198434,-103.64484313710702 L-197.2212570577488,-103.69815547489301 L-197.1627538168182,-103.75055534815226 L-197.10343473185085,-103.80202982800012 L-197.0433144389434,-103.8525662138789 L-196.98240777187848,-103.9021520366916 L-196.92072975846483,-103.9507750618784 L-196.85829561682937,-103.9984232924354 L-196.79512075166232,-104.04508497187469 L-196.73122075041636,-104.09074858712506 L-196.66661137946062,-104.13540287137276 L-196.60130858019062,-104.1790368068413 L-196.53532846509495,-104.22163962751003 L-196.4686873137797,-104.26320082177041 L-196.40140156895183,-104.30371013501967 L-196.333487832362,-104.3431575721909 L-196.26496286070855,-104.38153340021927 L-196.19584356150284,-104.41882815044342 L-196.1261469888977,-104.45503262094178 L-196.05589033947953,-104.49013787880303 L-195.98509094802534,-104.52413526233003 L-195.91376628322553,-104.55701638317717 L-195.84193394337387,-104.58877312841985 L-195.76961165202542,-104.61939766255637 L-195.69681725362335,-104.6488824294412 L-195.62356870909628,-104.67722015414927 L-195.54988409142643,-104.70440384477106 L-195.47578158119072,-104.73042679413766 L-195.4012794620747,-104.7552825814757 L-195.3263961163615,-104.77896507399159 L-195.25115002039612,-104.80146842838465 L-195.17555974002684,-104.82278709228892 L-195.09964392602427,-104.84291580564309 L-195.02342130947952,-104.86184960198831 L-194.9469106971827,-104.87958380969367 L-194.87013096698254,-104.89611405310876 L-194.7931010631286,-104.91143625364337 L-194.71583999159705,-104.9255466307738 L-194.63836681540116,-104.93844170297562 L-194.5607006498879,-104.95011828858271 L-194.4828606580215,-104.96057350657232 L-194.40486604565524,-104.96980477727583 L-194.32673605679258,-104.97780982301533 L-194.24848996883924,-104.98458666866557 L-194.17014708784657,-104.99013364214129 L-194.0917267437482,-104.99444937480978 L-194.01324828559063,-104.99753280182858 L-193.9347310767591,-104.99938316240824 L-193.8561944902,-104.99999999999993 L-148.5,-105 L-148.5,-150.3561944902 L-148.49938316240826,-150.43473107675916 L-148.49753280182864,-150.5132482855907 L-148.49444937480982,-150.59172674374827 L-148.49013364214133,-150.67014708784663 L-148.4845866686656,-150.74848996883927 L-148.47780982301538,-150.8267360567926 L-148.46980477727587,-150.90486604565527 L-148.46057350657236,-150.98286065802156 L-148.45011828858276,-151.06070064988796 L-148.43844170297567,-151.1383668154012 L-148.42554663077382,-151.21583999159708 L-148.41143625364342,-151.29310106312866 L-148.3961140531088,-151.3701309669826 L-148.3795838096937,-151.44691069718274 L-148.36184960198835,-151.52342130947957 L-148.34291580564312,-151.59964392602433 L-148.32278709228896,-151.6755597400269 L-148.30146842838468,-151.75115002039618 L-148.2789650739916,-151.82639611636156 L-148.25528258147574,-151.90127946207477 L-148.23042679413768,-151.97578158119077 L-148.2044038447711,-152.0498840914265 L-148.1772201541493,-152.12356870909633 L-148.14888242944122,-152.1968172536234 L-148.1193976625564,-152.26961165202547 L-148.08877312841986,-152.34193394337393 L-148.0570163831772,-152.41376628322558 L-148.02413526233005,-152.4850909480254 L-147.99013787880304,-152.5558903394796 L-147.9550326209418,-152.62614698889777 L-147.91882815044343,-152.6958435615029 L-147.88153340021927,-152.7649628607086 L-147.8431575721909,-152.83348783236207 L-147.80371013501968,-152.90140156895188 L-147.76320082177043,-152.96868731377975 L-147.72163962751003,-153.035328465095 L-147.6790368068413,-153.10130858019068 L-147.63540287137278,-153.16661137946068 L-147.5907485871251,-153.2312207504164 L-147.5450849718747,-153.29512075166238 L-147.4984232924354,-153.35829561682942 L-147.4507750618784,-153.4207297584649 L-147.4021520366916,-153.48240777187854 L-147.3525662138789,-153.54331443894347 L-147.30202982800012,-153.60343473185094 L-147.25055534815226,-153.66275381681828 L-147.198155474893,-153.7212570577489 L-147.14484313710702,-153.77893001984344 L-147.09063148881592,-153.83575847316158 L-147.0355339059327,-153.89172839613275 L-146.97956398296154,-153.94682597901595 L-146.9227355296434,-154.00103762730706 L-146.86506256754882,-154.05434996509305 L-146.8065593266182,-154.1067498383523 L-146.74724024165087,-154.15822431820015 L-146.6871199487434,-154.20876070407894 L-146.6262132816785,-154.25834652689164 L-146.56453526826485,-154.30696955207844 L-146.50210112662938,-154.35461778263544 L-146.43892626146234,-154.40127946207474 L-146.37502626021637,-154.4469430773251 L-146.31041688926064,-154.49159736157281 L-146.24511408999064,-154.53523129704135 L-146.17913397489497,-154.57783411771007 L-146.11249282357971,-154.61939531197046 L-146.04520707875182,-154.65990462521972 L-145.977293342162,-154.69935206239094 L-145.90876837050854,-154.7377278904193 L-145.83964907130283,-154.77502264064347 L-145.7699524986977,-154.81122711114182 L-145.69969584927955,-154.84633236900308 L-145.62889645782533,-154.8803297525301 L-145.55757179302552,-154.9132108733772 L-145.4857394531739,-154.9449676186199 L-145.41341716182544,-154.97559215275643 L-145.34062276342337,-155.00507691964125 L-145.26737421889626,-155.03341464434934 L-145.19368960122642,-155.0605983349711 L-145.11958709099073,-155.08662128433772 L-145.04508497187473,-155.11147707167575 L-144.9702016261615,-155.13515956419164 L-144.89495553019614,-155.1576629185847 L-144.81936524982686,-155.17898158248897 L-144.74344943582426,-155.19911029584313 L-144.6672268192795,-155.21804409218836 L-144.5907162069827,-155.23577829989372 L-144.51393647678256,-155.2523085433088 L-144.43690657292862,-155.26763074384343 L-144.35964550139704,-155.28174112097386 L-144.28217232520115,-155.29463619317568 L-144.2045061596879,-155.30631277878277 L-144.12666616782153,-155.31676799677237 L-144.04867155545523,-155.32599926747588 L-143.97054156659257,-155.3340043132154 L-143.89229547863923,-155.3407811588656 L-143.81395259764656,-155.34632813234134 L-143.7355322535482,-155.35064386500983 L-143.65705379539065,-155.35372729202865 L-143.5785365865591,-155.35557765260828 L-143.5,-155.35619449019998 Z M15.699999999999994,-127.6394341637 L15.7,-130.6394341637 L15.698667712987474,-130.72424321321094 L15.69467216675633,-130.80896856642914 L15.688017304428314,-130.89352660966 L15.678709693549088,-130.97783389432362 L15.66675851960687,-131.06180721930863 L15.652175576967458,-131.14536371308145 L15.634975257234617,-131.22842091547068 L15.615174535047302,-131.3108968590451 L15.592792951327745,-131.3927101500059 L15.567852593996912,-131.47378004851237 L15.540378076176406,-131.5540265483623 L15.510396511898277,-131.63337045594864 L15.477937489346747,-131.7117334684139 L15.44303304165825,-131.7890382509257 L15.40571761530859,-131.8652085129968 L15.36602803611843,-131.94016908377463 L15.324003472910647,-132.01384598622602 L15.279685398855438,-132.0861665101433 L15.233117550541316,-132.15705928390076 L15.184345884812355,-132.22645434488967 L15.133418533414362,-132.29428320856303 L15.080385755494628,-132.36047893602145 L15.02529988800224,-132.42497620007387 L14.968215294037808,-132.48771134970747 L14.909188309203676,-132.54862247290367 L14.848277186007458,-132.6076494577378 L14.785542036373858,-132.66473405170225 L14.72104477232146,-132.71981991919463 L14.654849044863035,-132.77285269711436 L14.587020181189676,-132.82378004851236 L14.51762512020075,-132.87255171424133 L14.446732346443289,-132.91911956255544 L14.374411822526,-132.96343763661065 L14.300734920074628,-133.00546219981842 L14.225774349296774,-133.0451517790086 L14.149604087225693,-133.08246720535826 L14.072299304713905,-133.11737165304675 L13.993936292248629,-133.14983067559828 L13.914592384662285,-133.1798122398764 L13.834345884812356,-133.20728675769692 L13.753275986305916,-133.23222711502774 L13.671462695345104,-133.25460869874732 L13.588986751770662,-133.27440942093463 L13.505929549381454,-133.29160974066747 L13.42237305560862,-133.30619268330688 L13.338399730623618,-133.31814385724908 L13.254092445959985,-133.32745146812832 L13.169534402729143,-133.33410633045634 L13.084809049510943,-133.3381018766875 L12.999999999999996,-133.3394341637 L12.91519095048905,-133.3381018766875 L12.83046559727085,-133.33410633045634 L12.745907554040008,-133.32745146812832 L12.661600269376375,-133.31814385724908 L12.577626944391373,-133.30619268330688 L12.49407045061854,-133.29160974066747 L12.411013248229331,-133.27440942093463 L12.328537304654889,-133.2546086987473 L12.246724013694077,-133.23222711502774 L12.165654115187639,-133.20728675769692 L12.08540761533771,-133.1798122398764 L12.006063707751366,-133.14983067559828 L11.927700695286088,-133.11737165304675 L11.8503959127743,-133.08246720535826 L11.77422565070322,-133.0451517790086 L11.699265079925366,-133.00546219981842 L11.625588177473995,-132.96343763661065 L11.553267653556707,-132.91911956255544 L11.482374879799247,-132.87255171424133 L11.412979818810323,-132.82378004851236 L11.345150955136964,-132.77285269711436 L11.278955227678537,-132.71981991919463 L11.21445796362614,-132.66473405170225 L11.151722813992542,-132.6076494577378 L11.090811690796324,-132.54862247290367 L11.031784705962192,-132.48771134970747 L10.974700111997763,-132.42497620007387 L10.919614244505372,-132.36047893602145 L10.86658146658564,-132.29428320856303 L10.815654115187645,-132.22645434488967 L10.766882449458686,-132.15705928390076 L10.720314601144562,-132.0861665101433 L10.675996527089357,-132.01384598622602 L10.633971963881573,-131.94016908377463 L10.594282384691411,-131.8652085129968 L10.556966958341752,-131.7890382509257 L10.522062510653255,-131.7117334684139 L10.489603488101725,-131.63337045594864 L10.459621923823596,-131.5540265483623 L10.43214740600309,-131.47378004851237 L10.407207048672259,-131.39271015000594 L10.3848254649527,-131.31089685904513 L10.365024742765385,-131.22842091547068 L10.347824423032545,-131.14536371308148 L10.33324148039313,-131.06180721930863 L10.321290306450914,-130.97783389432362 L10.311982695571686,-130.89352660966 L10.30532783324367,-130.80896856642917 L10.301332287012528,-130.72424321321097 L10.300000000000002,-130.6394341637 L10.3,-127.6394341637 L10.301332287012531,-127.55462511418905 L10.305327833243673,-127.46989976097086 L10.31198269557169,-127.38534171774002 L10.321290306450916,-127.30103443307638 L10.333241480393134,-127.21706110809139 L10.347824423032545,-127.13350461431855 L10.365024742765387,-127.05044741192934 L10.384825464952701,-126.9679714683549 L10.407207048672259,-126.8861581773941 L10.43214740600309,-126.80508827888765 L10.459621923823594,-126.72484177903772 L10.489603488101725,-126.64549787145138 L10.522062510653253,-126.56713485898611 L10.55696695834175,-126.48983007647432 L10.59428238469141,-126.41365981440323 L10.633971963881569,-126.33869924362538 L10.675996527089353,-126.26502234117402 L10.72031460114456,-126.19270181725672 L10.766882449458683,-126.12180904349925 L10.815654115187641,-126.05241398251033 L10.866581466585634,-125.98458511883697 L10.919614244505366,-125.91838939137855 L10.974700111997755,-125.85389212732616 L11.031784705962185,-125.79115697769255 L11.090811690796317,-125.73024585449633 L11.151722813992535,-125.6712188696622 L11.214457963626135,-125.61413427569778 L11.27895522767853,-125.55904840820538 L11.345150955136956,-125.50601563028565 L11.412979818810314,-125.45508827888766 L11.482374879799238,-125.4063166131587 L11.553267653556698,-125.35974876484458 L11.625588177473986,-125.31543069078937 L11.699265079925357,-125.27340612758158 L11.774225650703212,-125.23371654839143 L11.85039591277429,-125.19640112204176 L11.927700695286077,-125.16149667435326 L12.006063707751354,-125.12903765180174 L12.085407615337697,-125.0990560875236 L12.165654115187625,-125.0715815697031 L12.246724013694063,-125.04664121237226 L12.328537304654873,-125.02425962865271 L12.411013248229317,-125.0044589064654 L12.494070450618523,-124.98725858673255 L12.577626944391357,-124.97267564409314 L12.661600269376358,-124.96072447015092 L12.74590755403999,-124.95141685927169 L12.83046559727083,-124.94476199694368 L12.91519095048903,-124.94076645071253 L12.999999999999975,-124.93943416370001 L13.084809049510921,-124.94076645071253 L13.16953440272912,-124.94476199694367 L13.254092445959962,-124.95141685927169 L13.338399730623594,-124.96072447015092 L13.422373055608595,-124.97267564409313 L13.505929549381428,-124.98725858673254 L13.588986751770637,-125.00445890646539 L13.67146269534508,-125.0242596286527 L13.753275986305889,-125.04664121237225 L13.834345884812329,-125.07158156970308 L13.914592384662257,-125.09905608752359 L13.9939362922486,-125.12903765180172 L14.072299304713876,-125.16149667435324 L14.149604087225665,-125.19640112204175 L14.225774349296746,-125.2337165483914 L14.3007349200746,-125.27340612758157 L14.374411822525971,-125.31543069078934 L14.446732346443259,-125.35974876484455 L14.517625120200721,-125.40631661315867 L14.587020181189647,-125.45508827888763 L14.654849044863006,-125.50601563028562 L14.72104477232143,-125.55904840820536 L14.78554203637383,-125.61413427569774 L14.84827718600743,-125.67121886966217 L14.909188309203648,-125.7302458544963 L14.968215294037782,-125.79115697769252 L15.02529988800221,-125.85389212732612 L15.080385755494602,-125.91838939137851 L15.133418533414336,-125.98458511883693 L15.18434588481233,-126.0524139825103 L15.23311755054129,-126.12180904349923 L15.279685398855413,-126.19270181725668 L15.324003472910622,-126.26502234117397 L15.366028036118406,-126.33869924362534 L15.40571761530857,-126.41365981440319 L15.443033041658229,-126.48983007647428 L15.477937489346726,-126.56713485898605 L15.510396511898257,-126.64549787145134 L15.540378076176388,-126.72484177903767 L15.567852593996896,-126.80508827888761 L15.592792951327729,-126.88615817739404 L15.615174535047288,-126.96797146835485 L15.634975257234602,-127.0504474119293 L15.652175576967444,-127.1335046143185 L15.666758519606859,-127.21706110809133 L15.678709693549077,-127.30103443307634 L15.688017304428305,-127.38534171773996 L15.694672166756323,-127.4698997609708 L15.698667712987469,-127.55462511418901 L15.699999999999994,-127.6394341637 Z M-9.999999999999996,-133.8394341637 L-10,-136.8394341637 L-10.00133228701252,-136.92424321321093 L-10.005327833243664,-137.00896856642913 L-10.01198269557168,-137.09352660966 L-10.021290306450906,-137.1778338943236 L-10.033241480393125,-137.26180721930862 L-10.047824423032537,-137.34536371308144 L-10.065024742765377,-137.42842091547067 L-10.084825464952694,-137.5108968590451 L-10.107207048672251,-137.5927101500059 L-10.132147406003082,-137.67378004851236 L-10.159621923823588,-137.75402654836228 L-10.189603488101717,-137.83337045594863 L-10.222062510653247,-137.9117334684139 L-10.256966958341744,-137.9890382509257 L-10.294282384691403,-138.06520851299678 L-10.333971963881565,-138.14016908377462 L-10.375996527089349,-138.213845986226 L-10.420314601144556,-138.2861665101433 L-10.46688244945868,-138.35705928390075 L-10.515654115187639,-138.42645434488966 L-10.566581466585633,-138.49428320856302 L-10.619614244505367,-138.56047893602147 L-10.674700111997756,-138.62497620007386 L-10.731784705962188,-138.68771134970746 L-10.79081169079632,-138.74862247290366 L-10.851722813992538,-138.8076494577378 L-10.914457963626138,-138.86473405170224 L-10.978955227678536,-138.91981991919462 L-11.045150955136961,-138.97285269711435 L-11.112979818810322,-139.02378004851235 L-11.182374879799246,-139.0725517142413 L-11.253267653556708,-139.11911956255543 L-11.325588177473996,-139.16343763661064 L-11.399265079925367,-139.2054621998184 L-11.474225650703223,-139.24515177900858 L-11.550395912774304,-139.28246720535824 L-11.627700695286093,-139.31737165304673 L-11.706063707751369,-139.34983067559827 L-11.785407615337714,-139.3798122398764 L-11.865654115187642,-139.4072867576969 L-11.946724013694082,-139.43222711502773 L-12.028537304654893,-139.4546086987473 L-12.111013248229336,-139.47440942093462 L-12.194070450618545,-139.49160974066746 L-12.277626944391379,-139.50619268330686 L-12.36160026937638,-139.51814385724907 L-12.445907554040014,-139.5274514681283 L-12.530465597270856,-139.53410633045632 L-12.615190950489056,-139.53810187668748 L-12.700000000000003,-139.53943416369998 L-12.78480904951095,-139.53810187668748 L-12.86953440272915,-139.53410633045632 L-12.954092445959992,-139.5274514681283 L-13.038399730623626,-139.51814385724907 L-13.122373055608627,-139.50619268330686 L-13.20592954938146,-139.49160974066746 L-13.288986751770668,-139.47440942093462 L-13.371462695345112,-139.4546086987473 L-13.453275986305924,-139.43222711502773 L-13.534345884812362,-139.4072867576969 L-13.614592384662291,-139.3798122398764 L-13.693936292248635,-139.34983067559827 L-13.772299304713913,-139.31737165304673 L-13.849604087225702,-139.28246720535824 L-13.92577434929678,-139.24515177900858 L-14.000734920074635,-139.2054621998184 L-14.074411822526006,-139.16343763661064 L-14.146732346443294,-139.11911956255543 L-14.217625120200756,-139.0725517142413 L-14.28702018118968,-139.02378004851235 L-14.35484904486304,-138.97285269711435 L-14.421044772321464,-138.91981991919462 L-14.485542036373861,-138.86473405170224 L-14.54827718600746,-138.8076494577378 L-14.60918830920368,-138.74862247290366 L-14.668215294037811,-138.68771134970746 L-14.72529988800224,-138.62497620007386 L-14.780385755494631,-138.56047893602147 L-14.833418533414363,-138.49428320856302 L-14.884345884812358,-138.42645434488966 L-14.933117550541317,-138.35705928390075 L-14.979685398855441,-138.2861665101433 L-15.024003472910648,-138.213845986226 L-15.066028036118432,-138.14016908377462 L-15.105717615308592,-138.06520851299678 L-15.143033041658253,-137.9890382509257 L-15.177937489346748,-137.9117334684139 L-15.210396511898278,-137.83337045594863 L-15.240378076176409,-137.75402654836228 L-15.267852593996913,-137.67378004851236 L-15.292792951327746,-137.59271015000593 L-15.315174535047303,-137.51089685904512 L-15.334975257234618,-137.42842091547067 L-15.35217557696746,-137.34536371308147 L-15.366758519606872,-137.26180721930862 L-15.37870969354909,-137.1778338943236 L-15.388017304428317,-137.09352660966 L-15.394672166756335,-137.00896856642916 L-15.398667712987477,-136.92424321321096 L-15.400000000000002,-136.8394341637 L-15.4,-133.8394341637 L-15.398667712987478,-133.75462511418905 L-15.394672166756335,-133.66989976097085 L-15.388017304428319,-133.58534171774 L-15.378709693549093,-133.50103443307637 L-15.366758519606874,-133.41706110809136 L-15.352175576967461,-133.33350461431854 L-15.334975257234621,-133.25044741192934 L-15.315174535047307,-133.1679714683549 L-15.29279295132775,-133.08615817739408 L-15.267852593996919,-133.00508827888763 L-15.240378076176412,-132.9248417790377 L-15.210396511898283,-132.84549787145136 L-15.177937489346753,-132.76713485898608 L-15.143033041658258,-132.6898300764743 L-15.105717615308599,-132.6136598144032 L-15.066028036118437,-132.53869924362536 L-15.024003472910653,-132.465022341174 L-14.979685398855448,-132.3927018172567 L-14.933117550541324,-132.32180904349926 L-14.884345884812365,-132.25241398251032 L-14.833418533414372,-132.18458511883696 L-14.780385755494638,-132.11838939137854 L-14.72529988800225,-132.05389212732615 L-14.66821529403782,-131.99115697769253 L-14.609188309203688,-131.93024585449632 L-14.54827718600747,-131.8712188696622 L-14.485542036373872,-131.81413427569777 L-14.421044772321475,-131.75904840820536 L-14.354849044863048,-131.70601563028563 L-14.28702018118969,-131.65508827888763 L-14.217625120200767,-131.60631661315867 L-14.146732346443304,-131.55974876484456 L-14.074411822526017,-131.51543069078934 L-14.000734920074647,-131.47340612758157 L-13.925774349296793,-131.4337165483914 L-13.849604087225712,-131.39640112204174 L-13.772299304713925,-131.36149667435325 L-13.693936292248647,-131.3290376518017 L-13.614592384662306,-131.29905608752358 L-13.534345884812376,-131.27158156970307 L-13.453275986305938,-131.24664121237225 L-13.371462695345128,-131.2242596286527 L-13.288986751770686,-131.20445890646536 L-13.205929549381478,-131.18725858673253 L-13.122373055608644,-131.17267564409312 L-13.038399730623643,-131.1607244701509 L-12.954092445960011,-131.15141685927168 L-12.869534402729169,-131.14476199694366 L-12.78480904951097,-131.1407664507125 L-12.700000000000024,-131.1394341637 L-12.615190950489078,-131.1407664507125 L-12.530465597270878,-131.14476199694366 L-12.445907554040037,-131.15141685927168 L-12.361600269376403,-131.16072447015088 L-12.277626944391402,-131.17267564409312 L-12.19407045061857,-131.18725858673253 L-12.11101324822936,-131.20445890646536 L-12.028537304654918,-131.22425962865267 L-11.946724013694107,-131.24664121237223 L-11.865654115187668,-131.27158156970307 L-11.78540761533774,-131.29905608752358 L-11.706063707751396,-131.32903765180168 L-11.62770069528612,-131.36149667435322 L-11.55039591277433,-131.3964011220417 L-11.47422565070325,-131.43371654839137 L-11.399265079925396,-131.47340612758154 L-11.325588177474023,-131.51543069078932 L-11.253267653556735,-131.55974876484453 L-11.182374879799273,-131.60631661315864 L-11.112979818810349,-131.6550882788876 L-11.045150955136988,-131.7060156302856 L-10.978955227678563,-131.75904840820533 L-10.914457963626164,-131.8141342756977 L-10.851722813992565,-131.87121886966216 L-10.790811690796344,-131.9302458544963 L-10.731784705962212,-131.9911569776925 L-10.674700111997781,-132.0538921273261 L-10.61961424450539,-132.11838939137849 L-10.566581466585657,-132.18458511883694 L-10.515654115187662,-132.2524139825103 L-10.466882449458701,-132.3218090434992 L-10.420314601144577,-132.39270181725666 L-10.37599652708937,-132.46502234117395 L-10.333971963881584,-132.53869924362533 L-10.294282384691423,-132.61365981440318 L-10.256966958341762,-132.68983007647427 L-10.222062510653265,-132.76713485898605 L-10.189603488101733,-132.84549787145133 L-10.159621923823602,-132.92484177903765 L-10.132147406003096,-133.0050882788876 L-10.107207048672262,-133.08615817739403 L-10.084825464952704,-133.16797146835484 L-10.065024742765388,-133.2504474119293 L-10.047824423032546,-133.33350461431849 L-10.033241480393132,-133.41706110809133 L-10.021290306450911,-133.5010344330763 L-10.011982695571685,-133.58534171773996 L-10.005327833243665,-133.6698997609708 L-10.001332287012524,-133.754625114189 L-9.999999999999996,-133.8394341637 Z M42.00000000000001,-133.8394341637 L42,-136.8394341637 L41.99866771298748,-136.92424321321093 L41.99467216675634,-137.00896856642913 L41.988017304428325,-137.09352660966 L41.9787096935491,-137.1778338943236 L41.96675851960688,-137.26180721930862 L41.95217557696747,-137.34536371308144 L41.934975257234626,-137.42842091547067 L41.91517453504731,-137.5108968590451 L41.892792951327756,-137.5927101500059 L41.86785259399692,-137.67378004851236 L41.840378076176414,-137.75402654836228 L41.81039651189828,-137.83337045594863 L41.777937489346755,-137.9117334684139 L41.74303304165826,-137.9890382509257 L41.7057176153086,-138.06520851299678 L41.66602803611844,-138.14016908377462 L41.62400347291065,-138.213845986226 L41.579685398855446,-138.2861665101433 L41.53311755054132,-138.35705928390075 L41.48434588481236,-138.42645434488966 L41.43341853341437,-138.49428320856305 L41.380385755494636,-138.56047893602147 L41.32529988800224,-138.62497620007386 L41.268215294037816,-138.68771134970746 L41.20918830920368,-138.7486224729037 L41.14827718600746,-138.80764945773782 L41.085542036373866,-138.86473405170224 L41.02104477232147,-138.91981991919462 L40.95484904486304,-138.97285269711438 L40.887020181189676,-139.02378004851235 L40.81762512020075,-139.0725517142413 L40.746732346443295,-139.11911956255545 L40.674411822526004,-139.16343763661064 L40.60073492007463,-139.20546219981844 L40.525774349296775,-139.24515177900858 L40.449604087225694,-139.28246720535824 L40.372299304713906,-139.31737165304676 L40.29393629224863,-139.34983067559827 L40.21459238466228,-139.3798122398764 L40.134345884812355,-139.4072867576969 L40.05327598630592,-139.43222711502776 L39.9714626953451,-139.4546086987473 L39.88898675177066,-139.47440942093462 L39.80592954938145,-139.49160974066746 L39.72237305560862,-139.50619268330686 L39.63839973062362,-139.5181438572491 L39.55409244595998,-139.5274514681283 L39.46953440272914,-139.53410633045632 L39.38480904951094,-139.53810187668748 L39.3,-139.5394341637 L39.215190950489045,-139.53810187668748 L39.13046559727085,-139.53410633045632 L39.04590755404001,-139.5274514681283 L38.96160026937637,-139.5181438572491 L38.877626944391366,-139.50619268330686 L38.794070450618534,-139.49160974066746 L38.71101324822933,-139.47440942093462 L38.628537304654884,-139.4546086987473 L38.546724013694075,-139.43222711502776 L38.46565411518763,-139.4072867576969 L38.385407615337705,-139.3798122398764 L38.306063707751356,-139.34983067559827 L38.22770069528608,-139.31737165304673 L38.15039591277429,-139.28246720535824 L38.07422565070321,-139.24515177900858 L37.99926507992536,-139.20546219981844 L37.92558817747398,-139.16343763661064 L37.8532676535567,-139.11911956255543 L37.782374879799235,-139.0725517142413 L37.71297981881031,-139.02378004851235 L37.645150955136955,-138.97285269711435 L37.57895522767853,-138.91981991919462 L37.51445796362613,-138.86473405170224 L37.45172281399253,-138.8076494577378 L37.39081169079631,-138.7486224729037 L37.33178470596218,-138.68771134970746 L37.27470011199775,-138.62497620007386 L37.21961424450536,-138.56047893602147 L37.166581466585626,-138.49428320856305 L37.11565411518763,-138.42645434488966 L37.066882449458674,-138.35705928390075 L37.02031460114455,-138.2861665101433 L36.97599652708934,-138.213845986226 L36.93397196388156,-138.14016908377462 L36.894282384691394,-138.06520851299678 L36.85696695834174,-137.9890382509257 L36.82206251065324,-137.9117334684139 L36.78960348810171,-137.83337045594863 L36.75962192382358,-137.75402654836228 L36.73214740600307,-137.67378004851236 L36.707207048672245,-137.59271015000593 L36.68482546495269,-137.51089685904512 L36.66502474276537,-137.42842091547067 L36.64782442303253,-137.34536371308147 L36.63324148039312,-137.26180721930862 L36.6212903064509,-137.1778338943236 L36.61198269557167,-137.09352660966 L36.605327833243656,-137.00896856642916 L36.60133228701251,-136.92424321321096 L36.59999999999999,-136.8394341637 L36.6,-133.8394341637 L36.60133228701251,-133.75462511418905 L36.605327833243656,-133.66989976097085 L36.61198269557167,-133.58534171774 L36.621290306450895,-133.50103443307637 L36.63324148039312,-133.41706110809136 L36.647824423032525,-133.33350461431854 L36.66502474276537,-133.25044741192931 L36.68482546495268,-133.1679714683549 L36.70720704867224,-133.08615817739408 L36.73214740600307,-133.00508827888763 L36.75962192382357,-132.9248417790377 L36.789603488101704,-132.84549787145136 L36.82206251065324,-132.76713485898608 L36.85696695834173,-132.6898300764743 L36.894282384691394,-132.6136598144032 L36.933971963881554,-132.53869924362536 L36.975996527089336,-132.46502234117398 L37.02031460114454,-132.3927018172567 L37.06688244945867,-132.32180904349923 L37.115654115187624,-132.25241398251032 L37.16658146658562,-132.18458511883696 L37.21961424450535,-132.11838939137854 L37.27470011199774,-132.05389212732612 L37.33178470596217,-131.99115697769253 L37.390811690796305,-131.93024585449632 L37.45172281399252,-131.8712188696622 L37.51445796362612,-131.81413427569774 L37.57895522767852,-131.75904840820536 L37.64515095513694,-131.70601563028563 L37.712979818810304,-131.65508827888763 L37.78237487979923,-131.60631661315867 L37.853267653556685,-131.55974876484456 L37.925588177473976,-131.51543069078934 L37.999265079925344,-131.47340612758157 L38.0742256507032,-131.4337165483914 L38.15039591277428,-131.39640112204174 L38.22770069528607,-131.36149667435325 L38.30606370775135,-131.3290376518017 L38.38540761533769,-131.29905608752358 L38.46565411518762,-131.27158156970307 L38.54672401369405,-131.24664121237225 L38.62853730465487,-131.22425962865267 L38.71101324822931,-131.20445890646536 L38.79407045061852,-131.18725858673253 L38.87762694439135,-131.17267564409312 L38.961600269376355,-131.16072447015088 L39.045907554039985,-131.15141685927168 L39.13046559727083,-131.14476199694366 L39.215190950489024,-131.1407664507125 L39.299999999999976,-131.13943416369997 L39.38480904951092,-131.1407664507125 L39.46953440272912,-131.14476199694366 L39.55409244595996,-131.15141685927165 L39.6383997306236,-131.16072447015088 L39.72237305560859,-131.17267564409312 L39.80592954938143,-131.18725858673253 L39.88898675177064,-131.20445890646536 L39.97146269534508,-131.22425962865267 L40.05327598630589,-131.24664121237223 L40.13434588481233,-131.27158156970305 L40.21459238466226,-131.29905608752355 L40.2939362922486,-131.32903765180168 L40.37229930471388,-131.36149667435322 L40.449604087225666,-131.3964011220417 L40.525774349296746,-131.43371654839137 L40.60073492007461,-131.47340612758154 L40.674411822525975,-131.51543069078932 L40.74673234644327,-131.55974876484453 L40.81762512020073,-131.60631661315864 L40.887020181189655,-131.6550882788876 L40.95484904486301,-131.7060156302856 L41.02104477232144,-131.75904840820533 L41.08554203637384,-131.8141342756977 L41.148277186007434,-131.87121886966216 L41.209188309203654,-131.9302458544963 L41.26821529403779,-131.9911569776925 L41.32529988800222,-132.0538921273261 L41.380385755494615,-132.11838939137849 L41.43341853341435,-132.1845851188369 L41.48434588481234,-132.25241398251026 L41.5331175505413,-132.3218090434992 L41.579685398855425,-132.39270181725666 L41.62400347291063,-132.46502234117395 L41.66602803611842,-132.53869924362533 L41.70571761530858,-132.61365981440318 L41.743033041658244,-132.68983007647427 L41.77793748934674,-132.76713485898605 L41.81039651189827,-132.84549787145133 L41.8403780761764,-132.92484177903765 L41.86785259399691,-133.0050882788876 L41.89279295132774,-133.08615817739403 L41.9151745350473,-133.16797146835484 L41.93497525723461,-133.2504474119293 L41.952175576967456,-133.33350461431849 L41.96675851960687,-133.41706110809133 L41.97870969354909,-133.5010344330763 L41.98801730442832,-133.58534171773996 L41.99467216675634,-133.6698997609708 L41.99866771298748,-133.754625114189 L42.00000000000001,-133.8394341637 Z M-69.0000198247,105.4280764612 L-83.0000198247,105.4280753969 L-83.0000199387,106.9280753969 L-69.0000199387,106.9280764612 L-69.0000198247,105.4280764612 Z M-148.9280972451,7 L-148.9280972451,-7 L-150.4280972451,-7 L-150.4280972451,7 L-148.9280972451,7 Z M-50.0000033604,-105.4281012524 L-50.0000032402,-106.9281012524 L-64.0000032402,-106.9281023745 L-64.0000033604,-105.4281023745 L-50.0000033604,-105.4281012524 Z M-69.0000033604,-105.4281027752 L-69.0000032402,-106.9281027752 L-83.0000032402,-106.9281038973 L-83.0000033604,-105.4281038973 L-69.0000033604,-105.4281027752 Z M-36.39999999999999,-127.6394341637 L-36.4,-130.6394341637 L-36.401332287012515,-130.72424321321094 L-36.40532783324366,-130.80896856642914 L-36.41198269557167,-130.89352660966 L-36.4212903064509,-130.97783389432362 L-36.43324148039312,-131.06180721930863 L-36.44782442303253,-131.14536371308145 L-36.46502474276537,-131.22842091547068 L-36.484825464952685,-131.3108968590451 L-36.50720704867224,-131.3927101500059 L-36.53214740600308,-131.47378004851237 L-36.559621923823585,-131.5540265483623 L-36.589603488101716,-131.63337045594864 L-36.622062510653244,-131.7117334684139 L-36.65696695834174,-131.7890382509257 L-36.6942823846914,-131.8652085129968 L-36.73397196388156,-131.94016908377463 L-36.77599652708935,-132.01384598622602 L-36.82031460114455,-132.0861665101433 L-36.86688244945868,-132.15705928390076 L-36.915654115187635,-132.22645434488967 L-36.96658146658563,-132.29428320856306 L-37.01961424450536,-132.36047893602148 L-37.07470011199776,-132.42497620007387 L-37.13178470596218,-132.48771134970747 L-37.190811690796316,-132.5486224729037 L-37.25172281399254,-132.60764945773784 L-37.31445796362613,-132.66473405170225 L-37.37895522767853,-132.71981991919463 L-37.44515095513696,-132.7728526971144 L-37.51297981881032,-132.82378004851236 L-37.58237487979925,-132.87255171424133 L-37.6532676535567,-132.91911956255547 L-37.725588177473995,-132.96343763661065 L-37.79926507992537,-133.00546219981845 L-37.874225650703224,-133.0451517790086 L-37.950395912774304,-133.08246720535826 L-38.02770069528609,-133.11737165304677 L-38.10606370775137,-133.14983067559828 L-38.185407615337716,-133.1798122398764 L-38.265654115187644,-133.20728675769692 L-38.34672401369408,-133.23222711502777 L-38.428537304654895,-133.25460869874732 L-38.51101324822934,-133.27440942093463 L-38.594070450618545,-133.29160974066747 L-38.67762694439138,-133.30619268330688 L-38.76160026937638,-133.3181438572491 L-38.84590755404002,-133.32745146812832 L-38.93046559727086,-133.33410633045634 L-39.01519095048906,-133.3381018766875 L-39.1,-133.33943416370002 L-39.18480904951095,-133.3381018766875 L-39.26953440272915,-133.33410633045634 L-39.35409244595999,-133.32745146812832 L-39.43839973062363,-133.3181438572491 L-39.52237305560863,-133.30619268330688 L-39.605929549381464,-133.29160974066747 L-39.68898675177067,-133.27440942093463 L-39.771462695345114,-133.25460869874732 L-39.853275986305924,-133.23222711502777 L-39.934345884812366,-133.20728675769692 L-40.01459238466229,-133.1798122398764 L-40.09393629224864,-133.14983067559828 L-40.17229930471392,-133.11737165304675 L-40.249604087225705,-133.08246720535826 L-40.325774349296786,-133.0451517790086 L-40.40073492007464,-133.00546219981845 L-40.474411822526015,-132.96343763661065 L-40.5467323464433,-132.91911956255544 L-40.61762512020076,-132.87255171424133 L-40.68702018118969,-132.82378004851236 L-40.75484904486304,-132.77285269711436 L-40.82104477232147,-132.71981991919463 L-40.88554203637387,-132.66473405170225 L-40.948277186007466,-132.6076494577378 L-41.00918830920369,-132.5486224729037 L-41.06821529403782,-132.48771134970747 L-41.125299888002246,-132.42497620007387 L-41.18038575549464,-132.36047893602148 L-41.23341853341437,-132.29428320856306 L-41.28434588481237,-132.22645434488967 L-41.333117550541324,-132.15705928390076 L-41.37968539885545,-132.0861665101433 L-41.424003472910655,-132.01384598622602 L-41.46602803611844,-131.94016908377463 L-41.5057176153086,-131.8652085129968 L-41.54303304165826,-131.7890382509257 L-41.57793748934676,-131.7117334684139 L-41.61039651189829,-131.63337045594864 L-41.64037807617642,-131.5540265483623 L-41.667852593996926,-131.47378004851237 L-41.69279295132775,-131.39271015000594 L-41.71517453504731,-131.31089685904513 L-41.73497525723463,-131.22842091547068 L-41.75217557696747,-131.14536371308148 L-41.76675851960688,-131.06180721930863 L-41.778709693549104,-130.97783389432362 L-41.78801730442833,-130.89352660966 L-41.79467216675634,-130.80896856642917 L-41.79866771298749,-130.72424321321097 L-41.80000000000001,-130.6394341637 L-41.8,-127.6394341637 L-41.79866771298749,-127.55462511418905 L-41.79467216675634,-127.46989976097086 L-41.78801730442833,-127.38534171774002 L-41.778709693549104,-127.30103443307638 L-41.76675851960688,-127.21706110809139 L-41.752175576967474,-127.13350461431855 L-41.73497525723463,-127.05044741192934 L-41.71517453504732,-126.96797146835489 L-41.69279295132776,-126.88615817739408 L-41.667852593996926,-126.80508827888765 L-41.64037807617642,-126.72484177903772 L-41.610396511898294,-126.64549787145137 L-41.57793748934676,-126.5671348589861 L-41.54303304165827,-126.4898300764743 L-41.505717615308605,-126.41365981440323 L-41.466028036118445,-126.33869924362537 L-41.42400347291066,-126.265022341174 L-41.37968539885546,-126.19270181725672 L-41.33311755054133,-126.12180904349925 L-41.284345884812375,-126.05241398251033 L-41.23341853341438,-125.98458511883697 L-41.18038575549465,-125.91838939137854 L-41.12529988800226,-125.85389212732615 L-41.06821529403783,-125.79115697769255 L-41.009188309203694,-125.73024585449633 L-40.94827718600747,-125.6712188696622 L-40.88554203637388,-125.61413427569777 L-40.82104477232148,-125.55904840820537 L-40.75484904486306,-125.50601563028565 L-40.687020181189695,-125.45508827888764 L-40.61762512020077,-125.40631661315868 L-40.546732346443314,-125.35974876484457 L-40.47441182252602,-125.31543069078936 L-40.400734920074655,-125.27340612758157 L-40.3257743492968,-125.23371654839141 L-40.24960408722572,-125.19640112204175 L-40.17229930471393,-125.16149667435324 L-40.09393629224865,-125.12903765180172 L-40.01459238466231,-125.09905608752359 L-39.93434588481238,-125.07158156970308 L-39.853275986305945,-125.04664121237225 L-39.77146269534513,-125.0242596286527 L-39.68898675177069,-125.00445890646537 L-39.60592954938148,-124.98725858673254 L-39.52237305560865,-124.97267564409313 L-39.438399730623644,-124.96072447015091 L-39.35409244596001,-124.95141685927167 L-39.26953440272917,-124.94476199694365 L-39.184809049510974,-124.94076645071252 L-39.10000000000002,-124.93943416369999 L-39.01519095048908,-124.94076645071252 L-38.93046559727088,-124.94476199694365 L-38.84590755404004,-124.95141685927167 L-38.7616002693764,-124.9607244701509 L-38.677626944391406,-124.97267564409312 L-38.59407045061857,-124.98725858673252 L-38.51101324822936,-125.00445890646537 L-38.42853730465492,-125.02425962865269 L-38.34672401369411,-125.04664121237224 L-38.265654115187665,-125.07158156970307 L-38.18540761533774,-125.09905608752358 L-38.106063707751396,-125.12903765180171 L-38.02770069528612,-125.16149667435323 L-37.950395912774326,-125.19640112204172 L-37.87422565070325,-125.23371654839139 L-37.79926507992539,-125.27340612758155 L-37.72558817747402,-125.31543069078933 L-37.65326765355673,-125.35974876484454 L-37.58237487979927,-125.40631661315865 L-37.512979818810344,-125.45508827888762 L-37.44515095513699,-125.5060156302856 L-37.37895522767856,-125.55904840820534 L-37.31445796362616,-125.61413427569774 L-37.25172281399256,-125.67121886966216 L-37.190811690796345,-125.73024585449629 L-37.13178470596221,-125.79115697769251 L-37.07470011199778,-125.8538921273261 L-37.019614244505384,-125.91838939137851 L-36.96658146658565,-125.98458511883693 L-36.91565411518766,-126.05241398251029 L-36.8668824494587,-126.12180904349921 L-36.820314601144574,-126.19270181725668 L-36.77599652708937,-126.26502234117396 L-36.73397196388158,-126.33869924362533 L-36.69428238469142,-126.41365981440319 L-36.656966958341755,-126.48983007647426 L-36.62206251065326,-126.56713485898605 L-36.58960348810173,-126.64549787145133 L-36.5596219238236,-126.72484177903767 L-36.53214740600309,-126.8050882788876 L-36.50720704867226,-126.88615817739404 L-36.4848254649527,-126.96797146835485 L-36.46502474276539,-127.0504474119293 L-36.44782442303254,-127.1335046143185 L-36.43324148039313,-127.21706110809133 L-36.421290306450906,-127.30103443307634 L-36.41198269557168,-127.38534171773996 L-36.40532783324366,-127.4698997609708 L-36.401332287012515,-127.55462511418901 L-36.39999999999999,-127.6394341637 Z M-88.0000033604,-105.428104298 L-88.0000032402,-106.928104298 L-102.0000032402,-106.9281054201 L-102.0000033604,-105.4281054201 L-88.0000033604,-105.428104298 Z M-126.0000198247,105.4280721281 L-140.0000198247,105.4280710638 L-140.0000199387,106.9280710638 L-126.0000199387,106.9280721281 L-126.0000198247,105.4280721281 Z M150.4280879195,-30.9999879437 L150.4280890416,-44.9999879437 L148.9280890416,-44.9999880639 L148.9280879195,-30.9999880639 L150.4280879195,-30.9999879437 Z M150.4280894423,-49.9999879437 L150.4280905644,-63.9999879437 L148.9280905644,-63.9999880639 L148.9280894423,-49.9999880639 L150.4280894423,-49.9999879437 Z M-12.0000198247,105.4280807943 L-26.0000198247,105.42807973 L-26.0000199387,106.92807973 L-12.0000199387,106.9280807943 L-12.0000198247,105.4280807943 Z M-31.0000033604,-105.4280997296 L-31.0000032402,-106.9280997296 L-45.0000032402,-106.9281008517 L-45.0000033604,-105.4281008517 L-31.0000033604,-105.4280997296 Z M150.4280863967,-11.9999879437 L150.4280875188,-25.9999879437 L148.9280875188,-25.9999880639 L148.9280863967,-11.9999880639 L150.4280863967,-11.9999879437 Z M-31.0000198247,105.42807935 L-45.0000198247,105.4280782857 L-45.0000199387,106.9280782857 L-31.0000199387,106.92807935 L-31.0000198247,105.42807935 Z M-7.0000164643,105.4280806134 L-7.0000166986,106.9280806134 L6.9999833014,106.9280827997 L6.9999835357,105.4280827997 L-7.0000164643,105.4280806134 Z M-107.0000033604,-105.4281058208 L-107.0000032402,-106.9281058208 L-121.0000032402,-106.9281069428 L-121.0000033604,-105.4281069428 L-107.0000033604,-105.4281058208 Z M-107.0000198247,105.4280735725 L-121.0000198247,105.4280725082 L-121.0000199387,106.9280725082 L-107.0000199387,106.9280735725 L-107.0000198247,105.4280735725 Z M-88.0000198247,105.4280750168 L-102.0000198247,105.4280739526 L-102.0000199387,106.9280739526 L-88.0000199387,106.9280750168 L-88.0000198247,105.4280750168 Z M-12.0000033604,-105.4280982069 L-12.0000032402,-106.9280982069 L-26.0000032402,-106.9280993289 L-26.0000033604,-105.4280993289 L-12.0000033604,-105.4280982069 Z M-50.0000198247,105.4280779056 L-64.0000198247,105.4280768413 L-64.0000199387,106.9280768413 L-50.0000199387,106.9280779056 L-50.0000198247,105.4280779056 Z M87.9999835357,105.4280954492 L87.9999833014,106.9280954492 L101.9999833014,106.9280976355 L101.9999835357,105.4280976355 L87.9999835357,105.4280954492 Z M106.9999835357,105.4280984163 L106.9999833014,106.9280984163 L120.9999833014,106.9281006027 L120.9999835357,105.4281006027 L106.9999835357,105.4280984163 Z M150.4280863472,11.999973026 L148.9280863472,11.99997314 L148.9280874115,25.99997314 L150.4280874115,25.999973026 L150.4280863472,11.999973026 Z M150.4280877916,30.999973026 L148.9280877916,30.99997314 L148.9280888559,44.99997314 L150.4280888559,44.999973026 L150.4280877916,30.999973026 Z M150.428089236,49.999973026 L148.928089236,49.99997314 L148.9280903002,63.99997314 L150.4280903002,63.999973026 L150.428089236,49.999973026 Z M150.4280906803,68.999973026 L148.9280906803,68.99997314 L148.9280917446,82.99997314 L150.4280917446,82.999973026 L150.4280906803,68.999973026 Z M-148.9280972451,-102 L-150.4280972451,-102 L-150.4280972451,-88 L-148.9280972451,-88 L-148.9280972451,-102 Z M7,-105.4280972451 L7,-106.9280972451 L-7,-106.9280972451 L-7,-105.4280972451 L7,-105.4280972451 Z M150.4280909651,-68.9999879437 L150.4280920872,-82.9999879437 L148.9280920872,-82.9999880639 L148.9280909651,-68.9999880639 L150.4280909651,-68.9999879437 Z M150.4280924879,-87.9999879437 L150.4280936099,-101.9999879437 L148.9280936099,-101.9999880639 L148.9280924879,-87.9999880639 L150.4280924879,-87.9999879437 Z M-126.0000033604,-105.4281073436 L-126.0000032402,-106.9281073436 L-140.0000032402,-106.9281084656 L-140.0000033604,-105.4281084656 L-126.0000033604,-105.4281073436 Z M140,-106.9280972451 L126,-106.9280972451 L126,-105.4280972451 L140,-105.4280972451 L140,-106.9280972451 Z M121,-106.9280972451 L107,-106.9280972451 L107,-105.4280972451 L121,-105.4280972451 L121,-106.9280972451 Z M102,-106.9280972451 L88,-106.9280972451 L88,-105.4280972451 L102,-105.4280972451 L102,-106.9280972451 Z M26,-106.9280972451 L12,-106.9280972451 L12,-105.4280972451 L26,-105.4280972451 L26,-106.9280972451 Z M45,-106.9280972451 L31,-106.9280972451 L31,-105.4280972451 L45,-105.4280972451 L45,-106.9280972451 Z M64,-106.9280972451 L50,-106.9280972451 L50,-105.4280972451 L64,-105.4280972451 L64,-106.9280972451 Z M83,-106.9280972451 L69,-106.9280972451 L69,-105.4280972451 L83,-105.4280972451 L83,-106.9280972451 Z M-148.9280972451,-45 L-150.4280972451,-45 L-150.4280972451,-31 L-148.9280972451,-31 L-148.9280972451,-45 Z M-150.4281109877,87.9999609697 L-150.428113174,101.9999609697 L-148.928113174,101.9999612039 L-148.9281109877,87.9999612039 L-150.4281109877,87.9999609697 Z M-148.9280972451,-26 L-150.4280972451,-26 L-150.4280972451,-12 L-148.9280972451,-12 L-148.9280972451,-26 Z M-148.9280972451,-64 L-150.4280972451,-64 L-150.4280972451,-50 L-148.9280972451,-50 L-148.9280972451,-64 Z M150.4280921247,87.999973026 L148.9280921247,87.99997314 L148.928093189,101.99997314 L150.428093189,101.999973026 L150.4280921247,87.999973026 Z M-150.4281080206,68.9999609697 L-150.4281102069,82.9999609697 L-148.9281102069,82.9999612039 L-148.9281080206,68.9999612039 L-150.4281080206,68.9999609697 Z M-150.4280991191,11.9999609697 L-150.4281013054,25.9999609697 L-148.9281013054,25.9999612039 L-148.9280991191,11.9999612039 L-150.4280991191,11.9999609697 Z M150.428084874,7.0000120563 L150.428085996,-6.9999879437 L148.928085996,-6.9999880639 L148.928084874,7.0000119361 L150.428084874,7.0000120563 Z M-150.4281020862,30.9999609697 L-150.4281042726,44.9999609697 L-148.9281042726,44.9999612039 L-148.9281020862,30.9999612039 L-150.4281020862,30.9999609697 Z M49.9999835357,105.4280895149 L49.9999833014,106.9280895149 L63.9999833014,106.9280917012 L63.9999835357,105.4280917012 L49.9999835357,105.4280895149 Z M-148.9280972451,-83 L-150.4280972451,-83 L-150.4280972451,-69 L-148.9280972451,-69 L-148.9280972451,-83 Z M-150.4281050534,49.9999609697 L-150.4281072397,63.9999609697 L-148.9281072397,63.9999612039 L-148.9281050534,49.9999612039 L-150.4281050534,49.9999609697 Z M30.9999835357,105.4280865477 L30.9999833014,106.9280865477 L44.9999833014,106.928088734 L44.9999835357,105.428088734 L30.9999835357,105.4280865477 Z M125.9999835357,105.4281013835 L125.9999833014,106.9281013835 L139.9999833014,106.9281035698 L139.9999835357,105.4281035698 L125.9999835357,105.4281013835 Z M68.9999835357,105.428092482 L68.9999833014,106.928092482 L82.9999833014,106.9280946684 L82.9999835357,105.4280946684 L68.9999835357,105.428092482 Z M11.9999835357,105.4280835806 L11.9999833014,106.9280835806 L25.9999833014,106.9280857669 L25.9999835357,105.4280857669 L11.9999835357,105.4280835806 Z" fill="#000" stroke="none" fill-rule="nonzero"/>
</svg>